<?xml version="1.0" encoding="UTF-8"?>
<svg width="118px" height="104px" viewBox="0 0 118 104" version="1.1" xmlns="http://www.w3.org/2000/svg" xmlns:xlink="http://www.w3.org/1999/xlink">
    <title>Group 13</title>
    <g id="Page-1" stroke="none" stroke-width="1" fill="none" fill-rule="evenodd">
        <g id="28_R2FtZV9jaGlrZW4tMDE" transform="translate(-891.000000, -1033.000000)">
            <g id="Group-13" transform="translate(891.000000, 1033.000000)">
                <g id="Group" transform="translate(0.000000, 30.000000)">
                    <polyline id="Fill-750" fill="#85BC0C" points="58.65 0.13 58.635 5.16 -1.42108547e-14 39.23 0.014 34.2 58.65 0.13"></polyline>
                    <polyline id="Fill-1042" fill="#85BC0C" points="117.833 34.08 117.819 39.11 59.182 73.18 59.197 68.15 117.833 34.08"></polyline>
                    <polyline id="Fill-1043" fill="#5C8308" points="59.197 68.15 59.182 73.18 0.163 39.11 0.177 34.08 59.197 68.15"></polyline>
                    <polyline id="Fill-1044" fill="#99D20D" points="117.833 34.08 59.197 68.15 0.177 34.08 58.813 4.26325641e-14 117.833 34.08"></polyline>
                </g>
                <g id="Group-12" transform="translate(2.000000, 0.000000)">
                    <g id="Group-11" transform="translate(1.000000, 0.000000)">
                        <polyline id="Fill-494" fill="#77A413" points="55.7063692 94.8423477 3.99283077 64.8056631 57.7009231 33.4056093 109.414462 63.4422939 55.7063692 94.8423477"></polyline>
                        <polyline id="Fill-495" fill="#6C5F51" points="38.1649231 5.98704301 35.7699692 4.58689964 65.846 7.980681 68.2416308 9.38116487 38.1649231 5.98704301"></polyline>
                        <polyline id="Fill-496" fill="#756859" points="35.2561846 5.65675627 32.8608923 4.2562724 36.1916923 0 38.5866462 1.40048387 35.2561846 5.65675627"></polyline>
                        <polyline id="Fill-497" fill="#756859" points="2.39529231 47.6266667 0 46.2265233 29.9589231 7.96195341 32.3542154 9.36243728 2.39529231 47.6266667"></polyline>
                        <polyline id="Fill-498" fill="#63584B" points="30.3759077 9.1394086 27.9806154 7.73926523 29.5128308 3.87933692 31.9081231 5.27982079 30.3759077 9.1394086"></polyline>
                        <polyline id="Fill-499" fill="#6C5F51" points="31.9081231 5.27982079 29.5128308 3.87933692 32.8608923 4.2562724 35.2561846 5.65675627 31.9081231 5.27982079"></polyline>
                        <polyline id="Fill-501" fill="#726556" points="38.5866462 1.40048387 40.1357846 3.47073477 38.1649231 5.98704301 68.2416308 9.38116487 66.7090769 13.2410932 35.2673538 9.69 3.94409231 49.6969176 2.39529231 47.6266667 32.3542154 9.36243728 30.3759077 9.1394086 31.9081231 5.27982079 35.2561846 5.65675627 38.5866462 1.40048387"></polyline>
                        <polyline id="Fill-502" fill="#9A8D7B" points="78.3112 35.9447312 34.2384308 10.1779391 58.5616308 12.7981004 102.634738 38.565233 78.3112 35.9447312"></polyline>
                        <polyline id="Fill-503" fill="#706759" points="54.1464 91.0290681 10.0732923 65.262276 10.0049231 41.0015233 54.0776923 66.7683154 54.1464 91.0290681"></polyline>
                        <polyline id="Fill-504" fill="#A79A86" points="54.0776923 66.7683154 10.0049231 41.0015233 34.2384308 10.1779391 78.3112 35.9447312 54.0776923 66.7683154"></polyline>
                        <polyline id="Fill-505" fill="#A29481" points="78.3112 35.9447312 102.634738 38.565233 102.703108 62.8259857 54.1464 91.0290681 54.0776923 66.7683154 78.3112 35.9447312"></polyline>
                        <polyline id="Fill-506" fill="#7D7060" points="80.6777231 33.8806093 36.6046154 8.1138172 64.7636 11.2951254 108.836369 37.0619176 80.6777231 33.8806093"></polyline>
                        <polyline id="Fill-507" fill="#7D7060" points="77.9514154 33.5744982 33.8783077 7.80804659 36.6046154 8.1138172 80.6777231 33.8806093 77.9514154 33.5744982"></polyline>
                        <polyline id="Fill-508" fill="#887A69" points="75.2356 37.0414875 31.1624923 11.2746953 33.8783077 7.80804659 77.9514154 33.5744982 75.2356 37.0414875"></polyline>
                        <polyline id="Fill-509" fill="#887A69" points="47.1825538 72.872491 3.10944615 47.1056989 31.1624923 11.2746953 75.2356 37.0414875 47.1825538 72.872491"></polyline>
                        <polyline id="Fill-510" fill="#554D42" points="48.6311692 74.8096057 4.55806154 49.0431541 3.10944615 47.1056989 47.1825538 72.872491 48.6311692 74.8096057"></polyline>
                        <polyline id="Fill-511" fill="#837665" points="77.9514154 33.5744982 80.6777231 33.8806093 108.836369 37.0619176 107.403662 40.6729391 77.9619077 37.3523656 48.6311692 74.8096057 47.1825538 72.872491 77.9514154 33.5744982"></polyline>
                        <polyline id="Fill-512" fill="#53473A" points="91.5951385 49.0622222 91.652 69.2393369 65.8872923 84.2043907 65.8304308 64.027276 91.5951385 49.0622222"></polyline>
                        <polyline id="Fill-513" fill="#648223" points="73.9105231 59.3337993 91.652 69.2393369 65.8872923 84.2043907 65.8304308 64.027276 73.9105231 59.3337993"></polyline>
                        <polyline id="Fill-514" fill="#544C41" points="85.3217538 73.9569892 84.3635692 73.3968638 84.3067077 53.2248566 85.2648923 53.7849821 85.3217538 73.9569892"></polyline>
                        <polyline id="Fill-515" fill="#887A69" points="85.2648923 53.7849821 84.3067077 53.2248566 97.812 45.3807168 98.7701846 45.9408423 85.2648923 53.7849821"></polyline>
                        <polyline id="Fill-516" fill="#7A6E5E" points="98.7701846 45.9408423 98.8270462 66.1128495 85.3217538 73.9569892 85.2648923 53.7849821 98.7701846 45.9408423"></polyline>
                        <polyline id="Fill-517" fill="#B2A18A" points="97.4288615 64.3643728 97.3858769 49.1878674 92.8159692 59.4444624 97.4288615 64.3643728"></polyline>
                        <polyline id="Fill-518" fill="#B2A18A" points="96.2977231 48.9546237 87.6754154 53.962724 92.0073846 58.5826523 96.2977231 48.9546237"></polyline>
                        <polyline id="Fill-519" fill="#B2A18A" points="87.6564615 71.0228853 96.4165231 65.9351075 92.0151692 61.2412903 87.6564615 71.0228853"></polyline>
                        <polyline id="Fill-520" fill="#B2A18A" points="86.6630769 55.5331183 86.7050462 70.482509 91.2069231 60.3791398 86.6630769 55.5331183"></polyline>
                        <path d="M87.6564615,71.0228853 L92.0151692,61.2412903 L96.4165231,65.9351075 L87.6564615,71.0228853 Z M86.6630769,55.5331183 L91.2069231,60.3791398 L86.7050462,70.482509 L86.6630769,55.5331183 Z M96.2977231,48.9546237 L92.0073846,58.5826523 L87.6754154,53.962724 L96.2977231,48.9546237 Z M97.4288615,64.3643728 L92.8159692,59.4444624 L97.3858769,49.1878674 L97.4288615,64.3643728 Z M98.7722154,45.9394803 L85.2628615,53.7860036 L85.3197231,73.9583513 L98.8290769,66.1114875 L98.7722154,45.9394803 L98.7722154,45.9394803 Z" id="Fill-521" fill="#9E8E7A"></path>
                        <polyline id="Fill-522" fill="#494037" points="65.4032923 65.0630824 64.4454462 64.502957 64.4373231 61.6887097 65.3955077 62.2488351 65.4032923 65.0630824"></polyline>
                        <polyline id="Fill-523" fill="#766758" points="65.3955077 62.2488351 64.4373231 61.6887097 93.6218462 44.737509 94.5800308 45.2976344 65.3955077 62.2488351"></polyline>
                        <polyline id="Fill-524" fill="#6A5D4F" points="94.5800308 45.2976344 94.5878154 48.1118817 65.4032923 65.0630824 65.3955077 62.2488351 94.5800308 45.2976344"></polyline>
                        <polyline id="Fill-525" fill="#706759" points="68.9473231 27.7049283 37.5174462 66.6225806 36.4993538 66.022276 68.0260308 27.1928136 68.9473231 27.7049283"></polyline>
                        <polyline id="Fill-526" fill="#706759" points="58.5971692 21.9633871 27.1672923 60.8810394 26.1495385 60.2810753 57.6758769 21.4512724 58.5971692 21.9633871"></polyline>
                        <polyline id="Fill-527" fill="#706759" points="40.5849231 11.4187276 9.15504615 50.3363799 8.13729231 49.7360753 39.6636308 10.9069534 40.5849231 11.4187276"></polyline>
                        <polyline id="Fill-528" fill="#706759" points="49.5808923 16.7417921 18.1506769 55.6597849 17.1329231 55.0594803 48.6596 16.2300179 49.5808923 16.7417921"></polyline>
                        <polyline id="Fill-529" fill="#575045" points="80.5924308 43.9928315 80.6005538 46.9626882 78.0316308 48.4551075 78.0231692 45.4849104 80.5924308 43.9928315"></polyline>
                        <polyline id="Fill-530" fill="#575045" points="39.8044308 72.5442473 39.7959692 75.5141039 42.3648923 77.0061828 42.3733538 74.0363262 39.8044308 72.5442473"></polyline>
                        <polyline id="Fill-531" fill="#575045" points="18.4867692 59.6371864 18.4783077 62.607043 21.0475692 64.0991219 21.0560308 61.1292652 18.4867692 59.6371864"></polyline>
                        <polyline id="Fill-532" fill="#8E8273" points="54.0776923 70.8315233 78.6351077 39.9646953 102.634738 42.4248208 102.634738 38.565233 78.0231692 35.0437634 54.0776923 66.0154659 54.0776923 70.8315233"></polyline>
                        <polyline id="Fill-533" fill="#6C5F51" points="81.0304 33.6725627 78.6351077 32.2720789 107.385385 35.5170609 109.780338 36.9175448 81.0304 33.6725627"></polyline>
                        <polyline id="Fill-534" fill="#756859" points="78.2475692 33.3541935 75.8522769 31.9540502 79.0355077 27.8887993 81.4308 29.2892832 78.2475692 33.3541935"></polyline>
                        <polyline id="Fill-535" fill="#756859" points="46.8332615 73.4792652 44.4379692 72.0787814 73.0802769 35.4986738 75.4755692 36.8991577 46.8332615 73.4792652"></polyline>
                        <polyline id="Fill-536" fill="#63584B" points="73.5839077 36.6860036 71.1889538 35.2855197 72.6517846 31.5968638 75.0474154 32.9970072 73.5839077 36.6860036"></polyline>
                        <polyline id="Fill-537" fill="#6C5F52" points="75.0474154 32.9970072 72.6517846 31.5968638 75.8522769 31.9540502 78.2475692 33.3541935 75.0474154 32.9970072"></polyline>
                        <polyline id="Fill-538" fill="#4A4138" points="48.3123385 75.4589427 45.9170462 74.0587993 44.4379692 72.0787814 46.8332615 73.4792652 48.3123385 75.4589427"></polyline>
                        <polyline id="Fill-539" fill="#726556" points="81.4308 29.2892832 82.9098769 31.2693011 81.0304 33.6725627 109.780338 36.9175448 108.317508 40.6062007 78.2584 37.2120789 48.3123385 75.4589427 46.8332615 73.4792652 75.4755692 36.8991577 73.5839077 36.6860036 75.0474154 32.9970072 78.2475692 33.3541935 81.4308 29.2892832"></polyline>
                    </g>
                    <polyline id="Fill-500" fill="#4A4138" points="5 50 1.96344289 48.3857928 0 46 3.03655711 47.6138148 5 50"></polyline>
                </g>
            </g>
        </g>
    </g>
</svg>