<?xml version="1.0" encoding="UTF-8"?>
<svg width="125px" height="111px" viewBox="0 0 125 111" version="1.1" xmlns="http://www.w3.org/2000/svg" xmlns:xlink="http://www.w3.org/1999/xlink">
    <title>Group 16</title>
    <g id="Page-1" stroke="none" stroke-width="1" fill="none" fill-rule="evenodd">
        <g id="28_R2FtZV9jaGlrZW4tMDE" transform="translate(-616.000000, -985.000000)">
            <g id="Group-16" transform="translate(616.000000, 985.000000)">
                <polyline id="Fill-708" fill="#85BC0C" points="121.669 71.075 121.655 76.102 63.019 110.177 63.033 105.15 121.669 71.075"></polyline>
                <polyline id="Fill-709" fill="#5C8308" points="63.033 105.15 63.019 110.177 4 76.102 4.013 71.075 63.033 105.15"></polyline>
                <polyline id="Fill-710" fill="#99D20D" points="121.669 71.075 63.033 105.15 4.013 71.075 62.65 37 121.669 71.075"></polyline>
                <polyline id="Fill-495" fill="#6C5F51" points="43.3692308 6.74330108 40.6476923 5.16629749 74.825 8.98876703 77.5473077 10.5661541 43.3692308 6.74330108"></polyline>
                <polyline id="Fill-496" fill="#756859" points="40.0638462 6.37129391 37.3419231 4.79390681 41.1269231 2.66453526e-14 43.8484615 1.5773871 40.0638462 6.37129391"></polyline>
                <polyline id="Fill-497" fill="#756859" points="2.72192308 53.6426667 1.42108547e-14 52.0656631 34.0442308 8.96767384 36.7661538 10.5450609 2.72192308 53.6426667"></polyline>
                <polyline id="Fill-498" fill="#63584B" points="34.5180769 10.2938602 31.7961538 8.71685663 33.5373077 4.36935842 36.2592308 5.94674552 34.5180769 10.2938602"></polyline>
                <polyline id="Fill-499" fill="#6C5F51" points="36.2592308 5.94674552 33.5373077 4.36935842 37.3419231 4.79390681 40.0638462 6.37129391 36.2592308 5.94674552"></polyline>
                <polyline id="Fill-500" fill="#4A4138" points="4.48192308 55.9744229 1.76 54.3970358 -8.8817842e-15 52.0656631 2.72192308 53.6426667 4.48192308 55.9744229"></polyline>
                <polyline id="Fill-501" fill="#726556" points="43.8484615 1.5773871 45.6088462 3.90914337 43.3692308 6.74330108 77.5473077 10.5661541 75.8057692 14.9136523 40.0765385 10.914 4.48192308 55.9744229 2.72192308 53.6426667 36.7661538 10.5450609 34.5180769 10.2938602 36.2592308 5.94674552 40.0638462 6.37129391 43.8484615 1.5773871"></polyline>
                <polyline id="Fill-502" fill="#9A8D7B" points="88.99 40.4851183 38.9073077 11.4635735 66.5473077 14.4147025 116.630385 43.4366308 88.99 40.4851183"></polyline>
                <polyline id="Fill-503" fill="#706759" points="61.53 102.527477 11.4469231 73.5059319 11.3692308 46.1806631 61.4519231 75.2022079 61.53 102.527477"></polyline>
                <polyline id="Fill-504" fill="#A79A86" points="61.4519231 75.2022079 11.3692308 46.1806631 38.9073077 11.4635735 88.99 40.4851183 61.4519231 75.2022079"></polyline>
                <polyline id="Fill-505" fill="#A29481" points="88.99 40.4851183 116.630385 43.4366308 116.708077 70.7618996 61.53 102.527477 61.4519231 75.2022079 88.99 40.4851183"></polyline>
                <polyline id="Fill-506" fill="#7D7060" points="91.6792308 38.1602652 41.5961538 9.13872043 73.595 12.7218781 123.677692 41.7434229 91.6792308 38.1602652"></polyline>
                <polyline id="Fill-507" fill="#7D7060" points="88.5811538 37.8154875 38.4980769 8.79432616 41.5961538 9.13872043 91.6792308 38.1602652 88.5811538 37.8154875"></polyline>
                <polyline id="Fill-508" fill="#887A69" points="85.495 41.7204122 35.4119231 12.6988674 38.4980769 8.79432616 88.5811538 37.8154875 85.495 41.7204122"></polyline>
                <polyline id="Fill-509" fill="#887A69" points="53.6165385 82.0774373 3.53346154 53.0558925 35.4119231 12.6988674 85.495 41.7204122 53.6165385 82.0774373"></polyline>
                <polyline id="Fill-510" fill="#554D42" points="55.2626923 84.2592401 5.17961538 55.2380789 3.53346154 53.0558925 53.6165385 82.0774373 55.2626923 84.2592401"></polyline>
                <polyline id="Fill-511" fill="#837665" points="88.5811538 37.8154875 91.6792308 38.1602652 123.677692 41.7434229 122.049615 45.8105735 88.5930769 42.0705591 55.2626923 84.2592401 53.6165385 82.0774373 88.5811538 37.8154875"></polyline>
                <polyline id="Fill-512" fill="#53473A" points="104.085385 55.2595556 104.15 77.9853584 74.8719231 94.8407348 74.8073077 72.1149319 104.085385 55.2595556"></polyline>
                <polyline id="Fill-513" fill="#648223" points="83.9892308 66.828595 104.15 77.9853584 74.8719231 94.8407348 74.8073077 72.1149319 83.9892308 66.828595"></polyline>
                <polyline id="Fill-514" fill="#544C41" points="96.9565385 83.2989247 95.8676923 82.6680466 95.8030769 59.9479964 96.8919231 60.5788746 96.9565385 83.2989247"></polyline>
                <polyline id="Fill-515" fill="#887A69" points="96.8919231 60.5788746 95.8030769 59.9479964 111.15 51.1130179 112.238846 51.7438961 96.8919231 60.5788746"></polyline>
                <polyline id="Fill-516" fill="#7A6E5E" points="112.238846 51.7438961 112.303462 74.4639462 96.9565385 83.2989247 96.8919231 60.5788746 112.238846 51.7438961"></polyline>
                <polyline id="Fill-517" fill="#B2A18A" points="110.714615 72.4946093 110.665769 55.4010717 105.472692 66.9532366 110.714615 72.4946093"></polyline>
                <polyline id="Fill-518" fill="#B2A18A" points="109.429231 55.1383656 99.6311538 60.7790681 104.553846 65.9825663 109.429231 55.1383656"></polyline>
                <polyline id="Fill-519" fill="#B2A18A" points="99.6096154 79.9941971 109.564231 74.2637527 104.562692 68.9770323 99.6096154 79.9941971"></polyline>
                <polyline id="Fill-520" fill="#B2A18A" points="98.4807692 62.547828 98.5284615 79.3855627 103.644231 68.0059785 98.4807692 62.547828"></polyline>
                <path d="M99.6096154,79.9941971 L104.562692,68.9770323 L109.564231,74.2637527 L99.6096154,79.9941971 Z M98.4807692,62.547828 L103.644231,68.0059785 L98.5284615,79.3855627 L98.4807692,62.547828 Z M109.429231,55.1383656 L104.553846,65.9825663 L99.6311538,60.7790681 L109.429231,55.1383656 Z M110.714615,72.4946093 L105.472692,66.9532366 L110.665769,55.4010717 L110.714615,72.4946093 Z M112.241154,51.742362 L96.8896154,60.5800251 L96.9542308,83.3004588 L112.305769,74.4624122 L112.241154,51.742362 L112.241154,51.742362 Z" id="Fill-521" fill="#9E8E7A"></path>
                <polyline id="Fill-522" fill="#494037" points="74.3219231 73.2815771 73.2334615 72.6506989 73.2242308 69.4809677 74.3130769 70.1118459 74.3219231 73.2815771"></polyline>
                <polyline id="Fill-523" fill="#766758" points="74.3130769 70.1118459 73.2242308 69.4809677 106.388462 50.3885627 107.477308 51.0194409 74.3130769 70.1118459"></polyline>
                <polyline id="Fill-524" fill="#6A5D4F" points="107.477308 51.0194409 107.486154 54.189172 74.3219231 73.2815771 74.3130769 70.1118459 107.477308 51.0194409"></polyline>
                <polyline id="Fill-525" fill="#706759" points="78.3492308 31.2044982 42.6334615 75.0380645 41.4765385 74.3619319 77.3023077 30.6276953 78.3492308 31.2044982"></polyline>
                <polyline id="Fill-526" fill="#706759" points="66.5876923 24.7377097 30.8719231 68.571276 29.7153846 67.8955269 65.5407692 24.1609068 66.5876923 24.7377097"></polyline>
                <polyline id="Fill-527" fill="#706759" points="46.1192308 12.8610932 10.4034615 56.6946595 9.24692308 56.0185269 45.0723077 12.2846738 46.1192308 12.8610932"></polyline>
                <polyline id="Fill-528" fill="#706759" points="56.3419231 18.8565448 20.6257692 62.6904946 19.4692308 62.014362 55.295 18.2801254 56.3419231 18.8565448"></polyline>
                <polyline id="Fill-529" fill="#575045" points="91.5823077 49.5498208 91.5915385 52.8948172 88.6723077 54.5757527 88.6626923 51.2303728 91.5823077 49.5498208"></polyline>
                <polyline id="Fill-531" fill="#575045" points="21.0076923 67.1703047 20.9980769 70.5153011 23.9176923 72.195853 23.9273077 68.8508566 21.0076923 67.1703047"></polyline>
                <polyline id="Fill-532" fill="#8E8273" points="61.4519231 79.7786631 89.3580769 45.0128674 116.630385 47.7837455 116.630385 43.4366308 88.6626923 39.4703441 61.4519231 74.3542616 61.4519231 79.7786631"></polyline>
                <polyline id="Fill-533" fill="#6C5F51" points="92.08 37.9259391 89.3580769 36.348552 122.028846 40.0034265 124.750385 41.5808136 92.08 37.9259391"></polyline>
                <polyline id="Fill-534" fill="#756859" points="88.9176923 37.5673548 86.1957692 35.9903513 89.8130769 31.411595 92.535 32.9889821 88.9176923 37.5673548"></polyline>
                <polyline id="Fill-535" fill="#756859" points="53.2196154 82.7608566 50.4976923 81.1834695 83.0457692 39.9827168 85.7676923 41.5601039 53.2196154 82.7608566"></polyline>
                <polyline id="Fill-536" fill="#63584B" points="83.6180769 41.3200251 80.8965385 39.742638 82.5588462 35.5880466 85.2811538 37.1650502 83.6180769 41.3200251"></polyline>
                <polyline id="Fill-537" fill="#6C5F52" points="85.2811538 37.1650502 82.5588462 35.5880466 86.1957692 35.9903513 88.9176923 37.5673548 85.2811538 37.1650502"></polyline>
                <polyline id="Fill-539" fill="#726556" points="92.535 32.9889821 94.2157692 35.2191075 92.08 37.9259391 124.750385 41.5808136 123.088077 45.735405 88.93 41.912552 54.9003846 84.9905986 53.2196154 82.7608566 85.7676923 41.5601039 83.6180769 41.3200251 85.2811538 37.1650502 88.9176923 37.5673548 92.535 32.9889821"></polyline>
                <polyline id="Fill-530" fill="#575045" points="45.009849 82 45 84.6623932 47.990151 86 48 83.3376068 45.009849 82"></polyline>
                <polyline id="Fill-538" fill="#4A4138" points="55 86 52.5270377 84.3431047 51 82 53.4729623 83.6572983 55 86"></polyline>
            </g>
        </g>
    </g>
</svg>