<?xml version="1.0" encoding="UTF-8"?>
<svg width="118px" height="87px" viewBox="0 0 118 87" version="1.1" xmlns="http://www.w3.org/2000/svg" xmlns:xlink="http://www.w3.org/1999/xlink">
    <title>Group</title>
    <g id="Page-1" stroke="none" stroke-width="1" fill="none" fill-rule="evenodd">
        <g id="28_R2FtZV9jaGlrZW4tMDE" transform="translate(-884.000000, -1044.000000)">
            <g id="Group" transform="translate(884.000000, 1044.000000)">
                <polyline id="Fill-750" fill="#85BC0C" points="58.65 13.13 58.635 18.16 4.26325641e-14 52.23 0.014 47.2 58.65 13.13"></polyline>
                <polyline id="Fill-1042" fill="#85BC0C" points="117.833 47.08 117.819 52.11 59.182 86.18 59.197 81.15 117.833 47.08"></polyline>
                <polyline id="Fill-1043" fill="#5C8308" points="59.197 81.15 59.182 86.18 0.163 52.11 0.177 47.08 59.197 81.15"></polyline>
                <polyline id="Fill-1044" fill="#7C661E" points="117.833 47.08 59.197 81.15 0.177 47.08 58.813 13 117.833 47.08"></polyline>
                <g id="Group-6" transform="translate(54.000000, 0.000000)">
                    <polyline id="Fill-606" fill="#C55900" points="14.718 17.3827652 14.697 24.8927652 7.373 29.1487652 7.395 21.6377652 14.718 17.3827652"></polyline>
                    <polyline id="Fill-607" fill="#893E00" points="7.395 21.6377652 7.373 29.1487652 0 24.8917652 0.022 17.3817652 7.395 21.6377652"></polyline>
                    <polyline id="Fill-608" fill="#DC6300" points="14.718 17.3827652 7.395 21.6377652 0.022 17.3817652 7.345 13.1257652 14.718 17.3827652"></polyline>
                    <polyline id="Fill-609" fill="#99D821" points="9.779 7.85976521 11.943 6.60176521 10.082 17.8037652 7.918 19.0617652 9.779 7.85976521"></polyline>
                    <path d="M11.954,6.09476521 C11.953,6.00676521 11.949,5.91676521 11.941,5.82676521 L11.926,5.67976521 L11.89,5.41976521 L11.865,5.27076521 C11.848,5.17776521 11.828,5.08476521 11.805,4.99076521 L11.776,4.86176521 C11.741,4.72676521 11.702,4.59076521 11.658,4.45476521 L11.652,4.43676521 C11.609,4.30676521 11.562,4.17676521 11.511,4.04776521 L11.457,3.91576521 L11.379,3.72676521 L11.349,3.66576521 C11.287,3.52576521 11.219,3.38776521 11.148,3.25176521 L11.106,3.16876521 C11.019,3.00676521 10.925,2.84776521 10.828,2.69176521 L10.743,2.56376521 C10.668,2.45076521 10.593,2.33976521 10.514,2.23076521 L10.402,2.08176521 C10.323,1.97876521 10.242,1.87876521 10.159,1.78076521 L10.085,1.69076521 L10.045,1.64776521 L9.856,1.44676521 L9.713,1.30076521 L9.505,1.10976521 L9.365,0.984765205 L9.123,0.796765205 L9,0.702765205 C8.876,0.615765205 8.751,0.533765205 8.623,0.460765205 C8.273,0.257765205 7.935,0.124765205 7.619,0.0557652054 C7.408,0.00976520537 7.205,-0.00723479463 7.015,0.00276520537 C6.825,0.0127652054 6.646,0.0497652054 6.48,0.112765205 L6.242,0.225765205 L4.078,1.48376521 C4.683,1.13176521 5.523,1.17776521 6.458,1.71776521 C6.586,1.79176521 6.712,1.87376521 6.835,1.96076521 L6.958,2.05376521 L7.2,2.24176521 L7.34,2.36776521 L7.548,2.55876521 L7.692,2.70576521 L7.88,2.90576521 L7.994,3.03876521 C8.077,3.13676521 8.159,3.23676521 8.237,3.33976521 L8.349,3.48876521 C8.428,3.59776521 8.504,3.70876521 8.579,3.82176521 L8.662,3.94976521 C8.76,4.10576521 8.854,4.26476521 8.942,4.42676521 L8.983,4.50976521 C9.054,4.64676521 9.121,4.78376521 9.185,4.92376521 L9.292,5.17376521 L9.347,5.30476521 C9.398,5.43476521 9.445,5.56476521 9.488,5.69576521 L9.494,5.71276521 C9.537,5.84876521 9.576,5.98476521 9.611,6.12076521 L9.64,6.24876521 C9.662,6.34176521 9.683,6.43576521 9.701,6.52876521 L9.726,6.67776521 L9.761,6.93676521 L9.776,7.08476521 C9.784,7.17476521 9.787,7.26476521 9.79,7.35376521 L9.793,7.47876521 C9.794,7.60776521 9.789,7.73476521 9.779,7.85976521 L11.943,6.60176521 C11.954,6.47676521 11.958,6.34976521 11.958,6.22076521 L11.954,6.09476521" id="Fill-610" fill="#99D821"></path>
                    <path d="M6.458,1.71776521 C8.434,2.85876521 9.974,5.70676521 9.779,7.85976521 L7.918,19.0617652 L4.904,17.3207652 L3.115,4.01176521 C2.93,1.64076521 4.482,0.576765205 6.458,1.71776521" id="Fill-611" fill="#72AF08"></path>
                </g>
                <g id="Group-6" transform="translate(72.000000, 11.000000)">
                    <polyline id="Fill-606" fill="#C55900" points="14.718 17.3827652 14.697 24.8927652 7.373 29.1487652 7.395 21.6377652 14.718 17.3827652"></polyline>
                    <polyline id="Fill-607" fill="#893E00" points="7.395 21.6377652 7.373 29.1487652 0 24.8917652 0.022 17.3817652 7.395 21.6377652"></polyline>
                    <polyline id="Fill-608" fill="#DC6300" points="14.718 17.3827652 7.395 21.6377652 0.022 17.3817652 7.345 13.1257652 14.718 17.3827652"></polyline>
                    <polyline id="Fill-609" fill="#99D821" points="9.779 7.85976521 11.943 6.60176521 10.082 17.8037652 7.918 19.0617652 9.779 7.85976521"></polyline>
                    <path d="M11.954,6.09476521 C11.953,6.00676521 11.949,5.91676521 11.941,5.82676521 L11.926,5.67976521 L11.89,5.41976521 L11.865,5.27076521 C11.848,5.17776521 11.828,5.08476521 11.805,4.99076521 L11.776,4.86176521 C11.741,4.72676521 11.702,4.59076521 11.658,4.45476521 L11.652,4.43676521 C11.609,4.30676521 11.562,4.17676521 11.511,4.04776521 L11.457,3.91576521 L11.379,3.72676521 L11.349,3.66576521 C11.287,3.52576521 11.219,3.38776521 11.148,3.25176521 L11.106,3.16876521 C11.019,3.00676521 10.925,2.84776521 10.828,2.69176521 L10.743,2.56376521 C10.668,2.45076521 10.593,2.33976521 10.514,2.23076521 L10.402,2.08176521 C10.323,1.97876521 10.242,1.87876521 10.159,1.78076521 L10.085,1.69076521 L10.045,1.64776521 L9.856,1.44676521 L9.713,1.30076521 L9.505,1.10976521 L9.365,0.984765205 L9.123,0.796765205 L9,0.702765205 C8.876,0.615765205 8.751,0.533765205 8.623,0.460765205 C8.273,0.257765205 7.935,0.124765205 7.619,0.0557652054 C7.408,0.00976520537 7.205,-0.00723479463 7.015,0.00276520537 C6.825,0.0127652054 6.646,0.0497652054 6.48,0.112765205 L6.242,0.225765205 L4.078,1.48376521 C4.683,1.13176521 5.523,1.17776521 6.458,1.71776521 C6.586,1.79176521 6.712,1.87376521 6.835,1.96076521 L6.958,2.05376521 L7.2,2.24176521 L7.34,2.36776521 L7.548,2.55876521 L7.692,2.70576521 L7.88,2.90576521 L7.994,3.03876521 C8.077,3.13676521 8.159,3.23676521 8.237,3.33976521 L8.349,3.48876521 C8.428,3.59776521 8.504,3.70876521 8.579,3.82176521 L8.662,3.94976521 C8.76,4.10576521 8.854,4.26476521 8.942,4.42676521 L8.983,4.50976521 C9.054,4.64676521 9.121,4.78376521 9.185,4.92376521 L9.292,5.17376521 L9.347,5.30476521 C9.398,5.43476521 9.445,5.56476521 9.488,5.69576521 L9.494,5.71276521 C9.537,5.84876521 9.576,5.98476521 9.611,6.12076521 L9.64,6.24876521 C9.662,6.34176521 9.683,6.43576521 9.701,6.52876521 L9.726,6.67776521 L9.761,6.93676521 L9.776,7.08476521 C9.784,7.17476521 9.787,7.26476521 9.79,7.35376521 L9.793,7.47876521 C9.794,7.60776521 9.789,7.73476521 9.779,7.85976521 L11.943,6.60176521 C11.954,6.47676521 11.958,6.34976521 11.958,6.22076521 L11.954,6.09476521" id="Fill-610" fill="#99D821"></path>
                    <path d="M6.458,1.71776521 C8.434,2.85876521 9.974,5.70676521 9.779,7.85976521 L7.918,19.0617652 L4.904,17.3207652 L3.115,4.01176521 C2.93,1.64076521 4.482,0.576765205 6.458,1.71776521" id="Fill-611" fill="#72AF08"></path>
                </g>
                <g id="Group-6" transform="translate(90.000000, 22.000000)">
                    <polyline id="Fill-606" fill="#C55900" points="14.718 17.3827652 14.697 24.8927652 7.373 29.1487652 7.395 21.6377652 14.718 17.3827652"></polyline>
                    <polyline id="Fill-607" fill="#893E00" points="7.395 21.6377652 7.373 29.1487652 0 24.8917652 0.022 17.3817652 7.395 21.6377652"></polyline>
                    <polyline id="Fill-608" fill="#DC6300" points="14.718 17.3827652 7.395 21.6377652 0.022 17.3817652 7.345 13.1257652 14.718 17.3827652"></polyline>
                    <polyline id="Fill-609" fill="#99D821" points="9.779 7.85976521 11.943 6.60176521 10.082 17.8037652 7.918 19.0617652 9.779 7.85976521"></polyline>
                    <path d="M11.954,6.09476521 C11.953,6.00676521 11.949,5.91676521 11.941,5.82676521 L11.926,5.67976521 L11.89,5.41976521 L11.865,5.27076521 C11.848,5.17776521 11.828,5.08476521 11.805,4.99076521 L11.776,4.86176521 C11.741,4.72676521 11.702,4.59076521 11.658,4.45476521 L11.652,4.43676521 C11.609,4.30676521 11.562,4.17676521 11.511,4.04776521 L11.457,3.91576521 L11.379,3.72676521 L11.349,3.66576521 C11.287,3.52576521 11.219,3.38776521 11.148,3.25176521 L11.106,3.16876521 C11.019,3.00676521 10.925,2.84776521 10.828,2.69176521 L10.743,2.56376521 C10.668,2.45076521 10.593,2.33976521 10.514,2.23076521 L10.402,2.08176521 C10.323,1.97876521 10.242,1.87876521 10.159,1.78076521 L10.085,1.69076521 L10.045,1.64776521 L9.856,1.44676521 L9.713,1.30076521 L9.505,1.10976521 L9.365,0.984765205 L9.123,0.796765205 L9,0.702765205 C8.876,0.615765205 8.751,0.533765205 8.623,0.460765205 C8.273,0.257765205 7.935,0.124765205 7.619,0.0557652054 C7.408,0.00976520537 7.205,-0.00723479463 7.015,0.00276520537 C6.825,0.0127652054 6.646,0.0497652054 6.48,0.112765205 L6.242,0.225765205 L4.078,1.48376521 C4.683,1.13176521 5.523,1.17776521 6.458,1.71776521 C6.586,1.79176521 6.712,1.87376521 6.835,1.96076521 L6.958,2.05376521 L7.2,2.24176521 L7.34,2.36776521 L7.548,2.55876521 L7.692,2.70576521 L7.88,2.90576521 L7.994,3.03876521 C8.077,3.13676521 8.159,3.23676521 8.237,3.33976521 L8.349,3.48876521 C8.428,3.59776521 8.504,3.70876521 8.579,3.82176521 L8.662,3.94976521 C8.76,4.10576521 8.854,4.26476521 8.942,4.42676521 L8.983,4.50976521 C9.054,4.64676521 9.121,4.78376521 9.185,4.92376521 L9.292,5.17376521 L9.347,5.30476521 C9.398,5.43476521 9.445,5.56476521 9.488,5.69576521 L9.494,5.71276521 C9.537,5.84876521 9.576,5.98476521 9.611,6.12076521 L9.64,6.24876521 C9.662,6.34176521 9.683,6.43576521 9.701,6.52876521 L9.726,6.67776521 L9.761,6.93676521 L9.776,7.08476521 C9.784,7.17476521 9.787,7.26476521 9.79,7.35376521 L9.793,7.47876521 C9.794,7.60776521 9.789,7.73476521 9.779,7.85976521 L11.943,6.60176521 C11.954,6.47676521 11.958,6.34976521 11.958,6.22076521 L11.954,6.09476521" id="Fill-610" fill="#99D821"></path>
                    <path d="M6.458,1.71776521 C8.434,2.85876521 9.974,5.70676521 9.779,7.85976521 L7.918,19.0617652 L4.904,17.3207652 L3.115,4.01176521 C2.93,1.64076521 4.482,0.576765205 6.458,1.71776521" id="Fill-611" fill="#72AF08"></path>
                </g>
                <g id="Group-6" transform="translate(35.000000, 11.000000)">
                    <polyline id="Fill-606" fill="#C55900" points="14.718 17.3827652 14.697 24.8927652 7.373 29.1487652 7.395 21.6377652 14.718 17.3827652"></polyline>
                    <polyline id="Fill-607" fill="#893E00" points="7.395 21.6377652 7.373 29.1487652 0 24.8917652 0.022 17.3817652 7.395 21.6377652"></polyline>
                    <polyline id="Fill-608" fill="#DC6300" points="14.718 17.3827652 7.395 21.6377652 0.022 17.3817652 7.345 13.1257652 14.718 17.3827652"></polyline>
                    <polyline id="Fill-609" fill="#99D821" points="9.779 7.85976521 11.943 6.60176521 10.082 17.8037652 7.918 19.0617652 9.779 7.85976521"></polyline>
                    <path d="M11.954,6.09476521 C11.953,6.00676521 11.949,5.91676521 11.941,5.82676521 L11.926,5.67976521 L11.89,5.41976521 L11.865,5.27076521 C11.848,5.17776521 11.828,5.08476521 11.805,4.99076521 L11.776,4.86176521 C11.741,4.72676521 11.702,4.59076521 11.658,4.45476521 L11.652,4.43676521 C11.609,4.30676521 11.562,4.17676521 11.511,4.04776521 L11.457,3.91576521 L11.379,3.72676521 L11.349,3.66576521 C11.287,3.52576521 11.219,3.38776521 11.148,3.25176521 L11.106,3.16876521 C11.019,3.00676521 10.925,2.84776521 10.828,2.69176521 L10.743,2.56376521 C10.668,2.45076521 10.593,2.33976521 10.514,2.23076521 L10.402,2.08176521 C10.323,1.97876521 10.242,1.87876521 10.159,1.78076521 L10.085,1.69076521 L10.045,1.64776521 L9.856,1.44676521 L9.713,1.30076521 L9.505,1.10976521 L9.365,0.984765205 L9.123,0.796765205 L9,0.702765205 C8.876,0.615765205 8.751,0.533765205 8.623,0.460765205 C8.273,0.257765205 7.935,0.124765205 7.619,0.0557652054 C7.408,0.00976520537 7.205,-0.00723479463 7.015,0.00276520537 C6.825,0.0127652054 6.646,0.0497652054 6.48,0.112765205 L6.242,0.225765205 L4.078,1.48376521 C4.683,1.13176521 5.523,1.17776521 6.458,1.71776521 C6.586,1.79176521 6.712,1.87376521 6.835,1.96076521 L6.958,2.05376521 L7.2,2.24176521 L7.34,2.36776521 L7.548,2.55876521 L7.692,2.70576521 L7.88,2.90576521 L7.994,3.03876521 C8.077,3.13676521 8.159,3.23676521 8.237,3.33976521 L8.349,3.48876521 C8.428,3.59776521 8.504,3.70876521 8.579,3.82176521 L8.662,3.94976521 C8.76,4.10576521 8.854,4.26476521 8.942,4.42676521 L8.983,4.50976521 C9.054,4.64676521 9.121,4.78376521 9.185,4.92376521 L9.292,5.17376521 L9.347,5.30476521 C9.398,5.43476521 9.445,5.56476521 9.488,5.69576521 L9.494,5.71276521 C9.537,5.84876521 9.576,5.98476521 9.611,6.12076521 L9.64,6.24876521 C9.662,6.34176521 9.683,6.43576521 9.701,6.52876521 L9.726,6.67776521 L9.761,6.93676521 L9.776,7.08476521 C9.784,7.17476521 9.787,7.26476521 9.79,7.35376521 L9.793,7.47876521 C9.794,7.60776521 9.789,7.73476521 9.779,7.85976521 L11.943,6.60176521 C11.954,6.47676521 11.958,6.34976521 11.958,6.22076521 L11.954,6.09476521" id="Fill-610" fill="#99D821"></path>
                    <path d="M6.458,1.71776521 C8.434,2.85876521 9.974,5.70676521 9.779,7.85976521 L7.918,19.0617652 L4.904,17.3207652 L3.115,4.01176521 C2.93,1.64076521 4.482,0.576765205 6.458,1.71776521" id="Fill-611" fill="#72AF08"></path>
                </g>
                <g id="Group-6" transform="translate(53.000000, 22.000000)">
                    <polyline id="Fill-606" fill="#C55900" points="14.718 17.3827652 14.697 24.8927652 7.373 29.1487652 7.395 21.6377652 14.718 17.3827652"></polyline>
                    <polyline id="Fill-607" fill="#893E00" points="7.395 21.6377652 7.373 29.1487652 0 24.8917652 0.022 17.3817652 7.395 21.6377652"></polyline>
                    <polyline id="Fill-608" fill="#DC6300" points="14.718 17.3827652 7.395 21.6377652 0.022 17.3817652 7.345 13.1257652 14.718 17.3827652"></polyline>
                    <polyline id="Fill-609" fill="#99D821" points="9.779 7.85976521 11.943 6.60176521 10.082 17.8037652 7.918 19.0617652 9.779 7.85976521"></polyline>
                    <path d="M11.954,6.09476521 C11.953,6.00676521 11.949,5.91676521 11.941,5.82676521 L11.926,5.67976521 L11.89,5.41976521 L11.865,5.27076521 C11.848,5.17776521 11.828,5.08476521 11.805,4.99076521 L11.776,4.86176521 C11.741,4.72676521 11.702,4.59076521 11.658,4.45476521 L11.652,4.43676521 C11.609,4.30676521 11.562,4.17676521 11.511,4.04776521 L11.457,3.91576521 L11.379,3.72676521 L11.349,3.66576521 C11.287,3.52576521 11.219,3.38776521 11.148,3.25176521 L11.106,3.16876521 C11.019,3.00676521 10.925,2.84776521 10.828,2.69176521 L10.743,2.56376521 C10.668,2.45076521 10.593,2.33976521 10.514,2.23076521 L10.402,2.08176521 C10.323,1.97876521 10.242,1.87876521 10.159,1.78076521 L10.085,1.69076521 L10.045,1.64776521 L9.856,1.44676521 L9.713,1.30076521 L9.505,1.10976521 L9.365,0.984765205 L9.123,0.796765205 L9,0.702765205 C8.876,0.615765205 8.751,0.533765205 8.623,0.460765205 C8.273,0.257765205 7.935,0.124765205 7.619,0.0557652054 C7.408,0.00976520537 7.205,-0.00723479463 7.015,0.00276520537 C6.825,0.0127652054 6.646,0.0497652054 6.48,0.112765205 L6.242,0.225765205 L4.078,1.48376521 C4.683,1.13176521 5.523,1.17776521 6.458,1.71776521 C6.586,1.79176521 6.712,1.87376521 6.835,1.96076521 L6.958,2.05376521 L7.2,2.24176521 L7.34,2.36776521 L7.548,2.55876521 L7.692,2.70576521 L7.88,2.90576521 L7.994,3.03876521 C8.077,3.13676521 8.159,3.23676521 8.237,3.33976521 L8.349,3.48876521 C8.428,3.59776521 8.504,3.70876521 8.579,3.82176521 L8.662,3.94976521 C8.76,4.10576521 8.854,4.26476521 8.942,4.42676521 L8.983,4.50976521 C9.054,4.64676521 9.121,4.78376521 9.185,4.92376521 L9.292,5.17376521 L9.347,5.30476521 C9.398,5.43476521 9.445,5.56476521 9.488,5.69576521 L9.494,5.71276521 C9.537,5.84876521 9.576,5.98476521 9.611,6.12076521 L9.64,6.24876521 C9.662,6.34176521 9.683,6.43576521 9.701,6.52876521 L9.726,6.67776521 L9.761,6.93676521 L9.776,7.08476521 C9.784,7.17476521 9.787,7.26476521 9.79,7.35376521 L9.793,7.47876521 C9.794,7.60776521 9.789,7.73476521 9.779,7.85976521 L11.943,6.60176521 C11.954,6.47676521 11.958,6.34976521 11.958,6.22076521 L11.954,6.09476521" id="Fill-610" fill="#99D821"></path>
                    <path d="M6.458,1.71776521 C8.434,2.85876521 9.974,5.70676521 9.779,7.85976521 L7.918,19.0617652 L4.904,17.3207652 L3.115,4.01176521 C2.93,1.64076521 4.482,0.576765205 6.458,1.71776521" id="Fill-611" fill="#72AF08"></path>
                </g>
                <g id="Group-6" transform="translate(71.000000, 33.000000)">
                    <polyline id="Fill-606" fill="#C55900" points="14.718 17.3827652 14.697 24.8927652 7.373 29.1487652 7.395 21.6377652 14.718 17.3827652"></polyline>
                    <polyline id="Fill-607" fill="#893E00" points="7.395 21.6377652 7.373 29.1487652 0 24.8917652 0.022 17.3817652 7.395 21.6377652"></polyline>
                    <polyline id="Fill-608" fill="#DC6300" points="14.718 17.3827652 7.395 21.6377652 0.022 17.3817652 7.345 13.1257652 14.718 17.3827652"></polyline>
                    <polyline id="Fill-609" fill="#99D821" points="9.779 7.85976521 11.943 6.60176521 10.082 17.8037652 7.918 19.0617652 9.779 7.85976521"></polyline>
                    <path d="M11.954,6.09476521 C11.953,6.00676521 11.949,5.91676521 11.941,5.82676521 L11.926,5.67976521 L11.89,5.41976521 L11.865,5.27076521 C11.848,5.17776521 11.828,5.08476521 11.805,4.99076521 L11.776,4.86176521 C11.741,4.72676521 11.702,4.59076521 11.658,4.45476521 L11.652,4.43676521 C11.609,4.30676521 11.562,4.17676521 11.511,4.04776521 L11.457,3.91576521 L11.379,3.72676521 L11.349,3.66576521 C11.287,3.52576521 11.219,3.38776521 11.148,3.25176521 L11.106,3.16876521 C11.019,3.00676521 10.925,2.84776521 10.828,2.69176521 L10.743,2.56376521 C10.668,2.45076521 10.593,2.33976521 10.514,2.23076521 L10.402,2.08176521 C10.323,1.97876521 10.242,1.87876521 10.159,1.78076521 L10.085,1.69076521 L10.045,1.64776521 L9.856,1.44676521 L9.713,1.30076521 L9.505,1.10976521 L9.365,0.984765205 L9.123,0.796765205 L9,0.702765205 C8.876,0.615765205 8.751,0.533765205 8.623,0.460765205 C8.273,0.257765205 7.935,0.124765205 7.619,0.0557652054 C7.408,0.00976520537 7.205,-0.00723479463 7.015,0.00276520537 C6.825,0.0127652054 6.646,0.0497652054 6.48,0.112765205 L6.242,0.225765205 L4.078,1.48376521 C4.683,1.13176521 5.523,1.17776521 6.458,1.71776521 C6.586,1.79176521 6.712,1.87376521 6.835,1.96076521 L6.958,2.05376521 L7.2,2.24176521 L7.34,2.36776521 L7.548,2.55876521 L7.692,2.70576521 L7.88,2.90576521 L7.994,3.03876521 C8.077,3.13676521 8.159,3.23676521 8.237,3.33976521 L8.349,3.48876521 C8.428,3.59776521 8.504,3.70876521 8.579,3.82176521 L8.662,3.94976521 C8.76,4.10576521 8.854,4.26476521 8.942,4.42676521 L8.983,4.50976521 C9.054,4.64676521 9.121,4.78376521 9.185,4.92376521 L9.292,5.17376521 L9.347,5.30476521 C9.398,5.43476521 9.445,5.56476521 9.488,5.69576521 L9.494,5.71276521 C9.537,5.84876521 9.576,5.98476521 9.611,6.12076521 L9.64,6.24876521 C9.662,6.34176521 9.683,6.43576521 9.701,6.52876521 L9.726,6.67776521 L9.761,6.93676521 L9.776,7.08476521 C9.784,7.17476521 9.787,7.26476521 9.79,7.35376521 L9.793,7.47876521 C9.794,7.60776521 9.789,7.73476521 9.779,7.85976521 L11.943,6.60176521 C11.954,6.47676521 11.958,6.34976521 11.958,6.22076521 L11.954,6.09476521" id="Fill-610" fill="#99D821"></path>
                    <path d="M6.458,1.71776521 C8.434,2.85876521 9.974,5.70676521 9.779,7.85976521 L7.918,19.0617652 L4.904,17.3207652 L3.115,4.01176521 C2.93,1.64076521 4.482,0.576765205 6.458,1.71776521" id="Fill-611" fill="#72AF08"></path>
                </g>
                <g id="Group-6" transform="translate(15.000000, 23.000000)">
                    <polyline id="Fill-606" fill="#C55900" points="14.718 17.3827652 14.697 24.8927652 7.373 29.1487652 7.395 21.6377652 14.718 17.3827652"></polyline>
                    <polyline id="Fill-607" fill="#893E00" points="7.395 21.6377652 7.373 29.1487652 0 24.8917652 0.022 17.3817652 7.395 21.6377652"></polyline>
                    <polyline id="Fill-608" fill="#DC6300" points="14.718 17.3827652 7.395 21.6377652 0.022 17.3817652 7.345 13.1257652 14.718 17.3827652"></polyline>
                    <polyline id="Fill-609" fill="#99D821" points="9.779 7.85976521 11.943 6.60176521 10.082 17.8037652 7.918 19.0617652 9.779 7.85976521"></polyline>
                    <path d="M11.954,6.09476521 C11.953,6.00676521 11.949,5.91676521 11.941,5.82676521 L11.926,5.67976521 L11.89,5.41976521 L11.865,5.27076521 C11.848,5.17776521 11.828,5.08476521 11.805,4.99076521 L11.776,4.86176521 C11.741,4.72676521 11.702,4.59076521 11.658,4.45476521 L11.652,4.43676521 C11.609,4.30676521 11.562,4.17676521 11.511,4.04776521 L11.457,3.91576521 L11.379,3.72676521 L11.349,3.66576521 C11.287,3.52576521 11.219,3.38776521 11.148,3.25176521 L11.106,3.16876521 C11.019,3.00676521 10.925,2.84776521 10.828,2.69176521 L10.743,2.56376521 C10.668,2.45076521 10.593,2.33976521 10.514,2.23076521 L10.402,2.08176521 C10.323,1.97876521 10.242,1.87876521 10.159,1.78076521 L10.085,1.69076521 L10.045,1.64776521 L9.856,1.44676521 L9.713,1.30076521 L9.505,1.10976521 L9.365,0.984765205 L9.123,0.796765205 L9,0.702765205 C8.876,0.615765205 8.751,0.533765205 8.623,0.460765205 C8.273,0.257765205 7.935,0.124765205 7.619,0.0557652054 C7.408,0.00976520537 7.205,-0.00723479463 7.015,0.00276520537 C6.825,0.0127652054 6.646,0.0497652054 6.48,0.112765205 L6.242,0.225765205 L4.078,1.48376521 C4.683,1.13176521 5.523,1.17776521 6.458,1.71776521 C6.586,1.79176521 6.712,1.87376521 6.835,1.96076521 L6.958,2.05376521 L7.2,2.24176521 L7.34,2.36776521 L7.548,2.55876521 L7.692,2.70576521 L7.88,2.90576521 L7.994,3.03876521 C8.077,3.13676521 8.159,3.23676521 8.237,3.33976521 L8.349,3.48876521 C8.428,3.59776521 8.504,3.70876521 8.579,3.82176521 L8.662,3.94976521 C8.76,4.10576521 8.854,4.26476521 8.942,4.42676521 L8.983,4.50976521 C9.054,4.64676521 9.121,4.78376521 9.185,4.92376521 L9.292,5.17376521 L9.347,5.30476521 C9.398,5.43476521 9.445,5.56476521 9.488,5.69576521 L9.494,5.71276521 C9.537,5.84876521 9.576,5.98476521 9.611,6.12076521 L9.64,6.24876521 C9.662,6.34176521 9.683,6.43576521 9.701,6.52876521 L9.726,6.67776521 L9.761,6.93676521 L9.776,7.08476521 C9.784,7.17476521 9.787,7.26476521 9.79,7.35376521 L9.793,7.47876521 C9.794,7.60776521 9.789,7.73476521 9.779,7.85976521 L11.943,6.60176521 C11.954,6.47676521 11.958,6.34976521 11.958,6.22076521 L11.954,6.09476521" id="Fill-610" fill="#99D821"></path>
                    <path d="M6.458,1.71776521 C8.434,2.85876521 9.974,5.70676521 9.779,7.85976521 L7.918,19.0617652 L4.904,17.3207652 L3.115,4.01176521 C2.93,1.64076521 4.482,0.576765205 6.458,1.71776521" id="Fill-611" fill="#72AF08"></path>
                </g>
                <g id="Group-6" transform="translate(33.000000, 34.000000)">
                    <polyline id="Fill-606" fill="#C55900" points="14.718 17.3827652 14.697 24.8927652 7.373 29.1487652 7.395 21.6377652 14.718 17.3827652"></polyline>
                    <polyline id="Fill-607" fill="#893E00" points="7.395 21.6377652 7.373 29.1487652 0 24.8917652 0.022 17.3817652 7.395 21.6377652"></polyline>
                    <polyline id="Fill-608" fill="#DC6300" points="14.718 17.3827652 7.395 21.6377652 0.022 17.3817652 7.345 13.1257652 14.718 17.3827652"></polyline>
                    <polyline id="Fill-609" fill="#99D821" points="9.779 7.85976521 11.943 6.60176521 10.082 17.8037652 7.918 19.0617652 9.779 7.85976521"></polyline>
                    <path d="M11.954,6.09476521 C11.953,6.00676521 11.949,5.91676521 11.941,5.82676521 L11.926,5.67976521 L11.89,5.41976521 L11.865,5.27076521 C11.848,5.17776521 11.828,5.08476521 11.805,4.99076521 L11.776,4.86176521 C11.741,4.72676521 11.702,4.59076521 11.658,4.45476521 L11.652,4.43676521 C11.609,4.30676521 11.562,4.17676521 11.511,4.04776521 L11.457,3.91576521 L11.379,3.72676521 L11.349,3.66576521 C11.287,3.52576521 11.219,3.38776521 11.148,3.25176521 L11.106,3.16876521 C11.019,3.00676521 10.925,2.84776521 10.828,2.69176521 L10.743,2.56376521 C10.668,2.45076521 10.593,2.33976521 10.514,2.23076521 L10.402,2.08176521 C10.323,1.97876521 10.242,1.87876521 10.159,1.78076521 L10.085,1.69076521 L10.045,1.64776521 L9.856,1.44676521 L9.713,1.30076521 L9.505,1.10976521 L9.365,0.984765205 L9.123,0.796765205 L9,0.702765205 C8.876,0.615765205 8.751,0.533765205 8.623,0.460765205 C8.273,0.257765205 7.935,0.124765205 7.619,0.0557652054 C7.408,0.00976520537 7.205,-0.00723479463 7.015,0.00276520537 C6.825,0.0127652054 6.646,0.0497652054 6.48,0.112765205 L6.242,0.225765205 L4.078,1.48376521 C4.683,1.13176521 5.523,1.17776521 6.458,1.71776521 C6.586,1.79176521 6.712,1.87376521 6.835,1.96076521 L6.958,2.05376521 L7.2,2.24176521 L7.34,2.36776521 L7.548,2.55876521 L7.692,2.70576521 L7.88,2.90576521 L7.994,3.03876521 C8.077,3.13676521 8.159,3.23676521 8.237,3.33976521 L8.349,3.48876521 C8.428,3.59776521 8.504,3.70876521 8.579,3.82176521 L8.662,3.94976521 C8.76,4.10576521 8.854,4.26476521 8.942,4.42676521 L8.983,4.50976521 C9.054,4.64676521 9.121,4.78376521 9.185,4.92376521 L9.292,5.17376521 L9.347,5.30476521 C9.398,5.43476521 9.445,5.56476521 9.488,5.69576521 L9.494,5.71276521 C9.537,5.84876521 9.576,5.98476521 9.611,6.12076521 L9.64,6.24876521 C9.662,6.34176521 9.683,6.43576521 9.701,6.52876521 L9.726,6.67776521 L9.761,6.93676521 L9.776,7.08476521 C9.784,7.17476521 9.787,7.26476521 9.79,7.35376521 L9.793,7.47876521 C9.794,7.60776521 9.789,7.73476521 9.779,7.85976521 L11.943,6.60176521 C11.954,6.47676521 11.958,6.34976521 11.958,6.22076521 L11.954,6.09476521" id="Fill-610" fill="#99D821"></path>
                    <path d="M6.458,1.71776521 C8.434,2.85876521 9.974,5.70676521 9.779,7.85976521 L7.918,19.0617652 L4.904,17.3207652 L3.115,4.01176521 C2.93,1.64076521 4.482,0.576765205 6.458,1.71776521" id="Fill-611" fill="#72AF08"></path>
                </g>
                <g id="Group-6" transform="translate(51.000000, 45.000000)">
                    <polyline id="Fill-606" fill="#C55900" points="14.718 17.3827652 14.697 24.8927652 7.373 29.1487652 7.395 21.6377652 14.718 17.3827652"></polyline>
                    <polyline id="Fill-607" fill="#893E00" points="7.395 21.6377652 7.373 29.1487652 0 24.8917652 0.022 17.3817652 7.395 21.6377652"></polyline>
                    <polyline id="Fill-608" fill="#DC6300" points="14.718 17.3827652 7.395 21.6377652 0.022 17.3817652 7.345 13.1257652 14.718 17.3827652"></polyline>
                    <polyline id="Fill-609" fill="#99D821" points="9.779 7.85976521 11.943 6.60176521 10.082 17.8037652 7.918 19.0617652 9.779 7.85976521"></polyline>
                    <path d="M11.954,6.09476521 C11.953,6.00676521 11.949,5.91676521 11.941,5.82676521 L11.926,5.67976521 L11.89,5.41976521 L11.865,5.27076521 C11.848,5.17776521 11.828,5.08476521 11.805,4.99076521 L11.776,4.86176521 C11.741,4.72676521 11.702,4.59076521 11.658,4.45476521 L11.652,4.43676521 C11.609,4.30676521 11.562,4.17676521 11.511,4.04776521 L11.457,3.91576521 L11.379,3.72676521 L11.349,3.66576521 C11.287,3.52576521 11.219,3.38776521 11.148,3.25176521 L11.106,3.16876521 C11.019,3.00676521 10.925,2.84776521 10.828,2.69176521 L10.743,2.56376521 C10.668,2.45076521 10.593,2.33976521 10.514,2.23076521 L10.402,2.08176521 C10.323,1.97876521 10.242,1.87876521 10.159,1.78076521 L10.085,1.69076521 L10.045,1.64776521 L9.856,1.44676521 L9.713,1.30076521 L9.505,1.10976521 L9.365,0.984765205 L9.123,0.796765205 L9,0.702765205 C8.876,0.615765205 8.751,0.533765205 8.623,0.460765205 C8.273,0.257765205 7.935,0.124765205 7.619,0.0557652054 C7.408,0.00976520537 7.205,-0.00723479463 7.015,0.00276520537 C6.825,0.0127652054 6.646,0.0497652054 6.48,0.112765205 L6.242,0.225765205 L4.078,1.48376521 C4.683,1.13176521 5.523,1.17776521 6.458,1.71776521 C6.586,1.79176521 6.712,1.87376521 6.835,1.96076521 L6.958,2.05376521 L7.2,2.24176521 L7.34,2.36776521 L7.548,2.55876521 L7.692,2.70576521 L7.88,2.90576521 L7.994,3.03876521 C8.077,3.13676521 8.159,3.23676521 8.237,3.33976521 L8.349,3.48876521 C8.428,3.59776521 8.504,3.70876521 8.579,3.82176521 L8.662,3.94976521 C8.76,4.10576521 8.854,4.26476521 8.942,4.42676521 L8.983,4.50976521 C9.054,4.64676521 9.121,4.78376521 9.185,4.92376521 L9.292,5.17376521 L9.347,5.30476521 C9.398,5.43476521 9.445,5.56476521 9.488,5.69576521 L9.494,5.71276521 C9.537,5.84876521 9.576,5.98476521 9.611,6.12076521 L9.64,6.24876521 C9.662,6.34176521 9.683,6.43576521 9.701,6.52876521 L9.726,6.67776521 L9.761,6.93676521 L9.776,7.08476521 C9.784,7.17476521 9.787,7.26476521 9.79,7.35376521 L9.793,7.47876521 C9.794,7.60776521 9.789,7.73476521 9.779,7.85976521 L11.943,6.60176521 C11.954,6.47676521 11.958,6.34976521 11.958,6.22076521 L11.954,6.09476521" id="Fill-610" fill="#99D821"></path>
                    <path d="M6.458,1.71776521 C8.434,2.85876521 9.974,5.70676521 9.779,7.85976521 L7.918,19.0617652 L4.904,17.3207652 L3.115,4.01176521 C2.93,1.64076521 4.482,0.576765205 6.458,1.71776521" id="Fill-611" fill="#72AF08"></path>
                </g>
            </g>
        </g>
    </g>
</svg>