<?xml version="1.0" encoding="UTF-8"?>
<svg width="50px" height="66px" viewBox="0 0 50 66" version="1.1" xmlns="http://www.w3.org/2000/svg" xmlns:xlink="http://www.w3.org/1999/xlink">
    <title>Group 2</title>
    <g id="Page-1" stroke="none" stroke-width="1" fill="none" fill-rule="evenodd">
        <g id="28_R2FtZV9jaGlrZW4tMDE" transform="translate(-909.000000, -877.000000)">
            <g id="Group-2" transform="translate(909.026000, 877.002073)">
                <polyline id="Fill-1401" fill="#8FC40C" points="25.19 65.7729268 4.01 53.5449268 27.632 39.8169268 48.812 52.0459268 25.19 65.7729268"></polyline>
                <polyline id="Fill-1402" fill="#8C8580" points="30.04 44.8959268 25.788 42.4239268 25.831 57.7379268 30.083 60.2089268 30.04 44.8959268"></polyline>
                <polyline id="Fill-1403" fill="#A59B93" points="30.04 44.8959268 30.083 60.2089268 34.171 57.8499268 34.127 42.5349268 30.04 44.8959268"></polyline>
                <polyline id="Fill-1404" fill="#8C8580" points="16.874 39.9149268 12.622 37.4439268 12.665 52.7579268 16.917 55.2289268 16.874 39.9149268"></polyline>
                <polyline id="Fill-1405" fill="#A59B93" points="16.874 39.9149268 16.917 55.2289268 21.005 52.8689268 20.961 37.5549268 16.874 39.9149268"></polyline>
                <polyline id="Fill-1406" fill="#D3C9C1" points="25.19 31.4759268 48.812 17.7479268 48.743 42.0809268 25.121 55.8089268 25.19 31.4759268"></polyline>
                <path d="M31.717,35.0979268 L31.688,45.3919268 L35.782,43.0119268 C40.698,40.1549268 44.695,33.2309268 44.711,27.5469268 L31.717,35.0979268" id="Fill-1407" fill="#F9F0E8"></path>
                <polyline id="Fill-1408" fill="#F9F0E8" points="4.01 19.2469268 27.632 5.51892685 48.812 17.7479268 25.19 31.4759268 4.01 19.2469268"></polyline>
                <polyline id="Fill-1409" fill="#A59B93" points="25.19 31.4759268 25.121 55.8089268 3.94 43.5799268 4.01 19.2469268 25.19 31.4759268"></polyline>
                <polyline id="Fill-1410" fill="#B2A59A" points="33.61 16.6259268 31.172 15.2089268 31.151 7.80992685 33.59 9.22692685 33.61 16.6259268"></polyline>
                <polyline id="Fill-1411" fill="#F9F0E8" points="33.59 9.22692685 31.151 7.80992685 44.431 0.141926847 46.871 1.55892685 33.59 9.22692685"></polyline>
                <polyline id="Fill-1412" fill="#D3C9C1" points="46.871 1.55892685 46.913 16.6879268 40.223 12.8089268 33.61 16.6259268 33.59 9.22692685 46.871 1.55892685"></polyline>
                <polyline id="Fill-1413" fill="#D3C9C1" points="16.097 18.8069268 27.435 12.2169268 27.395 26.6359268 16.056 33.2259268 16.097 18.8069268"></polyline>
                <path d="M21.739,24.4159268 C20.931,24.8859268 20.278,24.5089268 20.2809897,23.5739268 C20.284,22.6349268 20.941,21.4969268 21.749,21.0269268 C22.561,20.5559268 23.214,20.9329268 23.2110103,21.8719268 C23.208,22.8069268 22.552,23.9439268 21.739,24.4159268 Z M21.753,19.6759268 C20.299,20.5209268 19.117,22.5659268 19.1119841,24.2539268 C19.107,25.9359268 20.281,26.6129268 21.735,25.7689268 C23.194,24.9209268 24.376,22.8739268 24.3800159,21.1919268 C24.385,19.5049268 23.211,18.8279268 21.753,19.6759268 L21.753,19.6759268 Z" id="Fill-1414" fill="#F9F0E8"></path>
                <path d="M21.749,21.0269268 C20.941,21.4969268 20.284,22.6349268 20.2809897,23.5739268 C20.278,24.5089268 20.931,24.8859268 21.739,24.4159268 C22.552,23.9439268 23.208,22.8069268 23.2110103,21.8719268 C23.214,20.9329268 22.561,20.5559268 21.749,21.0269268" id="Fill-1415" fill="#635C58"></path>
                <polyline id="Fill-1416" fill="#F9F0E8" points="3.549 11.5619268 14.887 4.97192685 27.435 12.2169268 16.097 18.8069268 3.549 11.5619268"></polyline>
                <polyline id="Fill-1417" fill="#B2A59A" points="16.097 18.8069268 16.056 33.2259268 3.508 25.9799268 3.549 11.5619268 16.097 18.8069268"></polyline>
                <polyline id="Fill-1418" fill="#3A3A3A" points="3.206 31.0759268 0.004 29.2159268 -2.22044605e-16 27.7579268 3.202 29.6179268 3.206 31.0759268"></polyline>
                <polyline id="Fill-1419" fill="#636363" points="3.202 29.6179268 -8.8817842e-16 27.7579268 7.916 19.8979268 11.118 21.7599268 3.202 29.6179268"></polyline>
                <polyline id="Fill-1420" fill="#3A3A3A" points="11.118 21.7599268 11.14 29.7749268 3.206 31.0759268 3.202 29.6179268 11.118 21.7599268"></polyline>
                <path d="M22.97,0.379926847 C21.946,-0.215073153 20.527,-0.131073153 18.962,0.772926847 C15.854,2.56692685 13.342,6.91892685 13.3509759,10.4889268 L16.186,12.1369268 C16.177,8.56592685 18.689,4.21492685 21.796,2.42092685 C23.362,1.51692685 24.781,1.43292685 25.804,2.02692685 L22.97,0.379926847" id="Fill-1421" fill="#E84D4D"></path>
                <path d="M21.796,2.42092685 C24.907,0.623926847 27.436,2.06492685 27.4470297,5.63592685 C27.457,9.21092685 24.944,13.5629268 21.833,15.3589268 L21.814,8.88792685 L16.1859759,12.1369268 C16.177,8.56592685 18.689,4.21492685 21.796,2.42092685" id="Fill-1422" fill="#A81E1E"></path>
                <polyline id="Fill-1423" fill="#F9F0E8" points="3.549 11.5619268 16.186 12.1369268 21.776 8.94892685 27.435 12.2169268 16.097 18.8069268 3.549 11.5619268"></polyline>
            </g>
        </g>
    </g>
</svg>