<?xml version="1.0" encoding="UTF-8"?>
<svg width="50px" height="67px" viewBox="0 0 50 67" version="1.1" xmlns="http://www.w3.org/2000/svg" xmlns:xlink="http://www.w3.org/1999/xlink">
    <title>Group</title>
    <g id="Page-1" stroke="none" stroke-width="1" fill="none" fill-rule="evenodd">
        <g id="28_R2FtZV9jaGlrZW4tMDE" transform="translate(-149.000000, -999.000000)">
            <g id="Group" transform="translate(149.288000, 999.886196)">
                <polyline id="Fill-1238" fill="#8FC40C" points="23.622 65.7738043 0 52.0438043 21.181 39.8138043 44.803 53.5438043 23.622 65.7738043"></polyline>
                <polyline id="Fill-1239" fill="#A59B93" points="18.772 44.8938043 23.024 42.4238043 22.981 57.7338043 18.729 60.2038043 18.772 44.8938043"></polyline>
                <polyline id="Fill-1240" fill="#8C8580" points="18.772 44.8938043 18.729 60.2038043 14.642 57.8438043 14.686 42.5338043 18.772 44.8938043"></polyline>
                <polyline id="Fill-1241" fill="#A59B93" points="31.938 39.9138043 36.191 37.4438043 36.147 52.7538043 31.895 55.2238043 31.938 39.9138043"></polyline>
                <polyline id="Fill-1242" fill="#8C8580" points="31.938 39.9138043 31.895 55.2238043 27.808 52.8638043 27.852 37.5538043 31.938 39.9138043"></polyline>
                <polyline id="Fill-1243" fill="#A59B93" points="23.622 31.4738043 -1.24344979e-14 17.7438043 0.069 42.0838043 23.691 55.8038043 23.622 31.4738043"></polyline>
                <path d="M17.096,35.0938043 L4.102,27.5438043 C4.118,33.2338043 8.115,40.1538043 13.03,43.0138043 L17.124,45.3938043 L17.096,35.0938043" id="Fill-1244" fill="#D3C9C1"></path>
                <polyline id="Fill-1245" fill="#F9F0E8" points="44.803 19.2438043 21.181 5.51380427 0 17.7438043 23.622 31.4738043 44.803 19.2438043"></polyline>
                <polyline id="Fill-1246" fill="#D3C9C1" points="23.622 31.4738043 23.691 55.8038043 44.872 43.5738043 44.803 19.2438043 23.622 31.4738043"></polyline>
                <polyline id="Fill-1247" fill="#B2A59A" points="15.202 16.6238043 17.641 15.2038043 17.662 7.80380427 15.223 9.22380427 15.202 16.6238043"></polyline>
                <polyline id="Fill-1248" fill="#F9F0E8" points="15.223 9.22380427 17.662 7.80380427 4.381 0.139804272 1.942 1.55380427 15.223 9.22380427"></polyline>
                <polyline id="Fill-1249" fill="#AFA8A3" points="1.942 1.55380427 1.899 16.6838043 8.589 12.8038043 15.202 16.6238043 15.223 9.22380427 1.942 1.55380427"></polyline>
                <polyline id="Fill-1250" fill="#B2A59A" points="32.715 18.8038043 21.376 12.2138043 21.417 26.6338043 32.756 33.2238043 32.715 18.8038043"></polyline>
                <path d="M27.073,24.4138043 C26.261,23.9438043 25.604,22.8038043 25.6019897,21.8738043 C25.599,20.9338043 26.251,20.5538043 27.064,21.0238043 C27.872,21.4938043 28.528,22.6338043 28.5310103,23.5738043 C28.534,24.5038043 27.881,24.8838043 27.073,24.4138043 Z M27.06,19.6738043 C25.602,18.8238043 24.428,19.5038043 24.4319898,21.1938043 C24.437,22.8738043 25.619,24.9238043 27.077,25.7638043 C28.531,26.6138043 29.705,25.9338043 29.7010102,24.2538043 C29.696,22.5638043 28.514,20.5238043 27.06,19.6738043 L27.06,19.6738043 Z" id="Fill-1251" fill="#F9F0E8"></path>
                <path d="M27.064,21.0238043 C26.251,20.5538043 25.599,20.9338043 25.6019897,21.8738043 C25.604,22.8038043 26.261,23.9438043 27.073,24.4138043 C27.881,24.8838043 28.534,24.5038043 28.5310103,23.5738043 C28.528,22.6338043 27.872,21.4938043 27.064,21.0238043" id="Fill-1252" fill="#635C58"></path>
                <polyline id="Fill-1253" fill="#F9F0E8" points="45.264 11.5638043 33.925 4.97380427 21.376 12.2138043 32.715 18.8038043 45.264 11.5638043"></polyline>
                <polyline id="Fill-1254" fill="#D8D3D0" points="32.715 18.8038043 32.756 33.2238043 45.305 25.9838043 45.264 11.5638043 32.715 18.8038043"></polyline>
                <polyline id="Fill-1255" fill="#3A3A3A" points="45.607 31.0738043 48.809 29.2138043 48.812 27.7538043 45.611 29.6138043 45.607 31.0738043"></polyline>
                <polyline id="Fill-1256" fill="#636363" points="45.611 29.6138043 48.812 27.7538043 40.896 19.8938043 37.694 21.7538043 45.611 29.6138043"></polyline>
                <polyline id="Fill-1257" fill="#3A3A3A" points="37.694 21.7538043 37.672 29.7738043 45.607 31.0738043 45.611 29.6138043 37.694 21.7538043"></polyline>
                <path d="M29.851,0.773804272 C28.285,-0.132195728 26.866,-0.216195728 25.842,0.383804272 L23.007,2.02380427 C24.032,1.43380427 25.45,1.51380427 27.017,2.42380427 C30.124,4.21380427 32.636,8.56380427 32.626,12.1338043 L35.4610297,10.4938043 C35.471,6.91380427 32.958,2.56380427 29.851,0.773804272" id="Fill-1258" fill="#E84D4D"></path>
                <path d="M27.017,2.42380427 C23.905,0.623804272 21.376,2.06380427 21.3659702,5.63380427 C21.356,9.21380427 23.868,13.5638043 26.98,15.3538043 L26.998,8.88380427 L32.6260298,12.1338043 C32.636,8.56380427 30.124,4.21380427 27.017,2.42380427" id="Fill-1259" fill="#A81E1E"></path>
                <polyline id="Fill-1260" fill="#F9F0E8" points="45.264 11.5638043 32.626 12.1338043 27.036 8.94380427 21.376 12.2138043 32.715 18.8038043 45.264 11.5638043"></polyline>
            </g>
        </g>
    </g>
</svg>