<?xml version="1.0" encoding="UTF-8"?>
<svg width="118px" height="95px" viewBox="0 0 118 95" version="1.1" xmlns="http://www.w3.org/2000/svg" xmlns:xlink="http://www.w3.org/1999/xlink">
    <title>Group 7</title>
    <defs>
        <path d="M0.869,0.151 L3.032,1.407 C4.39,2.197 5.233,3.876 5.24,6.263 L3.077,5.006 C3.071,2.619 2.228,0.941 0.869,0.151" id="path-1"></path>
    </defs>
    <g id="Page-1" stroke="none" stroke-width="1" fill="none" fill-rule="evenodd">
        <g id="28_R2FtZV9jaGlrZW4tMDE" transform="translate(-891.000000, -1042.000000)">
            <g id="Group-7" transform="translate(891.000000, 1042.000000)">
                <g id="Group" transform="translate(0.000000, 21.000000)">
                    <polyline id="Fill-750" fill="#85BC0C" points="58.65 0.13 58.635 5.16 -1.42108547e-14 39.23 0.014 34.2 58.65 0.13"></polyline>
                    <polyline id="Fill-1042" fill="#85BC0C" points="117.833 34.08 117.819 39.11 59.182 73.18 59.197 68.15 117.833 34.08"></polyline>
                    <polyline id="Fill-1043" fill="#5C8308" points="59.197 68.15 59.182 73.18 0.163 39.11 0.177 34.08 59.197 68.15"></polyline>
                    <polyline id="Fill-1044" fill="#99D20D" points="117.833 34.08 59.197 68.15 0.177 34.08 58.813 4.26325641e-14 117.833 34.08"></polyline>
                </g>
                <g id="Group-6" transform="translate(13.000000, 0.000000)">
                    <polyline id="Fill-1045" fill="#74A60D" points="37.916 73.852 7.10542736e-15 52.27 41.098 28.386 79.014 49.967 37.916 73.852"></polyline>
                    <polyline id="Fill-1046" fill="#514943" points="53.737 19.913 24.541 2.946 42.753 10.516 71.95 27.482 53.737 19.913"></polyline>
                    <polyline id="Fill-1047" fill="#19737C" points="35.685 69.653 6.489 52.686 6.429 31.488 35.625 48.455 35.685 69.653"></polyline>
                    <polyline id="Fill-1048" fill="#5E544D" points="35.625 48.455 6.429 31.488 24.541 2.946 53.737 19.913 35.625 48.455"></polyline>
                    <polyline id="Fill-1049" fill="#456B6A" points="62.586 56.112 60.423 54.855 60.39 42.859 62.552 44.116 62.586 56.112"></polyline>
                    <g id="Group-1052" transform="translate(57.312000, 37.853000)">
                        <mask id="mask-2" fill="white">
                            <use xlink:href="#path-1"></use>
                        </mask>
                        <g id="Clip-1051"></g>
                        <path d="M3.032,1.407 L0.869,0.15 C2.228,0.94 3.071,2.619 3.078,5.006 L5.24,6.263 C5.233,3.876 4.391,2.197 3.032,1.407" id="Fill-1050" fill="#456B6A" mask="url(#mask-2)"></path>
                    </g>
                    <polyline id="Fill-1053" fill="#818181" points="55.297 21.003 53.134 19.747 71.347 27.316 73.51 28.573 55.297 21.003"></polyline>
                    <polyline id="Fill-1054" fill="#19737C" points="37.245 70.743 35.082 69.486 35.022 48.289 37.184 49.544 37.245 70.743"></polyline>
                    <polyline id="Fill-1055" fill="#969696" points="37.184 49.544 35.022 48.289 53.134 19.747 55.297 21.003 37.184 49.544"></polyline>
                    <path d="M55.297,21.003 L73.51,28.573 L73.57,49.771 L62.586,56.112 L62.552,44.116 C62.538,39.312 59.138,37.375 54.96,39.787 C50.78,42.2 47.402,48.051 47.415,52.855 L47.449,64.851 L37.245,70.743 L37.184,49.544 L55.297,21.003" id="Fill-1056" fill="#3FA2B2"></path>
                    <polyline id="Fill-1057" fill="#2D8A8E" points="73.51 33.366 55.925 26.355 37.184 56.555 36.885 48.394 54.887 20.391 73.51 28.573 73.51 33.366"></polyline>
                    <polyline id="Fill-1058" fill="#146266" points="6.454 39.03 37.184 56.555 37.186 50.06 6.454 34.174 6.454 39.03"></polyline>
                    <polyline id="Fill-1059" fill="#517C7C" points="54.799 18.223 23.44 -5.68434189e-14 45.467 9.155 76.826 27.379 54.799 18.223"></polyline>
                    <polyline id="Fill-1060" fill="#456B6A" points="34.78 54.332 3.421 36.108 1.589 34.488 32.948 52.711 34.78 54.332"></polyline>
                    <polyline id="Fill-1061" fill="#6B9699" points="32.948 52.711 1.589 34.488 23.44 0 54.799 18.223 32.948 52.711"></polyline>
                    <polyline id="Fill-1062" fill="#456B6A" points="54.799 18.223 76.826 27.379 74.989 31.148 54.812 22.762 34.78 54.332 32.948 52.711 54.799 18.223"></polyline>
                    <polyline id="Fill-1063" fill="#517C7C" points="45.16 12.621 21.82 46.245 23.44 47.186 46.374 13.327 45.16 12.621"></polyline>
                    <polyline id="Fill-1064" fill="#517C7C" points="33.149 5.628 9.809 39.252 11.43 40.194 34.363 6.334 33.149 5.628"></polyline>
                    <path d="M56.102,33.958 C55.851,35.017 55.193,35.768 54.633,35.635 C54.073,35.501 53.823,34.535 54.075,33.477 C54.326,32.418 54.984,31.667 55.544,31.8 C56.104,31.933 56.354,32.899 56.102,33.958" id="Fill-1065" fill="#456B6A"></path>
                    <path d="M67.102,69.516 L47.113,69.255 L48.257,73.334 L48.37,73.418 C48.648,74.464 49.476,75.472 50.872,76.278 C54.345,78.284 59.952,78.284 63.399,76.28 C64.823,75.453 65.647,74.413 65.891,73.336 L65.899,73.334 L67.102,69.516" id="Fill-1066" fill="#3B5C5B"></path>
                    <path d="M64.181,64.905 C68.106,67.171 68.126,70.842 64.227,73.109 C60.33,75.373 53.994,75.373 50.068,73.107 C46.146,70.842 46.125,67.171 50.022,64.908 C53.922,62.641 60.259,62.641 64.181,64.905" id="Fill-1067" fill="#6B9699"></path>
                    <path d="M63.154,65.502 C66.507,67.439 66.525,70.575 63.193,72.511 C59.864,74.446 54.45,74.446 51.096,72.509 C47.745,70.575 47.727,67.439 51.056,65.504 C54.388,63.568 59.803,63.568 63.154,65.502" id="Fill-1068" fill="#7FA5A3"></path>
                    <path d="M51.612,67.884 C54.639,66.125 59.557,66.125 62.601,67.882 C64.133,68.766 64.897,69.925 64.895,71.084 C66.346,69.251 65.77,67.013 63.154,65.502 C59.803,63.568 54.388,63.568 51.056,65.504 C48.473,67.005 47.914,69.229 49.355,71.054 C49.354,69.907 50.105,68.759 51.612,67.884" id="Fill-1069" fill="#3B5C5B"></path>
                </g>
            </g>
        </g>
    </g>
</svg>