<?xml version="1.0" encoding="UTF-8"?>
<svg width="119px" height="95px" viewBox="0 0 119 95" version="1.1" xmlns="http://www.w3.org/2000/svg" xmlns:xlink="http://www.w3.org/1999/xlink">
    <title>Group 15</title>
    <defs>
        <path d="M0.869,0.151 L3.032,1.407 C4.39,2.197 5.233,3.876 5.24,6.263 L3.077,5.006 C3.071,2.619 2.228,0.941 0.869,0.151" id="path-1"></path>
    </defs>
    <g id="Page-1" stroke="none" stroke-width="1" fill="none" fill-rule="evenodd">
        <g id="28_R2FtZV9jaGlrZW4tMDE" transform="translate(-111.000000, -654.000000)">
            <g id="Group-15" transform="translate(111.955000, 654.147000)">
                <polyline id="Fill-801" fill="#85BC0C" points="117.662 54.81 117.648 59.838 59.02 93.909 59.034 88.881 117.662 54.81"></polyline>
                <polyline id="Fill-802" fill="#5C8308" points="59.034 88.881 59.02 93.909 3.55271368e-15 59.834 0.014 54.806 59.034 88.881"></polyline>
                <polyline id="Fill-803" fill="#99D20D" points="117.662 54.81 59.034 88.881 0.014 54.806 58.642 20.735 117.662 54.81"></polyline>
                <polyline id="Fill-1045" fill="#74A60D" points="52.649 73.852 14.733 52.27 55.831 28.386 93.747 49.967 52.649 73.852"></polyline>
                <polyline id="Fill-1046" fill="#514943" points="68.47 19.913 39.274 2.946 57.486 10.516 86.683 27.482 68.47 19.913"></polyline>
                <polyline id="Fill-1047" fill="#19737C" points="50.418 69.653 21.222 52.686 21.162 31.488 50.358 48.455 50.418 69.653"></polyline>
                <polyline id="Fill-1048" fill="#5E544D" points="50.358 48.455 21.162 31.488 39.274 2.946 68.47 19.913 50.358 48.455"></polyline>
                <polyline id="Fill-1049" fill="#456B6A" points="77.319 56.112 75.156 54.855 75.123 42.859 77.285 44.116 77.319 56.112"></polyline>
                <g id="Group-1052" transform="translate(72.045000, 37.853000)">
                    <mask id="mask-2" fill="white">
                        <use xlink:href="#path-1"></use>
                    </mask>
                    <g id="Clip-1051"></g>
                    <path d="M3.032,1.407 L0.869,0.15 C2.228,0.94 3.071,2.619 3.078,5.006 L5.24,6.263 C5.233,3.876 4.391,2.197 3.032,1.407" id="Fill-1050" fill="#456B6A" mask="url(#mask-2)"></path>
                </g>
                <polyline id="Fill-1053" fill="#818181" points="70.03 21.003 67.867 19.747 86.08 27.316 88.243 28.573 70.03 21.003"></polyline>
                <polyline id="Fill-1054" fill="#19737C" points="51.978 70.743 49.815 69.486 49.755 48.289 51.917 49.544 51.978 70.743"></polyline>
                <polyline id="Fill-1055" fill="#969696" points="51.917 49.544 49.755 48.289 67.867 19.747 70.03 21.003 51.917 49.544"></polyline>
                <path d="M70.03,21.003 L88.243,28.573 L88.303,49.771 L77.319,56.112 L77.285,44.116 C77.271,39.312 73.871,37.375 69.693,39.787 C65.513,42.2 62.135,48.051 62.148,52.855 L62.182,64.851 L51.978,70.743 L51.917,49.544 L70.03,21.003" id="Fill-1056" fill="#3FA2B2"></path>
                <polyline id="Fill-1057" fill="#2D8A8E" points="88.243 33.366 70.658 26.355 51.917 56.555 51.618 48.394 69.62 20.391 88.243 28.573 88.243 33.366"></polyline>
                <polyline id="Fill-1058" fill="#146266" points="21.187 39.03 51.917 56.555 51.919 50.06 21.187 34.174 21.187 39.03"></polyline>
                <polyline id="Fill-1059" fill="#517C7C" points="69.532 18.223 38.173 -5.68434189e-14 60.2 9.155 91.559 27.379 69.532 18.223"></polyline>
                <polyline id="Fill-1060" fill="#456B6A" points="49.513 54.332 18.154 36.108 16.322 34.488 47.681 52.711 49.513 54.332"></polyline>
                <polyline id="Fill-1061" fill="#6B9699" points="47.681 52.711 16.322 34.488 38.173 0 69.532 18.223 47.681 52.711"></polyline>
                <polyline id="Fill-1062" fill="#456B6A" points="69.532 18.223 91.559 27.379 89.722 31.148 69.545 22.762 49.513 54.332 47.681 52.711 69.532 18.223"></polyline>
                <polyline id="Fill-1063" fill="#517C7C" points="59.893 12.621 36.553 46.245 38.173 47.186 61.107 13.327 59.893 12.621"></polyline>
                <polyline id="Fill-1064" fill="#517C7C" points="47.882 5.628 24.542 39.252 26.163 40.194 49.096 6.334 47.882 5.628"></polyline>
                <path d="M70.835,33.958 C70.584,35.017 69.926,35.768 69.366,35.635 C68.806,35.501 68.556,34.535 68.808,33.477 C69.059,32.418 69.717,31.667 70.277,31.8 C70.837,31.933 71.087,32.899 70.835,33.958" id="Fill-1065" fill="#456B6A"></path>
                <path d="M81.835,69.516 L61.846,69.255 L62.99,73.334 L63.103,73.418 C63.381,74.464 64.209,75.472 65.605,76.278 C69.078,78.284 74.685,78.284 78.132,76.28 C79.556,75.453 80.38,74.413 80.624,73.336 L80.632,73.334 L81.835,69.516" id="Fill-1066" fill="#3B5C5B"></path>
                <path d="M78.914,64.905 C82.839,67.171 82.859,70.842 78.96,73.109 C75.063,75.373 68.727,75.373 64.801,73.107 C60.879,70.842 60.858,67.171 64.755,64.908 C68.655,62.641 74.992,62.641 78.914,64.905" id="Fill-1067" fill="#6B9699"></path>
                <path d="M77.887,65.502 C81.24,67.439 81.258,70.575 77.926,72.511 C74.597,74.446 69.183,74.446 65.829,72.509 C62.478,70.575 62.46,67.439 65.789,65.504 C69.121,63.568 74.536,63.568 77.887,65.502" id="Fill-1068" fill="#7FA5A3"></path>
                <path d="M66.345,67.884 C69.372,66.125 74.29,66.125 77.334,67.882 C78.866,68.766 79.63,69.925 79.628,71.084 C81.079,69.251 80.503,67.013 77.887,65.502 C74.536,63.568 69.121,63.568 65.789,65.504 C63.206,67.005 62.647,69.229 64.088,71.054 C64.087,69.907 64.838,68.759 66.345,67.884" id="Fill-1069" fill="#3B5C5B"></path>
            </g>
        </g>
    </g>
</svg>