<?xml version="1.0" encoding="UTF-8"?>
<svg width="111px" height="136px" viewBox="0 0 111 136" version="1.1" xmlns="http://www.w3.org/2000/svg" xmlns:xlink="http://www.w3.org/1999/xlink">
    <title>Group 6</title>
    <g id="Page-1" stroke="none" stroke-width="1" fill="none" fill-rule="evenodd">
        <g id="28_R2FtZV9jaGlrZW4tMDE" transform="translate(-187.000000, -1159.000000)">
            <g id="Group-6" transform="translate(187.493000, 1159.020000)">
                <polyline id="Fill-1531" fill="#51504E" points="33.638 134.75 0 115.2 46.805 88.28 53.833 92.37 78.451 76.7 99.503 88.35 75.494 103.04 81.477 106.6 33.638 134.75"></polyline>
                <polyline id="Fill-1532" fill="#C5C5C5" points="33.638 107.18 40.752 103.04 40.68 128.67 33.565 132.8 33.638 107.18"></polyline>
                <polyline id="Fill-1533" fill="#888888" points="33.638 107.18 33.565 132.8 26.726 128.85 26.799 103.23 33.638 107.18"></polyline>
                <polyline id="Fill-1534" fill="#C5C5C5" points="70.207 85.31 77.322 81.18 77.249 106.8 70.134 110.94 70.207 85.31"></polyline>
                <polyline id="Fill-1535" fill="#888888" points="70.207 85.31 70.134 110.94 63.295 106.99 63.368 81.36 70.207 85.31"></polyline>
                <polyline id="Fill-1536" fill="#C5C5C5" points="9.565 93.38 16.679 89.24 16.607 114.87 9.492 119 9.565 93.38"></polyline>
                <polyline id="Fill-1537" fill="#888888" points="9.565 93.38 9.492 119 2.653 115.05 2.726 89.43 9.565 93.38"></polyline>
                <polyline id="Fill-1538" fill="#888888" points="96.988 39.57 84.601 32.37 84.565 20 96.953 27.19 96.988 39.57"></polyline>
                <polyline id="Fill-1539" fill="#E2E2E2" points="96.953 27.19 84.565 20 97.418 12.57 109.805 19.77 96.953 27.19"></polyline>
                <polyline id="Fill-1540" fill="#BABABA" points="109.805 19.77 109.84 32.15 96.988 39.57 96.953 27.19 109.805 19.77"></polyline>
                <polyline id="Fill-1541" fill="#888888" points="76.63 64.22 47.342 47.2 47.251 14.93 76.539 31.95 76.63 64.22"></polyline>
                <polyline id="Fill-1542" fill="#E2E2E2" points="76.539 31.95 47.251 14.93 70.215 1.67 99.503 18.69 76.539 31.95"></polyline>
                <polyline id="Fill-1543" fill="#C5C5C5" points="99.503 18.69 99.595 50.96 76.63 64.22 76.539 31.95 99.503 18.69"></polyline>
                <polyline id="Fill-1544" fill="#CCCCCC" points="64.597 1.79 66.655 0.6 71.805 13.75 69.747 14.95 64.597 1.79"></polyline>
                <polyline id="Fill-1545" fill="#CCCCCC" points="63.563 1.19 65.621 -1.42108547e-14 66.655 0.6 64.597 1.79 63.563 1.19"></polyline>
                <polyline id="Fill-1546" fill="#A5A5A5" points="64.597 1.79 69.747 14.95 58.351 8.37 63.563 1.19 64.597 1.79"></polyline>
                <polyline id="Fill-1547" fill="#CCCCCC" points="80.962 11.87 83.02 10.68 88.169 23.83 86.111 25.03 80.962 11.87"></polyline>
                <polyline id="Fill-1548" fill="#CCCCCC" points="79.927 11.28 81.985 10.08 83.02 10.68 80.962 11.87 79.927 11.28"></polyline>
                <polyline id="Fill-1549" fill="#A5A5A5" points="80.962 11.87 86.111 25.03 74.715 18.45 79.927 11.28 80.962 11.87"></polyline>
                <polyline id="Fill-1550" fill="#888888" points="33.622 115.6 2.768 97.67 2.653 57.34 33.507 75.27 33.622 115.6"></polyline>
                <polyline id="Fill-1551" fill="#E2E2E2" points="33.507 75.27 2.653 57.34 46.358 32.11 77.212 50.04 33.507 75.27"></polyline>
                <polyline id="Fill-1552" fill="#C5C5C5" points="77.212 50.04 77.327 90.37 33.622 115.6 33.507 75.27 77.212 50.04"></polyline>
                <polyline id="Fill-1553" fill="#888888" points="22.004 68.64 17.254 65.88 17.226 56.08 21.976 58.84 22.004 68.64"></polyline>
                <polyline id="Fill-1554" fill="#888888" points="16.461 62.02 11.711 59.26 11.686 50.29 16.436 53.06 16.461 62.02"></polyline>
                <polyline id="Fill-1555" fill="#E2E2E2" points="16.436 53.06 11.686 50.29 26.394 41.8 31.144 44.56 16.436 53.06"></polyline>
                <polyline id="Fill-1556" fill="#C5C5C5" points="31.144 44.56 31.197 63.33 22.004 68.64 21.976 58.84 16.461 62.02 16.436 53.06 31.144 44.56"></polyline>
            </g>
        </g>
    </g>
</svg>