<?xml version="1.0" encoding="UTF-8"?>
<svg width="110px" height="121px" viewBox="0 0 110 121" version="1.1" xmlns="http://www.w3.org/2000/svg" xmlns:xlink="http://www.w3.org/1999/xlink">
    <title>Group 7</title>
    <defs>
        <polyline id="path-1" points="0.898 49.49 30.186 32.47 30.278 0.2 0.99 17.22 0.898 49.49"></polyline>
    </defs>
    <g id="Page-1" stroke="none" stroke-width="1" fill="none" fill-rule="evenodd">
        <g id="28_R2FtZV9jaGlrZW4tMDE" transform="translate(-321.000000, -1177.000000)">
            <g id="Group-7" transform="translate(321.443000, 1177.850000)">
                <polyline id="Fill-1130" fill="#51504E" points="67.114 119.09 54.677 111.91 47.649 115.99 2.13162821e-14 88.48 33.637 68.93 46.076 76.12 53.104 72.03 100.753 99.54 67.114 119.09"></polyline>
                <polyline id="Fill-1131" fill="#C5C5C5" points="46.938 88.35 39.823 84.21 39.896 109.84 47.011 113.97 46.938 88.35"></polyline>
                <polyline id="Fill-1132" fill="#888888" points="46.938 88.35 47.011 113.97 53.85 110.02 53.777 84.4 46.938 88.35"></polyline>
                <polyline id="Fill-1133" fill="#C5C5C5" points="10.369 66.48 3.254 62.35 3.327 87.97 10.442 92.11 10.369 66.48"></polyline>
                <polyline id="Fill-1134" fill="#888888" points="10.369 66.48 10.442 92.11 17.28 88.16 17.208 62.53 10.369 66.48"></polyline>
                <polyline id="Fill-1135" fill="#C5C5C5" points="69.006 75.97 61.891 71.83 61.964 97.46 69.079 101.59 69.006 75.97"></polyline>
                <polyline id="Fill-1136" fill="#888888" points="69.006 75.97 69.079 101.59 75.918 97.64 75.845 72.02 69.006 75.97"></polyline>
                <polyline id="Fill-1137" fill="#888888" points="46.954 96.77 77.808 78.84 77.923 38.51 47.069 56.44 46.954 96.77"></polyline>
                <polyline id="Fill-1138" fill="#E2E2E2" points="47.069 56.44 77.923 38.51 34.218 13.28 3.364 31.21 47.069 56.44"></polyline>
                <polyline id="Fill-1139" fill="#C5C5C5" points="3.364 31.21 3.249 71.54 46.954 96.77 47.069 56.44 3.364 31.21"></polyline>
                <polyline id="Fill-1140" fill="#888888" points="24.668 29.55 30.351 26.25 30.403 8.26 24.719 11.57 24.668 29.55"></polyline>
                <polyline id="Fill-1141" fill="#E2E2E2" points="24.719 11.57 30.403 8.26 16.096 8.70414851e-14 10.413 3.31 24.719 11.57"></polyline>
                <polyline id="Fill-1142" fill="#C5C5C5" points="10.413 3.31 10.387 12.5 15.933 15.71 15.907 24.49 24.668 29.55 24.719 11.57 10.413 3.31"></polyline>
                <polyline id="Fill-1143" fill="#888888" points="74.455 81.64 103.743 64.62 103.835 32.35 74.547 49.37 74.455 81.64"></polyline>
                <g id="Group-1147" transform="translate(73.557000, 32.150000)">
                    <mask id="mask-2" fill="white">
                        <use xlink:href="#path-1"></use>
                    </mask>
                    <g id="Clip-1145"></g>
                    <path d="M23.555,9.22 C22.404,9.89 21.457,11.52 21.4529873,12.86 C21.449,14.19 22.39,14.73 23.541,14.06 C24.7,13.39 25.639,11.76 25.6430128,10.43 C25.647,9.09 24.714,8.55 23.555,9.22" id="Fill-1144" fill="#5B5B5B" mask="url(#mask-2)"></path>
                    <path d="M6.373,19.21 C5.214,19.88 4.275,21.51 4.27098719,22.85 C4.267,24.18 5.2,24.72 6.359,24.04 C7.51,23.38 8.457,21.74 8.46100716,20.41 C8.464,19.07 7.524,18.54 6.373,19.21" id="Fill-1146" fill="#5B5B5B" mask="url(#mask-2)"></path>
                </g>
                <polyline id="Fill-1148" fill="#E2E2E2" points="74.547 49.37 103.835 32.35 80.871 19.09 51.582 36.11 74.547 49.37"></polyline>
                <polyline id="Fill-1149" fill="#C5C5C5" points="51.582 36.11 51.491 68.38 74.455 81.64 74.547 49.37 51.582 36.11"></polyline>
                <polyline id="Fill-1150" fill="#CCCCCC" points="86.489 19.22 84.43 18.02 79.281 31.18 81.339 32.37 86.489 19.22"></polyline>
                <polyline id="Fill-1151" fill="#CCCCCC" points="87.523 18.62 85.465 17.42 84.43 18.02 86.489 19.22 87.523 18.62"></polyline>
                <polyline id="Fill-1152" fill="#A5A5A5" points="86.489 19.22 81.339 32.37 92.735 25.79 87.523 18.62 86.489 19.22"></polyline>
                <polyline id="Fill-1153" fill="#CCCCCC" points="70.124 29.3 68.066 28.1 62.916 41.26 64.974 42.45 70.124 29.3"></polyline>
                <polyline id="Fill-1154" fill="#CCCCCC" points="71.158 28.7 69.1 27.51 68.066 28.1 70.124 29.3 71.158 28.7"></polyline>
                <polyline id="Fill-1155" fill="#A5A5A5" points="70.124 29.3 64.974 42.45 76.37 35.87 71.158 28.7 70.124 29.3"></polyline>
                <polyline id="Fill-1156" fill="#888888" points="95.737 77.72 108.124 70.53 108.159 58.15 95.772 65.35 95.737 77.72"></polyline>
                <polyline id="Fill-1157" fill="#E2E2E2" points="95.772 65.35 108.159 58.15 95.307 50.73 82.92 57.93 95.772 65.35"></polyline>
                <polyline id="Fill-1158" fill="#C5C5C5" points="82.92 57.93 82.885 70.3 95.737 77.72 95.772 65.35 82.92 57.93"></polyline>
                <polyline id="Fill-1159" fill="#5B5B5B" points="95.772 65.35 102.528 70.13 108.159 58.15 95.772 65.35"></polyline>
                <polyline id="Fill-1160" fill="#5B5B5B" points="103.662 66.57 103.662 73.11 101.365 74.44 101.365 67.91 103.662 66.57"></polyline>
            </g>
        </g>
    </g>
</svg>