<?xml version="1.0" encoding="UTF-8"?>
<svg width="111px" height="136px" viewBox="0 0 111 136" version="1.1" xmlns="http://www.w3.org/2000/svg" xmlns:xlink="http://www.w3.org/1999/xlink">
    <title>Group 8</title>
    <g id="Page-1" stroke="none" stroke-width="1" fill="none" fill-rule="evenodd">
        <g id="28_R2FtZV9jaGlrZW4tMDE" transform="translate(-445.000000, -1159.000000)">
            <g id="Group-8" transform="translate(445.098000, 1159.020000)">
                <polyline id="Fill-1557" fill="#51504E" points="76.202 134.75 28.363 106.6 34.346 103.04 10.336 88.35 31.388 76.7 56.007 92.37 63.035 88.28 109.84 115.2 76.202 134.75"></polyline>
                <polyline id="Fill-1558" fill="#C5C5C5" points="76.202 107.18 69.087 103.04 69.16 128.67 76.274 132.8 76.202 107.18"></polyline>
                <polyline id="Fill-1559" fill="#888888" points="76.202 107.18 76.274 132.8 83.113 128.85 83.041 103.23 76.202 107.18"></polyline>
                <polyline id="Fill-1560" fill="#C5C5C5" points="39.632 85.31 32.518 81.18 32.591 106.8 39.705 110.94 39.632 85.31"></polyline>
                <polyline id="Fill-1561" fill="#888888" points="39.632 85.31 39.705 110.94 46.544 106.99 46.471 81.36 39.632 85.31"></polyline>
                <polyline id="Fill-1562" fill="#C5C5C5" points="100.275 93.38 93.16 89.24 93.233 114.87 100.348 119 100.275 93.38"></polyline>
                <polyline id="Fill-1563" fill="#888888" points="100.275 93.38 100.348 119 107.187 115.05 107.114 89.43 100.275 93.38"></polyline>
                <polyline id="Fill-1564" fill="#888888" points="12.852 39.57 25.239 32.37 25.274 20 12.887 27.19 12.852 39.57"></polyline>
                <polyline id="Fill-1565" fill="#E2E2E2" points="12.887 27.19 25.274 20 12.422 12.57 0.035 19.77 12.887 27.19"></polyline>
                <polyline id="Fill-1566" fill="#BABABA" points="0.035 19.77 2.84217094e-14 32.15 12.852 39.57 12.887 27.19 0.035 19.77"></polyline>
                <polyline id="Fill-1567" fill="#888888" points="33.209 64.22 62.498 47.2 62.589 14.93 33.3 31.95 33.209 64.22"></polyline>
                <polyline id="Fill-1568" fill="#E2E2E2" points="33.3 31.95 62.589 14.93 39.625 1.67 10.336 18.69 33.3 31.95"></polyline>
                <polyline id="Fill-1569" fill="#C5C5C5" points="10.336 18.69 10.245 50.96 33.209 64.22 33.3 31.95 10.336 18.69"></polyline>
                <polyline id="Fill-1570" fill="#CCCCCC" points="45.242 1.79 43.184 0.6 38.035 13.75 40.093 14.95 45.242 1.79"></polyline>
                <polyline id="Fill-1571" fill="#CCCCCC" points="46.277 1.19 44.219 -1.42108547e-14 43.184 0.6 45.242 1.79 46.277 1.19"></polyline>
                <polyline id="Fill-1572" fill="#A5A5A5" points="45.242 1.79 40.093 14.95 51.489 8.37 46.277 1.19 45.242 1.79"></polyline>
                <polyline id="Fill-1573" fill="#CCCCCC" points="28.878 11.87 26.82 10.68 21.67 23.83 23.728 25.03 28.878 11.87"></polyline>
                <polyline id="Fill-1574" fill="#CCCCCC" points="29.913 11.28 27.855 10.08 26.82 10.68 28.878 11.87 29.913 11.28"></polyline>
                <polyline id="Fill-1575" fill="#A5A5A5" points="28.878 11.87 23.728 25.03 35.125 18.45 29.913 11.28 28.878 11.87"></polyline>
                <polyline id="Fill-1576" fill="#888888" points="76.218 115.6 107.072 97.67 107.187 57.34 76.332 75.27 76.218 115.6"></polyline>
                <polyline id="Fill-1577" fill="#E2E2E2" points="76.332 75.27 107.187 57.34 63.481 32.11 32.627 50.04 76.332 75.27"></polyline>
                <polyline id="Fill-1578" fill="#C5C5C5" points="32.627 50.04 32.513 90.37 76.218 115.6 76.332 75.27 32.627 50.04"></polyline>
                <polyline id="Fill-1579" fill="#888888" points="87.836 68.64 92.586 65.88 92.613 56.08 87.863 58.84 87.836 68.64"></polyline>
                <polyline id="Fill-1580" fill="#888888" points="93.378 62.02 98.128 59.26 98.153 50.29 93.403 53.06 93.378 62.02"></polyline>
                <polyline id="Fill-1581" fill="#E2E2E2" points="93.403 53.06 98.153 50.29 83.445 41.8 78.695 44.56 93.403 53.06"></polyline>
                <polyline id="Fill-1582" fill="#C5C5C5" points="78.695 44.56 78.643 63.33 87.836 68.64 87.863 58.84 93.378 62.02 93.403 53.06 78.695 44.56"></polyline>
            </g>
        </g>
    </g>
</svg>