<?xml version="1.0" encoding="UTF-8"?>
<svg width="118px" height="111px" viewBox="0 0 118 111" version="1.1" xmlns="http://www.w3.org/2000/svg" xmlns:xlink="http://www.w3.org/1999/xlink">
    <title>Group 13</title>
    <g id="Page-1" stroke="none" stroke-width="1" fill="none" fill-rule="evenodd">
        <g id="28_R2FtZV9jaGlrZW4tMDE" transform="translate(-891.000000, -1026.000000)">
            <g id="Group-13" transform="translate(891.000000, 1026.000000)">
                <g id="Group" transform="translate(0.000000, 37.000000)">
                    <polyline id="Fill-750" fill="#85BC0C" points="58.65 0.13 58.635 5.16 -1.42108547e-14 39.23 0.014 34.2 58.65 0.13"></polyline>
                    <polyline id="Fill-1042" fill="#85BC0C" points="117.833 34.08 117.819 39.11 59.182 73.18 59.197 68.15 117.833 34.08"></polyline>
                    <polyline id="Fill-1043" fill="#5C8308" points="59.197 68.15 59.182 73.18 0.163 39.11 0.177 34.08 59.197 68.15"></polyline>
                    <polyline id="Fill-1044" fill="#99D20D" points="117.833 34.08 59.197 68.15 0.177 34.08 58.813 4.26325641e-14 117.833 34.08"></polyline>
                </g>
                <polyline id="Fill-57" fill="#888888" points="83 18 80.0171494 16.645824 80 12 82.9828506 13.354176 83 18"></polyline>
                <polyline id="Fill-60" fill="#888888" points="83 44 80.0171494 42.6472338 80 38 82.9828506 39.3527662 83 44"></polyline>
                <polyline id="Fill-75" fill="#888888" points="23 53 20.0171494 51.6449308 20 47 22.9828506 48.354176 23 53"></polyline>
                <polyline id="Fill-76" fill="#DBDBDB" points="22.4784432 48 20 46.5421232 82.5215568 10 85 11.4588384 22.4784432 48"></polyline>
                <polyline id="Fill-77" fill="#C5C5C5" points="84.9856448 12 85 16.9352994 22.0143552 53 22 48.0637515 84.9856448 12"></polyline>
                <polyline id="Fill-78" fill="#888888" points="23 78 20.0171494 76.6463415 20 72 22.9828506 73.3527662 23 78"></polyline>
                <polyline id="Fill-79" fill="#DBDBDB" points="22.4784432 74 20 72.5420863 82.5215568 36 85 37.4579137 22.4784432 74"></polyline>
                <polyline id="Fill-80" fill="#C5C5C5" points="84.9856448 37 85 41.9420914 22.0143552 78 22 73.0579086 84.9856448 37"></polyline>
                <polyline id="Fill-81" fill="#99908A" points="74 61 71.13598 59.296481 71 10 73.8630822 11.7025593 74 61"></polyline>
                <polyline id="Fill-82" fill="#DDD3CC" points="73.9971776 12 71 10.2810078 76.0028224 0 79 1.71996124 73.9971776 12"></polyline>
                <polyline id="Fill-83" fill="#C5C0BC" points="78.9070775 2 83.8603755 6.47248084 84 55.3717951 74.1405874 61 74 12.0997338 78.9070775 2"></polyline>
                <polyline id="Fill-84" fill="#99908A" points="59 70 56.136875 68.2974087 56 19 58.863125 20.7025913 59 70"></polyline>
                <polyline id="Fill-85" fill="#DDD3CC" points="58.9963208 21 56 19.2805912 61.0046603 9 64 10.7194088 58.9963208 21"></polyline>
                <polyline id="Fill-86" fill="#C5C0BC" points="63.9085659 11 68.8594803 15.4679371 69 64.3696185 59.1405197 70 59 21.0983186 63.9085659 11"></polyline>
                <polyline id="Fill-87" fill="#99908A" points="44 78 41.1360225 76.2972805 41 27 43.8639775 28.7036793 44 78"></polyline>
                <polyline id="Fill-88" fill="#DDD3CC" points="43.9957071 29 41 27.2804553 46.0042929 17 49 18.7185759 43.9957071 29"></polyline>
                <polyline id="Fill-89" fill="#C5C0BC" points="48.9085659 19 53.8594803 23.4735772 54 72.3697094 44.1395573 78 44 29.1038678 48.9085659 19"></polyline>
                <polyline id="Fill-90" fill="#99908A" points="29 87 26.13598 85.296481 26 36 28.8630822 37.7025593 29 87"></polyline>
                <polyline id="Fill-91" fill="#DDD3CC" points="28.9957071 38 26 36.2812853 31.0042929 26 34 27.7187147 28.9957071 38"></polyline>
                <polyline id="Fill-92" fill="#C5C0BC" points="33.9085659 28 38.8594803 32.4722644 39 81.3692117 29.1405197 87 29 38.1021007 33.9085659 28"></polyline>
            </g>
        </g>
    </g>
</svg>