<?xml version="1.0" encoding="UTF-8"?>
<svg width="118px" height="111px" viewBox="0 0 118 111" version="1.1" xmlns="http://www.w3.org/2000/svg" xmlns:xlink="http://www.w3.org/1999/xlink">
    <title>Group 15</title>
    <g id="Page-1" stroke="none" stroke-width="1" fill="none" fill-rule="evenodd">
        <g id="28_R2FtZV9jaGlrZW4tMDE" transform="translate(-891.000000, -1026.000000)">
            <g id="Group-15" transform="translate(891.000000, 1026.000000)">
                <g id="Group-13">
                    <g id="Group" transform="translate(0.000000, 37.000000)">
                        <polyline id="Fill-750" fill="#85BC0C" points="58.65 0.13 58.635 5.16 -1.42108547e-14 39.23 0.014 34.2 58.65 0.13"></polyline>
                        <polyline id="Fill-1042" fill="#85BC0C" points="117.833 34.08 117.819 39.11 59.182 73.18 59.197 68.15 117.833 34.08"></polyline>
                        <polyline id="Fill-1043" fill="#5C8308" points="59.197 68.15 59.182 73.18 0.163 39.11 0.177 34.08 59.197 68.15"></polyline>
                        <polyline id="Fill-1044" fill="#99D20D" points="117.833 34.08 59.197 68.15 0.177 34.08 58.813 4.26325641e-14 117.833 34.08"></polyline>
                    </g>
                    <polyline id="Fill-57" fill="#888888" points="83 18 80.0171494 16.645824 80 12 82.9828506 13.354176 83 18"></polyline>
                    <polyline id="Fill-60" fill="#888888" points="83 44 80.0171494 42.6472338 80 38 82.9828506 39.3527662 83 44"></polyline>
                    <polyline id="Fill-75" fill="#888888" points="23 53 20.0171494 51.6449308 20 47 22.9828506 48.354176 23 53"></polyline>
                    <polyline id="Fill-76" fill="#DBDBDB" points="22.4784432 48 20 46.5421232 82.5215568 10 85 11.4588384 22.4784432 48"></polyline>
                    <polyline id="Fill-77" fill="#C5C5C5" points="84.9856448 12 85 16.9352994 22.0143552 53 22 48.0637515 84.9856448 12"></polyline>
                    <polyline id="Fill-78" fill="#888888" points="23 78 20.0171494 76.6463415 20 72 22.9828506 73.3527662 23 78"></polyline>
                    <polyline id="Fill-79" fill="#DBDBDB" points="22.4784432 74 20 72.5420863 82.5215568 36 85 37.4579137 22.4784432 74"></polyline>
                    <polyline id="Fill-80" fill="#C5C5C5" points="84.9856448 37 85 41.9420914 22.0143552 78 22 73.0579086 84.9856448 37"></polyline>
                    <polyline id="Fill-81" fill="#99908A" points="74 61 71.13598 59.296481 71 10 73.8630822 11.7025593 74 61"></polyline>
                    <polyline id="Fill-82" fill="#DDD3CC" points="73.9971776 12 71 10.2810078 76.0028224 0 79 1.71996124 73.9971776 12"></polyline>
                    <polyline id="Fill-83" fill="#C5C0BC" points="78.9070775 2 83.8603755 6.47248084 84 55.3717951 74.1405874 61 74 12.0997338 78.9070775 2"></polyline>
                    <polyline id="Fill-84" fill="#99908A" points="59 70 56.136875 68.2974087 56 19 58.863125 20.7025913 59 70"></polyline>
                    <polyline id="Fill-85" fill="#DDD3CC" points="58.9963208 21 56 19.2805912 61.0046603 9 64 10.7194088 58.9963208 21"></polyline>
                    <polyline id="Fill-86" fill="#C5C0BC" points="63.9085659 11 68.8594803 15.4679371 69 64.3696185 59.1405197 70 59 21.0983186 63.9085659 11"></polyline>
                    <polyline id="Fill-87" fill="#99908A" points="44 78 41.1360225 76.2972805 41 27 43.8639775 28.7036793 44 78"></polyline>
                    <polyline id="Fill-88" fill="#DDD3CC" points="43.9957071 29 41 27.2804553 46.0042929 17 49 18.7185759 43.9957071 29"></polyline>
                    <polyline id="Fill-89" fill="#C5C0BC" points="48.9085659 19 53.8594803 23.4735772 54 72.3697094 44.1395573 78 44 29.1038678 48.9085659 19"></polyline>
                    <polyline id="Fill-90" fill="#99908A" points="29 87 26.13598 85.296481 26 36 28.8630822 37.7025593 29 87"></polyline>
                    <polyline id="Fill-91" fill="#DDD3CC" points="28.9957071 38 26 36.2812853 31.0042929 26 34 27.7187147 28.9957071 38"></polyline>
                    <polyline id="Fill-92" fill="#C5C0BC" points="33.9085659 28 38.8594803 32.4722644 39 81.3692117 29.1405197 87 29 38.1021007 33.9085659 28"></polyline>
                </g>
                <g id="Group-14" transform="translate(66.000000, 50.000000)">
                    <path d="M24.5329881,7.99986311 C23.3659881,9.30986311 22.2209881,10.4698631 21.1409881,11.6098631 C20.0639881,12.7598631 19.0499881,13.8798631 18.1019881,15.0398631 C17.1359881,16.1998631 16.3059881,17.4198631 15.5229881,18.7298631 C14.6689881,20.0198631 14.0899881,21.4598631 13.2369881,23.0298631 L13.2169881,23.0698631 C13.1039881,23.2698631 12.8449881,23.3498631 12.6379881,23.2398631 C12.5299881,23.1798631 12.4579881,23.0798631 12.4289881,22.9698631 C11.9679881,21.2198631 11.9139881,19.2898631 12.4159881,17.4898631 C12.8769881,15.6798631 13.7289881,13.9498631 14.8959881,12.4998631 C16.0409881,11.0298631 17.4469881,9.78986311 19.0269881,8.87986311 C20.6109881,7.97986311 22.3269881,7.32986311 24.2219881,7.24986311 C24.4599881,7.23986311 24.6599881,7.42986311 24.6699881,7.65986311 C24.6749881,7.77986311 24.6329881,7.88986311 24.5619881,7.96986311 L24.5329881,7.99986311" id="Fill-1350" fill="#63B50B"></path>
                    <path d="M0.585988117,3.63986311 C2.50098812,4.34986311 4.06798812,5.52986311 5.45998812,6.87986311 C6.84898812,8.22986311 8.00398812,9.81986311 8.93298812,11.5398631 C9.88098812,13.2498631 10.5329881,15.1398631 10.9009881,17.0798631 C11.2669881,19.0198631 11.2159881,21.0598631 10.6979881,22.9698631 C10.6359881,23.1998631 10.4009881,23.3398631 10.1729881,23.2698631 C10.0519881,23.2398631 9.95798812,23.1598631 9.90498812,23.0598631 L9.88998812,23.0298631 C8.99398812,21.2998631 8.34898812,19.6998631 7.52598812,18.1698631 C6.73398812,16.6398631 5.96998812,15.1298631 5.10298812,13.6498631 C4.25398812,12.1698631 3.38698812,10.6898631 2.53498812,9.13986311 C1.67598812,7.59986311 0.814988117,6.01986311 0.0479881165,4.23986311 L0.0349881165,4.20986311 C-0.0590118835,3.98986311 0.0429881165,3.73986311 0.261988117,3.63986311 C0.368988117,3.59986311 0.484988117,3.59986311 0.585988117,3.63986311" id="Fill-1351" fill="#58960F"></path>
                    <path d="M16.0459881,0.406863107 C16.3579881,2.54986311 16.2369881,4.47986311 16.0299881,6.36986311 C15.8289881,8.25986311 15.4019881,10.0698631 14.9959881,11.8898631 C14.5719881,13.6998631 14.1759881,15.5098631 13.7099881,17.3398631 C13.2489881,19.1798631 12.8179881,21.0098631 12.1929881,22.9698631 L12.1879881,22.9898631 C12.1159881,23.2098631 11.8739881,23.3398631 11.6479881,23.2698631 C11.5269881,23.2298631 11.4329881,23.1398631 11.3849881,23.0298631 C10.5499881,21.1198631 10.1109881,19.0798631 9.96398812,17.0598631 C9.82498812,15.0298631 9.89398812,12.9898631 10.2029881,10.9998631 C10.5069881,9.01986311 10.9429881,7.04986311 11.7619881,5.19986311 C12.1659881,4.27986311 12.6369881,3.37986311 13.2109881,2.51986311 C13.7849881,1.65986311 14.4359881,0.841863107 15.2929881,0.109863107 C15.4849881,-0.0541368926 15.7749881,-0.0321368926 15.9389881,0.159863107 L16.0439881,0.390863107 L16.0459881,0.406863107" id="Fill-1352" fill="#63B50B"></path>
                </g>
            </g>
        </g>
    </g>
</svg>