<?xml version="1.0" encoding="UTF-8"?>
<svg width="25px" height="48px" viewBox="0 0 25 48" version="1.1" xmlns="http://www.w3.org/2000/svg" xmlns:xlink="http://www.w3.org/1999/xlink">
    <title>Group 3</title>
    <g id="Page-1" stroke="none" stroke-width="1" fill="none" fill-rule="evenodd">
        <g id="28_R2FtZV9jaGlrZW4tMDE" transform="translate(-713.000000, -1101.000000)">
            <g id="Group-3" transform="translate(713.000000, 1101.000000)">
                <path d="M2.494,20.6814788 C2.556,20.7004788 3.727,21.0644788 5.403,22.0324788 C7.44,23.2084788 10.131,25.2474788 12.059,28.5114788 C15.578,34.4554788 14.736,37.4944788 14.692,37.6544788 L12.199,39.1034788 C12.243,38.9434788 13.084,35.9034788 9.566,29.9604788 C7.638,26.6964788 4.946,24.6574788 2.909,23.4814788 C1.233,22.5144788 0.062,22.1494788 -5.5067062e-14,22.1304788 L2.494,20.6814788" id="Fill-1323" fill="#5F8006"></path>
                <path d="M2.909,23.4814788 C1.233,22.5144788 0.062,22.1494788 2.84217094e-13,22.1304788 C1.396,33.4304788 9.507,38.5954788 10.987,39.4494788 C11.136,39.5354788 11.214,39.5754788 11.218,39.5784788 L12.199,39.1034788 C12.243,38.9434788 13.084,35.9034788 9.566,29.9604788 C7.638,26.6964788 4.946,24.6574788 2.909,23.4814788" id="Fill-1324" fill="#8AB909"></path>
                <polyline id="Fill-1325" fill="#5F8006" points="14.488 47.9254788 16.981 46.4754788 17.041 25.0524788 14.548 26.5014788 14.488 47.9254788"></polyline>
                <polyline id="Fill-1326" fill="#99CE0A" points="14.548 26.5014788 17.041 25.0524788 14.281 23.4584788 11.786 24.9064788 14.548 26.5014788"></polyline>
                <polyline id="Fill-1327" fill="#8AB909" points="11.786 24.9064788 11.726 46.3354788 14.488 47.9254788 14.548 26.5014788 11.786 24.9064788"></polyline>
                <path d="M7.955,0.662478812 C9.743,-0.375521188 12.217,-0.228521188 14.951,1.35047881 C20.388,4.48947881 24.773,12.0844788 24.7550552,18.3324788 C24.746,21.4334788 23.654,23.6134788 21.889,24.6394788 L19.396,26.0884788 C21.161,25.0624788 22.253,22.8824788 22.262,19.7814788 C22.28,13.5324788 17.895,5.93847881 12.456,2.79847881 C9.724,1.22147881 7.248,1.07347881 5.462,2.11147881 L7.955,0.662478812" id="Fill-1328" fill="#A81E1E"></path>
                <path d="M12.456,2.79947881 C7.025,-0.337521188 2.611,2.17747881 2.59295073,8.42647881 C2.576,14.6684788 6.96,22.2634788 12.393,25.3994788 C17.83,28.5394788 22.245,26.0234788 22.2620552,19.7814788 C22.28,13.5324788 17.895,5.93847881 12.456,2.79947881" id="Fill-1329" fill="#E84D4D"></path>
                <path d="M12.449,6.09547881 C8.6,3.87347881 5.474,5.65447881 5.46195934,10.0814788 C5.449,14.5024788 8.555,19.8824788 12.403,22.1034788 C16.255,24.3274788 19.381,22.5464788 19.3940406,18.1244788 C19.407,13.6984788 16.3,8.31847881 12.449,6.09547881" id="Fill-1330" fill="#E84D4D"></path>
            </g>
        </g>
    </g>
</svg>