<?xml version="1.0" encoding="UTF-8"?>
<svg width="99px" height="118px" viewBox="0 0 99 118" version="1.1" xmlns="http://www.w3.org/2000/svg" xmlns:xlink="http://www.w3.org/1999/xlink">
    <title>Group</title>
    <defs>
        <polygon id="path-1" points="54.18 39.43 43.697 33.38 34.053 38.99 0.578 19.66 33.839 0.33 67.31 19.66 56.77 25.78 67.25 31.84"></polygon>
    </defs>
    <g id="Page-1" stroke="none" stroke-width="1" fill="none" fill-rule="evenodd">
        <g id="28_R2FtZV9jaGlrZW4tMDE" transform="translate(-943.000000, -1179.000000)">
            <g id="Group" transform="translate(943.000000, 1179.000000)">
                <polyline id="Fill-1488" fill="#CC6E09" points="5.68434189e-14 30.95 24.713 24.19 22.973 34.64 5.68434189e-14 30.95"></polyline>
                <polyline id="Fill-1489" fill="#D36705" points="5.68434189e-14 30.95 16.063 30.95 16.063 52.18 5.68434189e-14 30.95"></polyline>
                <polyline id="Fill-1490" fill="#6E3803" points="75.543 80.1 68.885 76.24 68.814 51.15 75.467 55.02 75.543 80.1"></polyline>
                <polyline id="Fill-1491" fill="#6E3803" points="75.467 55.02 68.814 51.15 68.756 30.75 75.408 34.61 75.467 55.02"></polyline>
                <g id="Group-1494" transform="translate(16.533000, 77.270000)">
                    <mask id="mask-2" fill="white">
                        <use xlink:href="#path-1"></use>
                    </mask>
                    <g id="Clip-1493"></g>
                    <polygon id="Fill-1492" fill="#4C4B4A" mask="url(#mask-2)" points="0.578 39.43 67.31 39.43 67.31 0.33 0.578 0.33"></polygon>
                </g>
                <polyline id="Fill-1495" fill="#9F5104" points="49.823 68.12 43.17 64.25 43.238 88.21 49.891 92.08 49.823 68.12"></polyline>
                <polyline id="Fill-1496" fill="#6F3803" points="49.823 68.12 49.891 92.08 56.286 88.39 56.218 64.42 49.823 68.12"></polyline>
                <polyline id="Fill-1497" fill="#C96409" points="28.148 77.14 21.495 73.27 21.563 97.23 28.216 101.1 28.148 77.14"></polyline>
                <polyline id="Fill-1498" fill="#843500" points="28.148 77.14 28.216 101.1 34.611 97.41 34.542 73.45 28.148 77.14"></polyline>
                <polyline id="Fill-1499" fill="#9F5104" points="72.899 76.77 66.245 72.91 66.314 96.87 72.966 100.73 72.899 76.77"></polyline>
                <polyline id="Fill-1500" fill="#843500" points="72.899 76.77 72.966 100.73 79.363 97.04 79.293 73.08 72.899 76.77"></polyline>
                <polyline id="Fill-1501" fill="#C96409" points="51.223 90.51 44.57 86.65 44.638 110.61 51.291 114.47 51.223 90.51"></polyline>
                <polyline id="Fill-1502" fill="#843500" points="51.223 90.51 51.291 114.47 57.686 110.78 57.617 86.82 51.223 90.51"></polyline>
                <polyline id="Fill-1503" fill="#843500" points="51.33 63.94 81.633 46.33 81.543 80.5 51.233 98.11 51.33 63.94"></polyline>
                <polyline id="Fill-1504" fill="#B25A04" points="21.592 46.77 51.899 29.16 81.633 46.33 51.33 63.94 21.592 46.77"></polyline>
                <polyline id="Fill-1505" fill="#C96409" points="51.33 63.94 51.233 98.11 21.495 80.94 21.592 46.77 51.33 63.94"></polyline>
                <polyline id="Fill-1506" fill="#9B4002" points="50.101 41.58 87.063 20.1 86.963 55.21 50.001 76.69 50.101 41.58"></polyline>
                <polyline id="Fill-1507" fill="#F78014" points="15.293 21.48 52.253 -4.26325641e-14 87.063 20.1 50.101 41.58 15.293 21.48"></polyline>
                <polyline id="Fill-1508" fill="#E27305" points="50.101 41.58 50.001 76.69 15.194 56.59 15.293 21.48 50.101 41.58"></polyline>
                <polyline id="Fill-1509" fill="#FC913A" points="60.618 3.27 57.661 1.56 50.263 20.46 53.22 22.17 60.618 3.27"></polyline>
                <polyline id="Fill-1510" fill="#E27305" points="62.105 2.42 59.148 0.7 57.661 1.56 60.618 3.27 62.105 2.42"></polyline>
                <polyline id="Fill-1511" fill="#A54A00" points="60.618 3.27 53.22 22.17 69.592 12.72 62.105 2.42 60.618 3.27"></polyline>
                <polyline id="Fill-1512" fill="#FC913A" points="43.449 13.1 40.493 11.38 33.095 30.28 36.052 32 43.449 13.1"></polyline>
                <polyline id="Fill-1513" fill="#E27305" points="44.937 12.24 41.98 10.52 40.493 11.38 43.449 13.1 44.937 12.24"></polyline>
                <polyline id="Fill-1514" fill="#A54A00" points="43.449 13.1 36.052 32 52.424 22.55 44.937 12.24 43.449 13.1"></polyline>
                <polyline id="Fill-1515" fill="#9F5104" points="29.959 70.9 29.963 72.41 29.959 70.9"></polyline>
                <polyline id="Fill-1516" fill="#9F5104" points="29.98 78.07 29.98 78.07 29.979 77.76 29.98 78.07"></polyline>
                <path d="M32.234,76.56 L29.972,75.24 L29.967,73.73 L32.229,75.05 C32.588,75.26 32.882,75.77 32.8830026,76.18 C32.884,76.6 32.593,76.77 32.234,76.56 Z M39.558,75.99 L29.958,70.41 L29.959,70.9 L32.221,72.22 C32.58,72.43 32.874,72.94 32.875,73.35 C32.876,73.77 32.584,73.93 32.226,73.73 L29.963,72.41 L29.979,77.76 L29.975,76.57 L32.237,77.88 C32.596,78.09 32.89,78.6 32.891,79.01 C32.893,79.43 32.601,79.6 32.241,79.39 L29.98,78.07 L29.982,78.98 L39.581,84.55 C41.624,85.74 43.282,84.79 43.2760162,82.42 C43.269,80.06 41.6,77.18 39.558,75.99 L39.558,75.99 Z" id="Fill-1517" fill="#9F5104"></path>
                <path d="M32.237,77.88 L29.975,76.57 L29.98,78.07 L32.241,79.39 C32.601,79.6 32.893,79.43 32.8910102,79.01 C32.89,78.6 32.596,78.09 32.237,77.88" id="Fill-1518" fill="#5E2D00"></path>
                <path d="M32.229,75.05 L29.967,73.73 L29.972,75.24 L32.234,76.56 C32.593,76.77 32.884,76.6 32.8830026,76.18 C32.882,75.77 32.588,75.26 32.229,75.05" id="Fill-1519" fill="#5E2D00"></path>
                <path d="M32.221,72.22 L29.959,70.9 L29.963,72.41 L32.226,73.73 C32.584,73.93 32.876,73.77 32.8750026,73.35 C32.874,72.94 32.58,72.43 32.221,72.22" id="Fill-1520" fill="#5E2D00"></path>
                <polyline id="Fill-1521" fill="#9B4002" points="78.473 96.8 85.123 92.93 85.193 67.85 78.543 71.71 78.473 96.8"></polyline>
                <polyline id="Fill-1522" fill="#F78014" points="78.603 51.31 85.253 47.44 72.712 40.2 66.06 44.06 78.603 51.31"></polyline>
                <polyline id="Fill-1523" fill="#9B4002" points="78.543 71.71 85.193 67.85 98.603 57.6 91.953 61.47 78.543 71.71"></polyline>
                <polyline id="Fill-1524" fill="#F78014" points="91.963 59.02 98.613 55.15 85.253 47.44 78.603 51.31 91.963 59.02"></polyline>
                <polyline id="Fill-1525" fill="#D3C7BE" points="91.953 61.47 98.603 57.6 98.613 55.15 91.963 59.02 91.953 61.47"></polyline>
                <polyline id="Fill-1526" fill="#C96409" points="66.06 44.06 65.931 89.56 78.473 96.8 78.543 71.71 91.953 61.47 91.963 59.02 78.603 51.31 66.06 44.06"></polyline>
                <polyline id="Fill-1527" fill="#F9F0E8" points="90.293 50.35 83.843 54.33 91.963 59.02 98.613 55.15 90.293 50.35"></polyline>
                <polyline id="Fill-1528" fill="#C4B6A9" points="83.843 54.33 83.843 67.66 91.953 61.47 91.963 59.02 83.843 54.33"></polyline>
                <polyline id="Fill-1529" fill="#232323" points="4.848 30.95 4.848 37.36 1.70530257e-13 30.95 4.848 30.95"></polyline>
                <polyline id="Fill-1530" fill="#3A3A3A" points="4.848 30.95 8.031 28.75 1.70530257e-13 30.95 4.848 30.95"></polyline>
            </g>
        </g>
    </g>
</svg>