<?xml version="1.0" encoding="UTF-8"?>
<svg width="98px" height="113px" viewBox="0 0 98 113" version="1.1" xmlns="http://www.w3.org/2000/svg" xmlns:xlink="http://www.w3.org/1999/xlink">
    <title>Group 2</title>
    <defs>
        <polyline id="path-1" points="0.226 17.34 29.928 0.08 29.832 33.57 0.131 50.83 0.226 17.34"></polyline>
        <polyline id="path-3" points="30.226 17.34 30.131 50.83 0.987 34 1.082 0.51 30.226 17.34"></polyline>
        <polyline id="path-5" points="35.022 20.42 34.924 54.83 0.812 35.14 0.909 0.73 35.022 20.42"></polyline>
    </defs>
    <g id="Page-1" stroke="none" stroke-width="1" fill="none" fill-rule="evenodd">
        <g id="28_R2FtZV9jaGlrZW4tMDE" transform="translate(-817.000000, -1179.000000)">
            <g id="Group-2" transform="translate(817.963000, 1179.680000)">
                <polyline id="Fill-931" fill="#F78014" points="83.653 24.07 77.133 20.28 90.225 12.72 96.745 16.51 83.653 24.07"></polyline>
                <polyline id="Fill-932" fill="#F78014" points="64.806 34.95 58.285 31.16 77.133 20.28 83.653 24.07 64.806 34.95"></polyline>
                <polyline id="Fill-933" fill="#BA5800" points="96.745 16.51 96.752 18.91 83.709 44.06 83.78 68.65 64.932 79.53 64.806 34.95 83.653 24.07 96.745 16.51"></polyline>
                <polyline id="Fill-934" fill="#F9F0E8" points="82.595 17.12 89.441 20.72 96.745 16.51 90.225 12.72 82.595 17.12"></polyline>
                <polyline id="Fill-935" fill="#D8C9BA" points="96.752 19.28 96.745 16.51 89.441 20.72 89.441 33.01 96.752 19.28"></polyline>
                <polyline id="Fill-936" fill="#6E3803" points="66.988 78.5 60.468 74.71 60.398 50.13 66.918 53.92 66.988 78.5"></polyline>
                <polyline id="Fill-937" fill="#6E3803" points="66.918 53.92 60.398 50.13 60.341 30.13 66.862 33.92 66.918 53.92"></polyline>
                <polyline id="Fill-938" fill="#4C4B4A" points="43.263 111.78 32.531 106.7 14.546 107.73 20.626 101.65 10.223 96.15 43.542 80.18 59.245 81.06 64.927 77.91 64.932 79.53 66.85 78.42 66.988 78.5 66.987 78.34 73.443 74.61 81.795 79.44 68.861 86.62 79.907 92.99 43.263 111.78"></polyline>
                <path d="M64.932,79.53 L64.927,77.91 L65.462,77.61 L66.85,78.42 L64.932,79.53 M66.987,78.34 L66.983,76.77 L72.18,73.88 L73.443,74.61 L66.987,78.34" id="Fill-939" fill="#974700"></path>
                <polyline id="Fill-940" fill="#592D02" points="66.988 78.5 66.85 78.42 65.462 77.61 66.983 76.77 66.987 78.34 66.988 78.5"></polyline>
                <polyline id="Fill-941" fill="#B25A04" points="26.133 67.72 32.654 63.93 38.92 67.55 32.401 71.33 26.133 67.72"></polyline>
                <polyline id="Fill-942" fill="#9F5104" points="20.358 75.79 26.878 72 26.812 95.49 20.291 99.28 20.358 75.79"></polyline>
                <polyline id="Fill-943" fill="#843500" points="20.358 75.79 20.291 99.28 14.025 95.66 14.091 72.17 20.358 75.79"></polyline>
                <polyline id="Fill-944" fill="#B25A04" points="47.375 76.56 53.896 72.77 60.162 76.39 53.643 80.18 47.375 76.56"></polyline>
                <polyline id="Fill-945" fill="#C96409" points="43.17 85.08 49.69 81.29 49.623 104.77 43.104 108.56 43.17 85.08"></polyline>
                <polyline id="Fill-946" fill="#843500" points="43.17 85.08 43.104 108.56 36.836 104.94 36.903 81.46 43.17 85.08"></polyline>
                <polyline id="Fill-947" fill="#C96409" points="66.36 75.04 72.879 71.25 72.813 94.73 66.293 98.52 66.36 75.04"></polyline>
                <polyline id="Fill-948" fill="#843500" points="66.36 75.04 66.293 98.52 60.026 94.9 60.093 71.42 66.36 75.04"></polyline>
                <polyline id="Fill-949" fill="#C96409" points="43.263 62.66 72.965 45.4 72.869 78.89 43.168 96.15 43.263 62.66"></polyline>
                <g id="Group-958" transform="translate(43.037000, 45.320000)">
                    <mask id="mask-2" fill="white">
                        <use xlink:href="#path-1"></use>
                    </mask>
                    <g id="Clip-951"></g>
                    <polyline id="Fill-950" fill="#9F5104" mask="url(#mask-2)" points="8.723 33.19 8.721 33.87 8.723 33.19"></polyline>
                    <polyline id="Fill-952" fill="#9F5104" mask="url(#mask-2)" points="8.711 37.44 8.711 37.44 8.713 36.73 8.711 37.44"></polyline>
                    <path d="M18.141,24.06 L8.734,29.53 L8.728,31.33 L8.731,30.41 L10.948,29.12 C11.299,28.92 11.585,29.08 11.584,29.49 C11.583,29.9 11.295,30.4 10.944,30.6 L8.727,31.89 L8.723,33.19 L10.94,31.9 C11.291,31.69 11.578,31.86 11.577,32.27 C11.576,32.67 11.287,33.17 10.936,33.38 L8.719,34.66 L8.721,33.87 L8.713,36.73 L8.715,35.96 L10.932,34.67 C11.284,34.47 11.57,34.63 11.569,35.04 C11.568,35.45 11.28,35.95 10.928,36.15 L8.711,37.44 L8.709,37.92 L18.118,32.45 C20.12,31.29 21.754,28.47 21.7610225,26.15 C21.768,23.83 20.143,22.9 18.141,24.06" id="Fill-953" fill="#9F5104" mask="url(#mask-2)"></path>
                    <polyline id="Fill-954" fill="#9F5104" mask="url(#mask-2)" points="8.727 31.89 8.727 31.89 8.728 31.33 8.727 31.89"></polyline>
                    <path d="M10.948,29.12 L8.731,30.41 L8.727,31.89 L10.944,30.6 C11.295,30.4 11.583,29.9 11.5840026,29.49 C11.585,29.08 11.299,28.92 10.948,29.12" id="Fill-955" fill="#5E2D00" mask="url(#mask-2)"></path>
                    <path d="M10.94,31.9 L8.723,33.19 L8.719,34.66 L10.936,33.38 C11.287,33.17 11.576,32.67 11.5770026,32.27 C11.578,31.86 11.291,31.69 10.94,31.9" id="Fill-956" fill="#5E2D00" mask="url(#mask-2)"></path>
                    <path d="M10.932,34.67 L8.715,35.96 L8.711,37.44 L10.928,36.15 C11.28,35.95 11.568,35.45 11.5690026,35.04 C11.57,34.63 11.284,34.47 10.932,34.67" id="Fill-957" fill="#5E2D00" mask="url(#mask-2)"></path>
                </g>
                <polyline id="Fill-959" fill="#B25A04" points="14.119 45.83 43.821 28.57 72.965 45.4 43.263 62.66 14.119 45.83"></polyline>
                <polyline id="Fill-960" fill="#843500" points="43.263 62.66 43.168 96.15 14.025 79.32 14.119 45.83 43.263 62.66"></polyline>
                <g id="Group-964" transform="translate(13.037000, 45.320000)">
                    <mask id="mask-4" fill="white">
                        <use xlink:href="#path-3"></use>
                    </mask>
                    <g id="Clip-962"></g>
                    <path d="M15.612,25.17 C14.83,24.72 14.199,25.08 14.1959952,25.98 C14.194,26.87 14.821,27.96 15.602,28.41 C16.376,28.86 17.008,28.5 17.0110048,27.6 C17.013,26.71 16.386,25.62 15.612,25.17" id="Fill-961" fill="#5E2D00" mask="url(#mask-4)"></path>
                    <path d="M15.594,31.43 C14.813,30.98 14.181,31.34 14.1779893,32.23 C14.175,33.13 14.803,34.22 15.584,34.67 C16.359,35.11 16.991,34.75 16.9940012,33.86 C16.995,32.97 16.368,31.88 15.594,31.43" id="Fill-963" fill="#5E2D00" mask="url(#mask-4)"></path>
                </g>
                <polyline id="Fill-965" fill="#E27305" points="42.059 40.74 78.28 19.7 78.182 54.1 41.961 75.15 42.059 40.74"></polyline>
                <polyline id="Fill-966" fill="#F78014" points="7.947 21.05 44.168 -1.0658141e-13 78.28 19.7 42.059 40.74 7.947 21.05"></polyline>
                <polyline id="Fill-967" fill="#933B00" points="42.059 40.74 41.961 75.15 7.849 55.46 7.947 21.05 42.059 40.74"></polyline>
                <polyline id="Fill-968" fill="#9B4002" points="42.059 40.74 41.961 75.15 7.849 55.46 7.947 21.05 42.059 40.74"></polyline>
                <g id="Group-974" transform="translate(7.037000, 20.320000)">
                    <mask id="mask-6" fill="white">
                        <use xlink:href="#path-5"></use>
                    </mask>
                    <g id="Clip-970"></g>
                    <path d="M14.18,18.21 L6.424,13.73 C5.708,13.32 5.122,13.65 5.11999486,14.48 C5.118,15.3 5.7,16.31 6.415,16.73 L14.172,21.21 C14.887,21.62 15.473,21.28 15.4760051,20.46 C15.478,19.63 14.896,18.62 14.18,18.21" id="Fill-969" fill="#3A3A3A" mask="url(#mask-6)"></path>
                    <path d="M8.791,17.96 C8.141,17.58 7.612,16.66 7.61399435,15.92 C7.616,15.17 8.149,14.87 8.799,15.25 C9.449,15.62 9.972,16.53 9.97000572,17.28 C9.967,18.02 9.441,18.33 8.791,17.96 Z M14.18,18.21 L6.424,13.73 C5.708,13.32 5.122,13.65 5.11999486,14.48 C5.118,15.3 5.7,16.31 6.415,16.73 L14.172,21.21 C14.887,21.62 15.473,21.28 15.4760051,20.46 C15.478,19.63 14.896,18.62 14.18,18.21 L14.18,18.21 Z" id="Fill-971" fill="#D8C9BA" mask="url(#mask-6)"></path>
                    <path d="M29.452,27.03 L21.695,22.55 C20.979,22.14 20.393,22.47 20.3909949,23.29 C20.389,24.11 20.971,25.13 21.686,25.54 L29.443,30.02 C30.158,30.43 30.745,30.09 30.7460051,29.27 C30.748,28.45 30.166,27.44 29.452,27.03" id="Fill-972" fill="#3A3A3A" mask="url(#mask-6)"></path>
                    <path d="M24.062,26.78 C23.412,26.4 22.882,25.49 22.8839944,24.73 C22.887,23.99 23.42,23.68 24.07,24.06 C24.726,24.44 25.256,25.35 25.2530127,26.1 C25.251,26.85 24.718,27.16 24.062,26.78 Z M29.452,27.03 L21.695,22.55 C20.979,22.14 20.393,22.47 20.3909949,23.29 C20.389,24.11 20.971,25.13 21.686,25.54 L29.443,30.02 C30.158,30.43 30.745,30.09 30.7460051,29.27 C30.748,28.45 30.166,27.44 29.452,27.03 L29.452,27.03 Z" id="Fill-973" fill="#D8C9BA" mask="url(#mask-6)"></path>
                </g>
                <polyline id="Fill-975" fill="#D36705" points="31.398 51.65 5.68434189e-14 69.1 31.354 67.04 31.398 51.65"></polyline>
                <polyline id="Fill-976" fill="#F78014" points="31.398 51.65 16.141 42.84 5.68434189e-14 69.1 31.398 51.65"></polyline>
                <polyline id="Fill-977" fill="#3A3A3A" points="3.889 62.77 7.67 64.84 0 69.1 3.889 62.77"></polyline>
                <polyline id="Fill-978" fill="#232323" points="7.67 64.84 7.67 68.59 0 69.1 7.67 64.84"></polyline>
                <polyline id="Fill-979" fill="#FC913A" points="33.128 3.21 36.027 1.52 43.277 20.04 40.379 21.73 33.128 3.21"></polyline>
                <polyline id="Fill-980" fill="#E27305" points="31.672 2.36 34.57 0.68 36.027 1.52 33.128 3.21 31.672 2.36"></polyline>
                <polyline id="Fill-981" fill="#A54A00" points="33.128 3.21 40.379 21.73 24.333 12.46 31.672 2.36 33.128 3.21"></polyline>
                <polyline id="Fill-982" fill="#FC913A" points="49.954 12.84 52.852 11.15 60.102 29.67 57.204 31.36 49.954 12.84"></polyline>
                <polyline id="Fill-983" fill="#E27305" points="48.497 11.99 51.395 10.31 52.852 11.15 49.954 12.84 48.497 11.99"></polyline>
                <polyline id="Fill-984" fill="#A54A00" points="49.954 12.84 57.204 31.36 41.159 22.09 48.497 11.99 49.954 12.84"></polyline>
            </g>
        </g>
    </g>
</svg>