<?xml version="1.0" encoding="UTF-8"?>
<svg width="100px" height="118px" viewBox="0 0 100 118" version="1.1" xmlns="http://www.w3.org/2000/svg" xmlns:xlink="http://www.w3.org/1999/xlink">
    <title>Group 3</title>
    <g id="Page-1" stroke="none" stroke-width="1" fill="none" fill-rule="evenodd">
        <g id="28_R2FtZV9jaGlrZW4tMDE" transform="translate(-705.000000, -1179.000000)">
            <g id="Group-3" transform="translate(705.304000, 1179.730000)">
                <polyline id="Fill-1447" fill="#CC6E09" points="98.613 30.95 73.9 24.19 75.641 34.64 98.613 30.95"></polyline>
                <polyline id="Fill-1448" fill="#D36705" points="98.613 30.95 82.551 30.95 82.551 52.18 98.613 30.95"></polyline>
                <polyline id="Fill-1449" fill="#6E3803" points="23.076 80.1 29.729 76.24 29.8 51.15 23.148 55.02 23.076 80.1"></polyline>
                <polyline id="Fill-1450" fill="#6E3803" points="23.148 55.02 29.8 51.15 29.857 30.75 23.205 34.61 23.148 55.02"></polyline>
                <polyline id="Fill-1451" fill="#4C4B4A" points="27.9 116.7 14.827 109.11 25.311 103.05 14.768 96.93 48.241 77.6 81.502 96.93 48.028 116.26 38.385 110.65 27.9 116.7"></polyline>
                <polyline id="Fill-1452" fill="#9F5104" points="48.791 68.12 55.443 64.25 55.376 88.21 48.723 92.08 48.791 68.12"></polyline>
                <polyline id="Fill-1453" fill="#6F3803" points="48.791 68.12 48.723 92.08 42.328 88.39 42.396 64.42 48.791 68.12"></polyline>
                <polyline id="Fill-1454" fill="#C96409" points="70.466 77.14 77.119 73.27 77.051 97.23 70.399 101.1 70.466 77.14"></polyline>
                <polyline id="Fill-1455" fill="#843500" points="70.466 77.14 70.399 101.1 64.003 97.41 64.071 73.45 70.466 77.14"></polyline>
                <polyline id="Fill-1456" fill="#9F5104" points="25.716 76.77 32.368 72.91 32.301 96.87 25.648 100.73 25.716 76.77"></polyline>
                <polyline id="Fill-1457" fill="#843500" points="25.716 76.77 25.648 100.73 19.253 97.04 19.32 73.08 25.716 76.77"></polyline>
                <polyline id="Fill-1458" fill="#C96409" points="47.391 90.51 54.044 86.65 53.976 110.61 47.323 114.47 47.391 90.51"></polyline>
                <polyline id="Fill-1459" fill="#843500" points="47.391 90.51 47.323 114.47 40.928 110.78 40.996 86.82 47.391 90.51"></polyline>
                <polyline id="Fill-1460" fill="#843500" points="47.284 63.94 16.978 46.33 17.074 80.5 47.381 98.11 47.284 63.94"></polyline>
                <polyline id="Fill-1461" fill="#B25A04" points="77.022 46.77 46.715 29.16 16.978 46.33 47.284 63.94 77.022 46.77"></polyline>
                <polyline id="Fill-1462" fill="#C96409" points="47.284 63.94 47.381 98.11 77.119 80.94 77.022 46.77 47.284 63.94"></polyline>
                <polyline id="Fill-1463" fill="#9B4002" points="48.514 41.58 11.554 20.1 11.653 55.21 48.613 76.69 48.514 41.58"></polyline>
                <polyline id="Fill-1464" fill="#F78014" points="83.32 21.48 46.361 -4.26325641e-14 11.554 20.1 48.514 41.58 83.32 21.48"></polyline>
                <polyline id="Fill-1465" fill="#E27305" points="48.514 41.58 48.613 76.69 83.42 56.59 83.32 21.48 48.514 41.58"></polyline>
                <polyline id="Fill-1466" fill="#FC913A" points="37.996 3.27 40.952 1.56 48.351 20.46 45.394 22.17 37.996 3.27"></polyline>
                <polyline id="Fill-1467" fill="#E27305" points="36.509 2.42 39.466 0.7 40.952 1.56 37.996 3.27 36.509 2.42"></polyline>
                <polyline id="Fill-1468" fill="#A54A00" points="37.996 3.27 45.394 22.17 29.022 12.72 36.509 2.42 37.996 3.27"></polyline>
                <polyline id="Fill-1469" fill="#FC913A" points="55.164 13.1 58.121 11.38 65.519 30.28 62.563 32 55.164 13.1"></polyline>
                <polyline id="Fill-1470" fill="#E27305" points="53.678 12.24 56.635 10.52 58.121 11.38 55.164 13.1 53.678 12.24"></polyline>
                <polyline id="Fill-1471" fill="#A54A00" points="55.164 13.1 62.563 32 46.191 22.55 53.678 12.24 55.164 13.1"></polyline>
                <polyline id="Fill-1472" fill="#9F5104" points="68.65 72.41 68.65 72.41 68.654 70.9 68.65 72.41"></polyline>
                <polyline id="Fill-1473" fill="#9F5104" points="68.635 78.07 68.636 77.76 68.635 78.07"></polyline>
                <path d="M68.643,75.24 L66.381,76.56 C66.022,76.77 65.73,76.6 65.7309974,76.18 C65.732,75.77 66.025,75.26 66.385,75.05 L68.647,73.73 L68.643,75.24 Z M65.739,73.35 C65.74,72.94 66.033,72.43 66.393,72.22 L68.654,70.9 L68.656,70.41 L59.057,75.99 C57.014,77.18 55.346,80.06 55.3389779,82.42 C55.332,84.79 56.989,85.74 59.032,84.55 L68.632,78.98 L68.635,78.07 L66.372,79.39 C66.014,79.6 65.722,79.43 65.723,79.01 C65.724,78.6 66.018,78.09 66.377,77.88 L68.639,76.57 L68.636,77.76 L68.65,72.41 L66.389,73.73 C66.029,73.93 65.737,73.77 65.739,73.35 L65.739,73.35 Z" id="Fill-1474" fill="#9F5104"></path>
                <path d="M66.377,77.88 C66.018,78.09 65.724,78.6 65.7229974,79.01 C65.722,79.43 66.014,79.6 66.372,79.39 L68.635,78.07 L68.639,76.57 L66.377,77.88" id="Fill-1475" fill="#5E2D00"></path>
                <path d="M66.385,75.05 C66.025,75.26 65.732,75.77 65.7309974,76.18 C65.73,76.6 66.022,76.77 66.381,76.56 L68.643,75.24 L68.647,73.73 L66.385,75.05" id="Fill-1476" fill="#5E2D00"></path>
                <path d="M66.393,72.22 C66.033,72.43 65.74,72.94 65.7389898,73.35 C65.737,73.77 66.029,73.93 66.389,73.73 L68.65,72.41 L68.654,70.9 L66.393,72.22" id="Fill-1477" fill="#5E2D00"></path>
                <polyline id="Fill-1478" fill="#9B4002" points="20.142 96.8 13.488 92.93 13.417 67.85 20.07 71.71 20.142 96.8"></polyline>
                <polyline id="Fill-1479" fill="#F78014" points="20.012 51.31 13.359 47.44 25.901 40.2 32.555 44.06 20.012 51.31"></polyline>
                <polyline id="Fill-1480" fill="#9B4002" points="20.07 71.71 13.417 67.85 0.008 57.6 6.66 61.47 20.07 71.71"></polyline>
                <polyline id="Fill-1481" fill="#F78014" points="6.653 59.02 5.68434189e-14 55.15 13.359 47.44 20.012 51.31 6.653 59.02"></polyline>
                <polyline id="Fill-1482" fill="#D3C7BE" points="6.66 61.47 0.008 57.6 1.13686838e-13 55.15 6.653 59.02 6.66 61.47"></polyline>
                <polyline id="Fill-1483" fill="#C96409" points="32.555 44.06 32.684 89.56 20.142 96.8 20.07 71.71 6.66 61.47 6.653 59.02 20.012 51.31 32.555 44.06"></polyline>
                <polyline id="Fill-1484" fill="#F9F0E8" points="8.32 50.35 14.768 54.33 6.653 59.02 1.13686838e-13 55.15 8.32 50.35"></polyline>
                <polyline id="Fill-1485" fill="#C4B6A9" points="14.768 54.33 14.768 67.66 6.66 61.47 6.653 59.02 14.768 54.33"></polyline>
                <polyline id="Fill-1486" fill="#232323" points="93.766 30.95 93.766 37.36 98.613 30.95 93.766 30.95"></polyline>
                <polyline id="Fill-1487" fill="#3A3A3A" points="93.766 30.95 90.582 28.75 98.613 30.95 93.766 30.95"></polyline>
            </g>
        </g>
    </g>
</svg>