<?xml version="1.0" encoding="UTF-8"?>
<svg width="98px" height="113px" viewBox="0 0 98 113" version="1.1" xmlns="http://www.w3.org/2000/svg" xmlns:xlink="http://www.w3.org/1999/xlink">
    <title>Group 4</title>
    <defs>
        <polyline id="path-1" points="30.645 17.34 0.944 0.08 1.038 33.57 30.741 50.83 30.645 17.34"></polyline>
        <polyline id="path-3" points="0.645 17.34 0.741 50.83 29.884 34 29.789 0.51 0.645 17.34"></polyline>
    </defs>
    <g id="Page-1" stroke="none" stroke-width="1" fill="none" fill-rule="evenodd">
        <g id="28_R2FtZV9jaGlrZW4tMDE" transform="translate(-591.000000, -1179.000000)">
            <g id="Group-4" transform="translate(591.157000, 1179.680000)">
                <polyline id="Fill-985" fill="#F78014" points="13.099 24.07 19.619 20.28 6.526 12.72 0.006 16.51 13.099 24.07"></polyline>
                <polyline id="Fill-986" fill="#F78014" points="31.946 34.95 38.466 31.16 19.619 20.28 13.099 24.07 31.946 34.95"></polyline>
                <polyline id="Fill-987" fill="#BA5800" points="0.006 16.51 5.68434189e-14 18.91 13.041 44.06 12.972 68.65 31.82 79.53 31.946 34.95 0.006 16.51"></polyline>
                <polyline id="Fill-988" fill="#F9F0E8" points="14.156 17.12 7.311 20.72 0.006 16.51 6.526 12.72 14.156 17.12"></polyline>
                <polyline id="Fill-989" fill="#D8C9BA" points="0 19.28 0.006 16.51 7.311 20.72 7.311 33.01 0 19.28"></polyline>
                <polyline id="Fill-990" fill="#6E3803" points="29.764 78.5 36.284 74.71 36.353 50.13 29.834 53.92 29.764 78.5"></polyline>
                <polyline id="Fill-991" fill="#6E3803" points="29.834 53.92 36.353 50.13 36.41 30.13 29.89 33.92 29.834 53.92"></polyline>
                <polyline id="Fill-992" fill="#4C4B4A" points="53.488 111.78 16.843 92.99 27.89 86.62 14.957 79.44 23.309 74.61 29.765 78.34 29.764 78.5 29.902 78.42 31.82 79.53 31.824 77.91 37.507 81.06 53.21 80.18 86.529 96.15 76.125 101.65 82.205 107.73 64.221 106.7 53.488 111.78"></polyline>
                <path d="M31.82,79.53 L29.902,78.42 L31.29,77.61 L31.824,77.91 L31.82,79.53 M29.765,78.34 L23.309,74.61 L24.572,73.88 L29.769,76.77 L29.765,78.34" id="Fill-993" fill="#974700"></path>
                <polyline id="Fill-994" fill="#592D02" points="29.764 78.5 29.765 78.34 29.769 76.77 31.29 77.61 29.902 78.42 29.764 78.5"></polyline>
                <polyline id="Fill-995" fill="#B25A04" points="70.619 67.72 64.098 63.93 57.832 67.55 64.351 71.33 70.619 67.72"></polyline>
                <polyline id="Fill-996" fill="#843500" points="76.393 75.79 69.874 72 69.94 95.49 76.461 99.28 76.393 75.79"></polyline>
                <polyline id="Fill-997" fill="#C96409" points="76.393 75.79 76.461 99.28 82.727 95.66 82.661 72.17 76.393 75.79"></polyline>
                <polyline id="Fill-998" fill="#B25A04" points="49.376 76.56 42.856 72.77 36.588 76.39 43.109 80.18 49.376 76.56"></polyline>
                <polyline id="Fill-999" fill="#843500" points="53.582 85.08 47.061 81.29 47.129 104.77 53.648 108.56 53.582 85.08"></polyline>
                <polyline id="Fill-1000" fill="#C96409" points="53.582 85.08 53.648 108.56 59.916 104.94 59.848 81.46 53.582 85.08"></polyline>
                <polyline id="Fill-1001" fill="#843500" points="30.392 75.04 23.872 71.25 23.939 94.73 30.459 98.52 30.392 75.04"></polyline>
                <polyline id="Fill-1002" fill="#843500" points="30.392 75.04 30.459 98.52 36.725 94.9 36.659 71.42 30.392 75.04"></polyline>
                <polyline id="Fill-1003" fill="#843500" points="53.488 62.66 23.787 45.4 23.881 78.89 53.584 96.15 53.488 62.66"></polyline>
                <g id="Group-1012" transform="translate(22.843000, 45.320000)">
                    <mask id="mask-2" fill="white">
                        <use xlink:href="#path-1"></use>
                    </mask>
                    <g id="Clip-1005"></g>
                    <polyline id="Fill-1004" fill="#9F5104" mask="url(#mask-2)" points="22.145 31.89 22.144 31.33 22.145 31.89"></polyline>
                    <polyline id="Fill-1006" fill="#9F5104" mask="url(#mask-2)" points="22.149 33.19 22.149 33.19 22.151 33.87 22.149 33.19"></polyline>
                    <polyline id="Fill-1007" fill="#9F5104" mask="url(#mask-2)" points="22.161 37.44 22.159 36.73 22.161 37.44"></polyline>
                    <path d="M22.161,37.44 L19.944,36.15 C19.592,35.95 19.304,35.45 19.303,35.04 C19.302,34.63 19.588,34.47 19.94,34.67 L22.157,35.96 L22.159,36.73 L22.151,33.87 L22.153,34.66 L19.936,33.38 C19.584,33.17 19.296,32.67 19.295,32.27 C19.294,31.86 19.58,31.69 19.932,31.9 L22.149,33.19 L22.145,31.89 L19.928,30.6 C19.577,30.4 19.288,29.9 19.287,29.49 C19.286,29.08 19.572,28.92 19.924,29.12 L22.141,30.41 L22.144,31.33 L22.138,29.53 L12.73,24.06 C10.729,22.9 9.104,23.83 9.11097747,26.15 C9.118,28.47 10.752,31.29 12.754,32.45 L22.162,37.92 L22.161,37.44" id="Fill-1008" fill="#9F5104" mask="url(#mask-2)"></path>
                    <path d="M22.141,30.41 L19.924,29.12 C19.572,28.92 19.286,29.08 19.2869974,29.49 C19.288,29.9 19.577,30.4 19.928,30.6 L22.145,31.89 L22.141,30.41" id="Fill-1009" fill="#5E2D00" mask="url(#mask-2)"></path>
                    <path d="M22.149,33.19 L19.932,31.9 C19.58,31.69 19.294,31.86 19.2949974,32.27 C19.296,32.67 19.584,33.17 19.936,33.38 L22.153,34.66 L22.149,33.19" id="Fill-1010" fill="#5E2D00" mask="url(#mask-2)"></path>
                    <path d="M22.157,35.96 L19.94,34.67 C19.588,34.47 19.302,34.63 19.3029974,35.04 C19.304,35.45 19.592,35.95 19.944,36.15 L22.161,37.44 L22.157,35.96" id="Fill-1011" fill="#5E2D00" mask="url(#mask-2)"></path>
                </g>
                <polyline id="Fill-1013" fill="#B25A04" points="82.632 45.83 52.931 28.57 23.787 45.4 53.488 62.66 82.632 45.83"></polyline>
                <polyline id="Fill-1014" fill="#C96409" points="53.488 62.66 53.584 96.15 82.727 79.32 82.632 45.83 53.488 62.66"></polyline>
                <g id="Group-1018" transform="translate(52.843000, 45.320000)">
                    <mask id="mask-4" fill="white">
                        <use xlink:href="#path-3"></use>
                    </mask>
                    <g id="Clip-1016"></g>
                    <path d="M15.26,25.17 C14.486,25.62 13.858,26.71 13.8609893,27.6 C13.863,28.5 14.495,28.86 15.269,28.41 C16.05,27.96 16.678,26.87 16.6760048,25.98 C16.673,25.08 16.041,24.72 15.26,25.17" id="Fill-1015" fill="#5E2D00" mask="url(#mask-4)"></path>
                    <path d="M15.278,31.43 C14.503,31.88 13.875,32.97 13.8779893,33.86 C13.881,34.75 14.513,35.11 15.287,34.67 C16.069,34.22 16.696,33.13 16.6940048,32.23 C16.691,31.34 16.059,30.98 15.278,31.43" id="Fill-1017" fill="#5E2D00" mask="url(#mask-4)"></path>
                </g>
                <polyline id="Fill-1019" fill="#9B4002" points="54.693 40.74 18.472 19.7 18.57 54.1 54.791 75.15 54.693 40.74"></polyline>
                <polyline id="Fill-1020" fill="#F78014" points="88.805 21.05 52.584 -1.0658141e-13 18.472 19.7 54.693 40.74 88.805 21.05"></polyline>
                <polyline id="Fill-1021" fill="#E27305" points="54.693 40.74 54.791 75.15 88.903 55.46 88.805 21.05 54.693 40.74"></polyline>
                <path d="M83.291,34.05 L75.534,38.53 C74.819,38.94 74.237,39.95 74.2389949,40.78 C74.241,41.6 74.828,41.94 75.543,41.53 L83.299,37.05 C84.015,36.63 84.597,35.62 84.5940115,34.8 C84.592,33.97 84.006,33.64 83.291,34.05" id="Fill-1022" fill="#3A3A3A"></path>
                <path d="M80.923,38.28 C80.274,38.65 79.747,38.34 79.7449943,37.6 C79.743,36.85 80.266,35.94 80.916,35.57 C81.565,35.19 82.098,35.49 82.1010056,36.24 C82.103,36.98 81.573,37.9 80.923,38.28 Z M83.291,34.05 L75.534,38.53 C74.819,38.94 74.237,39.95 74.2389949,40.78 C74.241,41.6 74.828,41.94 75.543,41.53 L83.299,37.05 C84.015,36.63 84.597,35.62 84.5940115,34.8 C84.592,33.97 84.006,33.64 83.291,34.05 L83.291,34.05 Z" id="Fill-1023" fill="#D8C9BA"></path>
                <path d="M68.02,42.87 L60.263,47.35 C59.548,47.76 58.965,48.77 58.9679885,49.59 C58.97,50.41 59.556,50.75 60.272,50.34 L68.029,45.86 C68.744,45.45 69.326,44.43 69.3240051,43.61 C69.322,42.79 68.735,42.46 68.02,42.87" id="Fill-1024" fill="#3A3A3A"></path>
                <path d="M65.653,47.1 C64.997,47.48 64.463,47.17 64.4609944,46.42 C64.459,45.67 64.989,44.76 65.645,44.38 C66.295,44 66.828,44.31 66.8300126,45.05 C66.833,45.81 66.302,46.72 65.653,47.1 Z M68.02,42.87 L60.263,47.35 C59.548,47.76 58.965,48.77 58.9679885,49.59 C58.97,50.41 59.556,50.75 60.272,50.34 L68.029,45.86 C68.744,45.45 69.326,44.43 69.3240051,43.61 C69.322,42.79 68.735,42.46 68.02,42.87 L68.02,42.87 Z" id="Fill-1025" fill="#D8C9BA"></path>
                <polyline id="Fill-1026" fill="#D36705" points="65.354 51.65 96.752 69.1 65.398 67.04 65.354 51.65"></polyline>
                <polyline id="Fill-1027" fill="#F78014" points="65.354 51.65 80.611 42.84 96.752 69.1 65.354 51.65"></polyline>
                <polyline id="Fill-1028" fill="#3A3A3A" points="92.863 62.77 89.082 64.84 96.752 69.1 92.863 62.77"></polyline>
                <polyline id="Fill-1029" fill="#232323" points="89.082 64.84 89.082 68.59 96.752 69.1 89.082 64.84"></polyline>
                <polyline id="Fill-1030" fill="#FC913A" points="63.623 3.21 60.725 1.52 53.475 20.04 56.373 21.73 63.623 3.21"></polyline>
                <polyline id="Fill-1031" fill="#E27305" points="65.08 2.36 62.182 0.68 60.725 1.52 63.623 3.21 65.08 2.36"></polyline>
                <polyline id="Fill-1032" fill="#C96409" points="63.623 3.21 56.373 21.73 72.418 12.46 65.08 2.36 63.623 3.21"></polyline>
                <polyline id="Fill-1033" fill="#FC913A" points="46.797 12.84 43.9 11.15 36.65 29.67 39.547 31.36 46.797 12.84"></polyline>
                <polyline id="Fill-1034" fill="#E27305" points="48.254 11.99 45.357 10.31 43.9 11.15 46.797 12.84 48.254 11.99"></polyline>
                <polyline id="Fill-1035" fill="#C96409" points="46.797 12.84 39.547 31.36 55.592 22.09 48.254 11.99 46.797 12.84"></polyline>
            </g>
        </g>
    </g>
</svg>