<?xml version="1.0" encoding="UTF-8"?>
<svg width="119px" height="75px" viewBox="0 0 119 75" version="1.1" xmlns="http://www.w3.org/2000/svg" xmlns:xlink="http://www.w3.org/1999/xlink">
    <title>Group 11</title>
    <g id="Page-1" stroke="none" stroke-width="1" fill="none" fill-rule="evenodd">
        <g id="28_R2FtZV9jaGlrZW4tMDE" transform="translate(-464.000000, -946.000000)">
            <g id="Group-11" transform="translate(464.816000, 946.188000)">
                <polyline id="Fill-732" fill="#85BC0C" points="117.67 34.074 117.656 39.102 59.02 73.182 59.034 68.152 117.67 34.074"></polyline>
                <polyline id="Fill-733" fill="#5C8308" points="59.034 68.152 59.02 73.182 0 39.102 0.014 34.075 59.034 68.152"></polyline>
                <polyline id="Fill-734" fill="#99D20D" points="117.67 34.074 59.034 68.152 0.014 34.075 58.65 2.84217094e-14 117.67 34.074"></polyline>
                <path d="M48.928,31.958 C48.99,31.977 50.161,32.341 51.837,33.309 C53.874,34.485 56.565,36.524 58.493,39.788 C62.012,45.732 61.17,48.771 61.126,48.931 L58.633,50.38 C58.677,50.22 59.518,47.18 56,41.237 C54.072,37.973 51.38,35.934 49.343,34.758 C47.667,33.791 46.496,33.426 46.434,33.407 L48.928,31.958" id="Fill-1323" fill="#5F8006"></path>
                <path d="M49.343,34.758 C47.667,33.791 46.496,33.426 46.434,33.407 C47.83,44.707 55.941,49.872 57.421,50.726 C57.57,50.812 57.648,50.852 57.652,50.855 L58.633,50.38 C58.677,50.22 59.518,47.18 56,41.237 C54.072,37.973 51.38,35.934 49.343,34.758" id="Fill-1324" fill="#8AB909"></path>
                <polyline id="Fill-1325" fill="#5F8006" points="60.922 59.202 63.415 57.752 63.475 36.329 60.982 37.778 60.922 59.202"></polyline>
                <polyline id="Fill-1326" fill="#99CE0A" points="60.982 37.778 63.475 36.329 60.715 34.735 58.22 36.183 60.982 37.778"></polyline>
                <polyline id="Fill-1327" fill="#8AB909" points="58.22 36.183 58.16 57.612 60.922 59.202 60.982 37.778 58.22 36.183"></polyline>
                <path d="M54.389,11.939 C56.177,10.901 58.651,11.048 61.385,12.627 C66.822,15.766 71.207,23.361 71.1890552,29.609 C71.18,32.71 70.088,34.89 68.323,35.916 L65.83,37.365 C67.595,36.339 68.687,34.159 68.696,31.058 C68.714,24.809 64.329,17.215 58.89,14.075 C56.158,12.498 53.682,12.35 51.896,13.388 L54.389,11.939" id="Fill-1328" fill="#ED9200"></path>
                <path d="M58.89,14.076 C53.459,10.939 49.045,13.454 49.0269507,19.703 C49.01,25.945 53.394,33.54 58.827,36.676 C64.264,39.816 68.679,37.3 68.6960552,31.058 C68.714,24.809 64.329,17.215 58.89,14.076" id="Fill-1329" fill="#FFA300"></path>
                <path d="M58.883,17.372 C55.034,15.15 51.908,16.931 51.8959593,21.358 C51.883,25.779 54.989,31.159 58.837,33.38 C62.689,35.604 65.815,33.823 65.8280406,29.401 C65.841,24.975 62.734,19.595 58.883,17.372" id="Fill-1330" fill="#8AB909"></path>
            </g>
        </g>
    </g>
</svg>