<?xml version="1.0" encoding="UTF-8"?>
<svg width="118px" height="75px" viewBox="0 0 118 75" version="1.1" xmlns="http://www.w3.org/2000/svg" xmlns:xlink="http://www.w3.org/1999/xlink">
    <title>Group 10</title>
    <g id="Page-1" stroke="none" stroke-width="1" fill="none" fill-rule="evenodd">
        <g id="28_R2FtZV9jaGlrZW4tMDE" transform="translate(-891.000000, -1062.000000)">
            <g id="Group-10" transform="translate(891.000000, 1062.000000)">
                <g id="Group" transform="translate(0.000000, 1.000000)">
                    <polyline id="Fill-750" fill="#85BC0C" points="58.65 0.13 58.635 5.16 -1.42108547e-14 39.23 0.014 34.2 58.65 0.13"></polyline>
                    <polyline id="Fill-1042" fill="#85BC0C" points="117.833 34.08 117.819 39.11 59.182 73.18 59.197 68.15 117.833 34.08"></polyline>
                    <polyline id="Fill-1043" fill="#5C8308" points="59.197 68.15 59.182 73.18 0.163 39.11 0.177 34.08 59.197 68.15"></polyline>
                    <polyline id="Fill-1044" fill="#99D20D" points="117.833 34.08 59.197 68.15 0.177 34.08 58.813 4.26325641e-14 117.833 34.08"></polyline>
                </g>
                <g id="Group-9" transform="translate(22.000000, 0.000000)">
                    <path d="M67.6611317,7.99743955 C66.4941317,9.30843955 65.3501317,10.4674395 64.2691317,11.6104395 C63.1921317,12.7594395 62.1781317,13.8844395 61.2301317,15.0444395 C60.2651317,16.1964395 59.4341317,17.4214395 58.6511317,18.7274395 C57.7961317,20.0214395 57.2181317,21.4564395 56.3651317,23.0294395 L56.3441317,23.0664395 C56.2321317,23.2734395 55.9731317,23.3504395 55.7661317,23.2384395 C55.6581317,23.1804395 55.5861317,23.0804395 55.5571317,22.9714395 C55.0961317,21.2174395 55.0421317,19.2894395 55.5441317,17.4894395 C56.0051317,15.6814395 56.8581317,13.9484395 58.0241317,12.4994395 C59.1691317,11.0314395 60.5751317,9.79143955 62.1551317,8.88043955 C63.7391317,7.97743955 65.4551317,7.32843955 67.3511317,7.25043955 C67.5881317,7.24043955 67.7881317,7.42443955 67.7981317,7.66243955 C67.8031317,7.77843955 67.7621317,7.88543955 67.6911317,7.96543955 L67.6611317,7.99743955" id="Fill-1356" fill="#63B50B"></path>
                    <path d="M43.7131317,3.63443955 C45.6281317,4.35243955 47.1961317,5.52943955 48.5871317,6.87943955 C49.9781317,8.23343955 51.1321317,9.82043955 52.0621317,11.5404395 C53.0091317,13.2484395 53.6611317,15.1424395 54.0291317,17.0804395 C54.3951317,19.0184395 54.3441317,21.0614395 53.8261317,22.9714395 C53.7641317,23.2004395 53.5291317,23.3344395 53.3011317,23.2724395 C53.1811317,23.2404395 53.0861317,23.1604395 53.0331317,23.0584395 L53.0191317,23.0294395 C52.1221317,21.2984395 51.4771317,19.7044395 50.6551317,18.1684395 C49.8621317,16.6354395 49.0981317,15.1294395 48.2311317,13.6524395 C47.3821317,12.1694395 46.5151317,10.6884395 45.6631317,9.14443955 C44.8041317,7.60443955 43.9431317,6.02143955 43.1761317,4.24043955 L43.1631317,4.21143955 C43.0701317,3.99243955 43.1701317,3.73743955 43.3901317,3.64243955 C43.4971317,3.59643955 43.6131317,3.59743955 43.7131317,3.63443955" id="Fill-1357" fill="#63B50B"></path>
                    <path d="M59.1741317,0.406439548 C59.4861317,2.55243955 59.3651317,4.47943955 59.1581317,6.37043955 C58.9571317,8.25943955 58.5301317,10.0674395 58.1241317,11.8864395 C57.7001317,13.7024395 57.3041317,15.5124395 56.8381317,17.3414395 C56.3771317,19.1754395 55.9461317,21.0124395 55.3221317,22.9714395 L55.3161317,22.9874395 C55.2441317,23.2134395 55.0021317,23.3384395 54.7771317,23.2664395 C54.6551317,23.2274395 54.5621317,23.1374395 54.5131317,23.0294395 C53.6781317,21.1224395 53.2391317,19.0824395 53.0921317,17.0554395 C52.9531317,15.0284395 53.0221317,12.9894395 53.3311317,11.0024395 C53.6351317,9.01543955 54.0711317,7.04643955 54.8911317,5.20143955 C55.2941317,4.27743955 55.7651317,3.37743955 56.3391317,2.52043955 C56.9131317,1.66343955 57.5641317,0.842439548 58.4201317,0.109439548 C58.6141317,-0.0545604515 58.9031317,-0.0315604515 59.0671317,0.160439548 L59.1721317,0.390439548 L59.1741317,0.406439548" id="Fill-1358" fill="#58960F"></path>
                    <path d="M35.6841317,43.7754395 C34.5171317,45.0854395 33.3721317,46.2444395 32.2911317,47.3874395 C31.2151317,48.5364395 30.2001317,49.6614395 29.2521317,50.8214395 C28.2871317,51.9734395 27.4561317,53.1984395 26.6741317,54.5054395 C25.8201317,55.7984395 25.2421317,57.2334395 24.3871317,58.8064395 L24.3671317,58.8434395 C24.2551317,59.0514395 23.9961317,59.1274395 23.7881317,59.0154395 C23.6821317,58.9564395 23.6091317,58.8574395 23.5791317,58.7484395 C23.1191317,56.9944395 23.0651317,55.0664395 23.5671317,53.2674395 C24.0291317,51.4584395 24.8801317,49.7254395 26.0461317,48.2764395 C27.1931317,46.8084395 28.5981317,45.5684395 30.1781317,44.6574395 C31.7611317,43.7554395 33.4781317,43.1054395 35.3731317,43.0274395 C35.6111317,43.0174395 35.8111317,43.2024395 35.8211317,43.4394395 C35.8251317,43.5554395 35.7841317,43.6624395 35.7131317,43.7424395 L35.6841317,43.7754395" id="Fill-1365" fill="#63B50B"></path>
                    <path d="M11.7371317,39.4124395 C13.6521317,40.1294395 15.2181317,41.3064395 16.6111317,42.6564395 C18.0001317,44.0104395 19.1551317,45.5974395 20.0841317,47.3174395 C21.0321317,49.0254395 21.6851317,50.9204395 22.0521317,52.8574395 C22.4181317,54.7964395 22.3671317,56.8384395 21.8491317,58.7484395 C21.7871317,58.9764395 21.5521317,59.1124395 21.3241317,59.0504395 C21.2031317,59.0174395 21.1101317,58.9364395 21.0561317,58.8344395 L21.0411317,58.8064395 C20.1451317,57.0754395 19.5001317,55.4814395 18.6771317,53.9454395 C17.8851317,52.4124395 17.1211317,50.9074395 16.2541317,49.4294395 C15.4051317,47.9464395 14.5371317,46.4664395 13.6861317,44.9214395 C12.8271317,43.3814395 11.9651317,41.7984395 11.1991317,40.0174395 L11.1871317,39.9894395 C11.0921317,39.7684395 11.1941317,39.5144395 11.4131317,39.4194395 C11.5201317,39.3734395 11.6351317,39.3744395 11.7371317,39.4124395" id="Fill-1366" fill="#63B50B"></path>
                    <path d="M27.1971317,36.1834395 C27.5091317,38.3294395 27.3881317,40.2564395 27.1811317,42.1474395 C26.9801317,44.0364395 26.5531317,45.8444395 26.1471317,47.6634395 C25.7231317,49.4794395 25.3261317,51.2894395 24.8611317,53.1184395 C24.4011317,54.9524395 23.9691317,56.7894395 23.3441317,58.7484395 L23.3391317,58.7644395 C23.2671317,58.9904395 23.0261317,59.1154395 22.7991317,59.0434395 C22.6771317,59.0044395 22.5841317,58.9144395 22.5361317,58.8064395 C21.7011317,56.8994395 21.2621317,54.8594395 21.1151317,52.8324395 C20.9761317,50.8054395 21.0451317,48.7664395 21.3541317,46.7794395 C21.6581317,44.7924395 22.0931317,42.8234395 22.9131317,40.9784395 C23.3171317,40.0544395 23.7881317,39.1544395 24.3631317,38.2974395 C24.9371317,37.4404395 25.5871317,36.6194395 26.4441317,35.8874395 C26.6361317,35.7224395 26.9251317,35.7454395 27.0901317,35.9374395 L27.1951317,36.1674395 L27.1971317,36.1834395" id="Fill-1367" fill="#58960F"></path>
                    <path d="M56.4031317,37.1084395 C55.2361317,38.4184395 54.0901317,39.5784395 53.0101317,40.7204395 C51.9331317,41.8694395 50.9181317,42.9944395 49.9711317,44.1544395 C49.0051317,45.3064395 48.1751317,46.5314395 47.3921317,47.8384395 C46.5371317,49.1324395 45.9591317,50.5664395 45.1061317,52.1394395 L45.0851317,52.1774395 C44.9731317,52.3844395 44.7141317,52.4604395 44.5071317,52.3484395 C44.4001317,52.2904395 44.3261317,52.1914395 44.2981317,52.0814395 C43.8371317,50.3274395 43.7831317,48.4004395 44.2851317,46.6004395 C44.7461317,44.7914395 45.5981317,43.0584395 46.7651317,41.6094395 C47.9101317,40.1424395 49.3171317,38.9014395 50.8961317,37.9914395 C52.4801317,37.0884395 54.1971317,36.4384395 56.0911317,36.3604395 C56.3281317,36.3504395 56.5301317,36.5354395 56.5391317,36.7724395 C56.5441317,36.8884395 56.5021317,36.9954395 56.4311317,37.0764395 L56.4031317,37.1084395" id="Fill-1377" fill="#63B50B"></path>
                    <path d="M32.4541317,32.7454395 C34.3691317,33.4624395 35.9371317,34.6394395 37.3281317,35.9894395 C38.7181317,37.3434395 39.8731317,38.9304395 40.8031317,40.6504395 C41.7491317,42.3594395 42.4031317,44.2534395 42.7701317,46.1904395 C43.1361317,48.1294395 43.0851317,50.1724395 42.5671317,52.0814395 C42.5051317,52.3104395 42.2701317,52.4454395 42.0411317,52.3834395 C41.9221317,52.3504395 41.8271317,52.2704395 41.7741317,52.1684395 L41.7591317,52.1394395 C40.8641317,50.4094395 40.2181317,48.8144395 39.3951317,47.2794395 C38.6031317,45.7464395 37.8391317,44.2404395 36.9721317,42.7624395 C36.1231317,41.2804395 35.2561317,39.7994395 34.4041317,38.2544395 C33.5451317,36.7154395 32.6841317,35.1314395 31.9171317,33.3504395 L31.9051317,33.3224395 C31.8101317,33.1024395 31.9111317,32.8474395 32.1311317,32.7524395 C32.2381317,32.7064395 32.3541317,32.7074395 32.4541317,32.7454395" id="Fill-1378" fill="#58960F"></path>
                    <path d="M47.9151317,29.5164395 C48.2271317,31.6634395 48.1061317,33.5894395 47.9001317,35.4804395 C47.6991317,37.3704395 47.2711317,39.1784395 46.8651317,40.9964395 C46.4421317,42.8124395 46.0451317,44.6224395 45.5791317,46.4514395 C45.1181317,48.2854395 44.6871317,50.1224395 44.0621317,52.0814395 L44.0571317,52.0984395 C43.9851317,52.3244395 43.7431317,52.4484395 43.5181317,52.3764395 C43.3961317,52.3374395 43.3021317,52.2474395 43.2541317,52.1394395 C42.4191317,50.2334395 41.9801317,48.1924395 41.8331317,46.1654395 C41.6951317,44.1394395 41.7631317,42.0994395 42.0721317,40.1134395 C42.3751317,38.1254395 42.8121317,36.1574395 43.6311317,34.3114395 C44.0351317,33.3884395 44.5061317,32.4884395 45.0801317,31.6314395 C45.6551317,30.7744395 46.3051317,29.9524395 47.1611317,29.2204395 C47.3541317,29.0554395 47.6441317,29.0784395 47.8081317,29.2704395 L47.9131317,29.5004395 L47.9151317,29.5164395" id="Fill-1379" fill="#58960F"></path>
                    <path d="M24.5331317,34.6334395 C23.3661317,35.9434395 22.2211317,37.1024395 21.1411317,38.2454395 C20.0641317,39.3944395 19.0491317,40.5194395 18.1011317,41.6794395 C17.1361317,42.8314395 16.3061317,44.0564395 15.5231317,45.3634395 C14.6681317,46.6574395 14.0901317,48.0914395 13.2371317,49.6644395 L13.2161317,49.7024395 C13.1041317,49.9094395 12.8451317,49.9854395 12.6371317,49.8734395 C12.5311317,49.8154395 12.4571317,49.7164395 12.4281317,49.6064395 C11.9681317,47.8524395 11.9131317,45.9254395 12.4151317,44.1244395 C12.8771317,42.3164395 13.7291317,40.5834395 14.8951317,39.1344395 C16.0411317,37.6664395 17.4471317,36.4264395 19.0271317,35.5164395 C20.6101317,34.6134395 22.3261317,33.9634395 24.2221317,33.8854395 C24.4591317,33.8754395 24.6591317,34.0594395 24.6691317,34.2974395 C24.6741317,34.4134395 24.6331317,34.5204395 24.5621317,34.6004395 L24.5331317,34.6334395" id="Fill-1380" fill="#63B50B"></path>
                    <path d="M0.585131662,30.2694395 C2.50013166,30.9874395 4.06713166,32.1644395 5.45913166,33.5144395 C6.84913166,34.8684395 8.00313166,36.4554395 8.93313166,38.1754395 C9.88013166,39.8844395 10.5331317,41.7784395 10.9011317,43.7154395 C11.2671317,45.6544395 11.2151317,47.6974395 10.6981317,49.6064395 C10.6361317,49.8344395 10.4011317,49.9704395 10.1721317,49.9084395 C10.0521317,49.8754395 9.95813166,49.7954395 9.90513166,49.6934395 L9.89013166,49.6644395 C8.99413166,47.9334395 8.34913166,46.3394395 7.52613166,44.8034395 C6.73413166,43.2704395 5.97013166,41.7654395 5.10313166,40.2874395 C4.25413166,38.8044395 3.38713166,37.3244395 2.53413166,35.7794395 C1.67613166,34.2404395 0.814131662,32.6564395 0.0471316618,30.8754395 L0.0351316618,30.8474395 C-0.0588683382,30.6274395 0.0421316618,30.3724395 0.262131662,30.2774395 C0.368131662,30.2314395 0.485131662,30.2324395 0.585131662,30.2694395" id="Fill-1381" fill="#63B50B"></path>
                    <path d="M16.0461317,27.0414395 C16.3581317,29.1874395 16.2371317,31.1144395 16.0311317,33.0054395 C15.8281317,34.8944395 15.4021317,36.7024395 14.9951317,38.5214395 C14.5721317,40.3374395 14.1751317,42.1474395 13.7091317,43.9754395 C13.2491317,45.8104395 12.8181317,47.6474395 12.1931317,49.6064395 L12.1881317,49.6224395 C12.1161317,49.8484395 11.8741317,49.9734395 11.6481317,49.9014395 C11.5261317,49.8624395 11.4331317,49.7724395 11.3851317,49.6644395 C10.5501317,47.7584395 10.1111317,45.7174395 9.96413166,43.6904395 C9.82513166,41.6634395 9.89413166,39.6234395 10.2021317,37.6384395 C10.5061317,35.6504395 10.9431317,33.6824395 11.7621317,31.8364395 C12.1661317,30.9124395 12.6371317,30.0134395 13.2111317,29.1554395 C13.7851317,28.2994395 14.4361317,27.4774395 15.2921317,26.7454395 C15.4851317,26.5804395 15.7741317,26.6024395 15.9391317,26.7954395 L16.0431317,27.0254395 L16.0461317,27.0414395" id="Fill-1382" fill="#58960F"></path>
                    <path d="M43.5081317,15.7824395 C42.3411317,17.0934395 41.1961317,18.2524395 40.1161317,19.3944395 C39.0381317,20.5434395 38.0241317,21.6694395 37.0761317,22.8294395 C36.1111317,23.9804395 35.2811317,25.2054395 34.4971317,26.5124395 C33.6431317,27.8064395 33.0651317,29.2414395 32.2111317,30.8134395 L32.1911317,30.8514395 C32.0781317,31.0584395 31.8201317,31.1354395 31.6131317,31.0224395 C31.5051317,30.9644395 31.4321317,30.8654395 31.4041317,30.7564395 C30.9431317,29.0014395 30.8881317,27.0744395 31.3911317,25.2744395 C31.8521317,23.4664395 32.7031317,21.7334395 33.8701317,20.2844395 C35.0161317,18.8164395 36.4221317,17.5764395 38.0011317,16.6654395 C39.5851317,15.7624395 41.3021317,15.1134395 43.1971317,15.0354395 C43.4341317,15.0254395 43.6351317,15.2094395 43.6451317,15.4474395 C43.6501317,15.5624395 43.6081317,15.6694395 43.5361317,15.7504395 L43.5081317,15.7824395" id="Fill-1389" fill="#58960F"></path>
                    <path d="M19.5601317,11.4194395 C21.4751317,12.1374395 23.0421317,13.3144395 24.4341317,14.6634395 C25.8241317,16.0174395 26.9791317,17.6044395 27.9081317,19.3254395 C28.8551317,21.0334395 29.5081317,22.9274395 29.8751317,24.8654395 C30.2421317,26.8034395 30.1911317,28.8464395 29.6721317,30.7564395 C29.6111317,30.9844395 29.3751317,31.1194395 29.1471317,31.0574395 C29.0281317,31.0254395 28.9331317,30.9444395 28.8791317,30.8424395 L28.8651317,30.8134395 C27.9691317,29.0834395 27.3241317,27.4894395 26.5001317,25.9534395 C25.7081317,24.4204395 24.9451317,22.9144395 24.0771317,21.4364395 C23.2291317,19.9544395 22.3621317,18.4734395 21.5091317,16.9294395 C20.6511317,15.3894395 19.7891317,13.8064395 19.0231317,12.0254395 L19.0101317,11.9964395 C18.9151317,11.7764395 19.0171317,11.5214395 19.2371317,11.4274395 C19.3431317,11.3814395 19.4591317,11.3824395 19.5601317,11.4194395" id="Fill-1390" fill="#63B50B"></path>
                    <path d="M35.0211317,8.19043955 C35.3321317,10.3374395 35.2111317,12.2644395 35.0051317,14.1554395 C34.8041317,16.0444395 34.3761317,17.8524395 33.9701317,19.6704395 C33.5471317,21.4874395 33.1511317,23.2964395 32.6851317,25.1254395 C32.2241317,26.9594395 31.7921317,28.7974395 31.1671317,30.7564395 L31.1621317,30.7724395 C31.0901317,30.9984395 30.8491317,31.1224395 30.6231317,31.0514395 C30.5011317,31.0124395 30.4081317,30.9224395 30.3601317,30.8134395 C29.5251317,28.9074395 29.0851317,26.8674395 28.9391317,24.8404395 C28.8001317,22.8134395 28.8681317,20.7734395 29.1771317,18.7874395 C29.4811317,16.8004395 29.9171317,14.8314395 30.7371317,12.9854395 C31.1411317,12.0624395 31.6121317,11.1624395 32.1861317,10.3054395 C32.7601317,9.44843955 33.4101317,8.62643955 34.2671317,7.89443955 C34.4591317,7.72943955 34.7491317,7.75243955 34.9131317,7.94543955 L35.0191317,8.17543955 L35.0211317,8.19043955" id="Fill-1391" fill="#63B50B"></path>
                </g>
            </g>
        </g>
    </g>
</svg>