<?xml version="1.0" encoding="UTF-8"?>
<svg width="119px" height="75px" viewBox="0 0 119 75" version="1.1" xmlns="http://www.w3.org/2000/svg" xmlns:xlink="http://www.w3.org/1999/xlink">
    <title>Group 10</title>
    <g id="Page-1" stroke="none" stroke-width="1" fill="none" fill-rule="evenodd">
        <g id="28_R2FtZV9jaGlrZW4tMDE" transform="translate(-287.000000, -913.000000)">
            <g id="Group-10" transform="translate(287.978000, 913.459000)">
                <polyline id="Fill-729" fill="#85BC0C" points="117.67 34.075 117.656 39.103 59.019 73.179 59.034 68.151 117.67 34.075"></polyline>
                <polyline id="Fill-730" fill="#5C8308" points="59.034 68.151 59.019 73.179 0 39.104 0.014 34.076 59.034 68.151"></polyline>
                <polyline id="Fill-731" fill="#99D20D" points="117.67 34.075 59.034 68.151 0.014 34.076 58.65 2.84217094e-14 117.67 34.075"></polyline>
                <path d="M41.02,20.584 C39.853,21.895 38.708,23.054 37.627,24.196 C36.551,25.346 35.536,26.471 34.588,27.63 C33.623,28.782 32.792,30.007 32.01,31.314 C31.155,32.608 30.577,34.043 29.723,35.615 L29.703,35.653 C29.59,35.86 29.331,35.937 29.124,35.824 C29.017,35.767 28.944,35.667 28.915,35.558 C28.455,33.804 28.4,31.876 28.903,30.076 C29.364,28.268 30.216,26.535 31.382,25.085 C32.528,23.618 33.934,22.378 35.514,21.467 C37.097,20.564 38.814,19.915 40.709,19.836 C40.946,19.826 41.147,20.011 41.157,20.248 C41.162,20.364 41.12,20.472 41.049,20.552 L41.02,20.584" id="Fill-1353" fill="#63B50B"></path>
                <path d="M17.072,16.221 C18.987,16.939 20.554,18.115 21.946,19.465 C23.336,20.819 24.491,22.406 25.42,24.126 C26.367,25.835 27.02,27.73 27.388,29.667 C27.754,31.606 27.702,33.648 27.184,35.558 C27.123,35.786 26.888,35.921 26.659,35.859 C26.539,35.827 26.445,35.746 26.392,35.645 L26.377,35.615 C25.481,33.885 24.835,32.291 24.013,30.755 C23.22,29.222 22.457,27.716 21.59,26.238 C20.741,24.756 19.873,23.275 19.021,21.731 C18.163,20.191 17.301,18.607 16.535,16.827 L16.522,16.798 C16.428,16.578 16.529,16.323 16.749,16.229 C16.855,16.183 16.971,16.184 17.072,16.221" id="Fill-1354" fill="#63B50B"></path>
                <path d="M32.533,12.992 C32.844,15.139 32.723,17.065 32.517,18.957 C32.316,20.846 31.889,22.654 31.482,24.473 C31.059,26.289 30.663,28.099 30.197,29.928 C29.736,31.762 29.304,33.599 28.68,35.558 L28.675,35.573 C28.602,35.8 28.361,35.925 28.135,35.853 C28.013,35.814 27.92,35.724 27.871,35.615 C27.037,33.709 26.598,31.669 26.451,29.642 C26.312,27.614 26.381,25.575 26.689,23.589 C26.993,21.602 27.429,19.633 28.249,17.787 C28.653,16.863 29.124,15.964 29.698,15.106 C30.272,14.25 30.923,13.429 31.779,12.696 C31.972,12.531 32.261,12.554 32.426,12.746 L32.531,12.977 L32.533,12.992" id="Fill-1355" fill="#58960F"></path>
                <path d="M69.438,45.94 C68.271,47.25 67.126,48.409 66.046,49.553 C64.969,50.701 63.954,51.826 63.007,52.986 C62.042,54.139 61.211,55.363 60.428,56.67 C59.574,57.964 58.996,59.398 58.142,60.972 L58.121,61.009 C58.009,61.216 57.75,61.293 57.543,61.181 C57.436,61.122 57.363,61.023 57.334,60.914 C56.873,59.159 56.819,57.231 57.321,55.432 C57.783,53.623 58.634,51.891 59.801,50.441 C60.947,48.974 62.352,47.733 63.932,46.822 C65.516,45.92 67.232,45.271 69.127,45.192 C69.365,45.183 69.565,45.367 69.575,45.605 C69.58,45.72 69.538,45.827 69.467,45.907 L69.438,45.94" id="Fill-1392" fill="#58960F"></path>
                <path d="M45.491,41.577 C47.406,42.294 48.973,43.472 50.365,44.821 C51.754,46.176 52.909,47.763 53.839,49.482 C54.786,51.191 55.439,53.085 55.806,55.022 C56.172,56.961 56.121,59.004 55.603,60.914 C55.541,61.142 55.306,61.277 55.078,61.215 C54.958,61.183 54.864,61.103 54.81,61 L54.795,60.972 C53.899,59.24 53.254,57.647 52.431,56.11 C51.639,54.578 50.875,53.072 50.008,51.595 C49.159,50.111 48.292,48.631 47.44,47.087 C46.581,45.547 45.72,43.963 44.953,42.183 L44.941,42.154 C44.846,41.935 44.948,41.68 45.167,41.585 C45.274,41.539 45.39,41.539 45.491,41.577" id="Fill-1393" fill="#63B50B"></path>
                <path d="M60.951,38.349 C61.263,40.494 61.142,42.422 60.935,44.313 C60.734,46.201 60.307,48.01 59.901,49.828 C59.477,51.645 59.081,53.454 58.615,55.283 C58.155,57.117 57.723,58.955 57.098,60.914 L57.093,60.93 C57.021,61.155 56.78,61.28 56.554,61.208 C56.432,61.17 56.338,61.08 56.29,60.972 C55.455,59.064 55.016,57.024 54.869,54.998 C54.73,52.971 54.799,50.931 55.108,48.945 C55.412,46.958 55.848,44.988 56.667,43.144 C57.071,42.22 57.542,41.319 58.116,40.463 C58.69,39.606 59.341,38.784 60.198,38.052 C60.39,37.888 60.68,37.91 60.844,38.103 L60.949,38.333 L60.951,38.349" id="Fill-1394" fill="#63B50B"></path>
            </g>
        </g>
    </g>
</svg>