<?xml version="1.0" encoding="UTF-8"?>
<svg width="118px" height="74px" viewBox="0 0 118 74" version="1.1" xmlns="http://www.w3.org/2000/svg" xmlns:xlink="http://www.w3.org/1999/xlink">
    <title>Group 2</title>
    <g id="Page-1" stroke="none" stroke-width="1" fill="none" fill-rule="evenodd">
        <g id="28_R2FtZV9jaGlrZW4tMDE" transform="translate(-891.000000, -1063.000000)">
            <g id="Group-2" transform="translate(891.000000, 1063.000000)">
                <g id="Group">
                    <polyline id="Fill-750" fill="#85BC0C" points="58.65 0.13 58.635 5.16 -1.42108547e-14 39.23 0.014 34.2 58.65 0.13"></polyline>
                    <polyline id="Fill-1042" fill="#85BC0C" points="117.833 34.08 117.819 39.11 59.182 73.18 59.197 68.15 117.833 34.08"></polyline>
                    <polyline id="Fill-1043" fill="#5C8308" points="59.197 68.15 59.182 73.18 0.163 39.11 0.177 34.08 59.197 68.15"></polyline>
                    <polyline id="Fill-1044" fill="#99D20D" points="117.833 34.08 59.197 68.15 0.177 34.08 58.813 4.26325641e-14 117.833 34.08"></polyline>
                </g>
                <path d="M111.532988,23.9998631 C110.365988,25.3098631 109.220988,26.4698631 108.140988,27.6098631 C107.063988,28.7598631 106.049988,29.8798631 105.101988,31.0398631 C104.135988,32.1998631 103.305988,33.4198631 102.522988,34.7298631 C101.668988,36.0198631 101.089988,37.4598631 100.236988,39.0298631 L100.216988,39.0698631 C100.103988,39.2698631 99.8449881,39.3498631 99.6379881,39.2398631 C99.5299881,39.1798631 99.4579881,39.0798631 99.4289881,38.9698631 C98.9679881,37.2198631 98.9139881,35.2898631 99.4159881,33.4898631 C99.8769881,31.6798631 100.728988,29.9498631 101.895988,28.4998631 C103.040988,27.0298631 104.446988,25.7898631 106.026988,24.8798631 C107.610988,23.9798631 109.326988,23.3298631 111.221988,23.2498631 C111.459988,23.2398631 111.659988,23.4298631 111.669988,23.6598631 C111.674988,23.7798631 111.632988,23.8898631 111.561988,23.9698631 L111.532988,23.9998631" id="Fill-1350" fill="#63B50B"></path>
                <path d="M87.5859881,19.6398631 C89.5009881,20.3498631 91.0679881,21.5298631 92.4599881,22.8798631 C93.8489881,24.2298631 95.0039881,25.8198631 95.9329881,27.5398631 C96.8809881,29.2498631 97.5329881,31.1398631 97.9009881,33.0798631 C98.2669881,35.0198631 98.2159881,37.0598631 97.6979881,38.9698631 C97.6359881,39.1998631 97.4009881,39.3398631 97.1729881,39.2698631 C97.0519881,39.2398631 96.9579881,39.1598631 96.9049881,39.0598631 L96.8899881,39.0298631 C95.9939881,37.2998631 95.3489881,35.6998631 94.5259881,34.1698631 C93.7339881,32.6398631 92.9699881,31.1298631 92.1029881,29.6498631 C91.2539881,28.1698631 90.3869881,26.6898631 89.5349881,25.1398631 C88.6759881,23.5998631 87.8149881,22.0198631 87.0479881,20.2398631 L87.0349881,20.2098631 C86.9409881,19.9898631 87.0429881,19.7398631 87.2619881,19.6398631 C87.3689881,19.5998631 87.4849881,19.5998631 87.5859881,19.6398631" id="Fill-1351" fill="#58960F"></path>
                <path d="M103.045988,16.4068631 C103.357988,18.5498631 103.236988,20.4798631 103.029988,22.3698631 C102.828988,24.2598631 102.401988,26.0698631 101.995988,27.8898631 C101.571988,29.6998631 101.175988,31.5098631 100.709988,33.3398631 C100.248988,35.1798631 99.8179881,37.0098631 99.1929881,38.9698631 L99.1879881,38.9898631 C99.1159881,39.2098631 98.8739881,39.3398631 98.6479881,39.2698631 C98.5269881,39.2298631 98.4329881,39.1398631 98.3849881,39.0298631 C97.5499881,37.1198631 97.1109881,35.0798631 96.9639881,33.0598631 C96.8249881,31.0298631 96.8939881,28.9898631 97.2029881,26.9998631 C97.5069881,25.0198631 97.9429881,23.0498631 98.7619881,21.1998631 C99.1659881,20.2798631 99.6369881,19.3798631 100.210988,18.5198631 C100.784988,17.6598631 101.435988,16.8418631 102.292988,16.1098631 C102.484988,15.9458631 102.774988,15.9678631 102.938988,16.1598631 L103.043988,16.3908631 L103.045988,16.4068631" id="Fill-1352" fill="#63B50B"></path>
            </g>
        </g>
    </g>
</svg>