<?xml version="1.0" encoding="UTF-8"?>
<svg width="118px" height="74px" viewBox="0 0 118 74" version="1.1" xmlns="http://www.w3.org/2000/svg" xmlns:xlink="http://www.w3.org/1999/xlink">
    <title>Group 10</title>
    <g id="Page-1" stroke="none" stroke-width="1" fill="none" fill-rule="evenodd">
        <g id="28_R2FtZV9jaGlrZW4tMDE" transform="translate(-891.000000, -1063.000000)">
            <g id="Group-10" transform="translate(891.000000, 1063.000000)">
                <g id="Group">
                    <polyline id="Fill-750" fill="#85BC0C" points="58.65 0.13 58.635 5.16 -1.42108547e-14 39.23 0.014 34.2 58.65 0.13"></polyline>
                    <polyline id="Fill-1042" fill="#85BC0C" points="117.833 34.08 117.819 39.11 59.182 73.18 59.197 68.15 117.833 34.08"></polyline>
                    <polyline id="Fill-1043" fill="#5C8308" points="59.197 68.15 59.182 73.18 0.163 39.11 0.177 34.08 59.197 68.15"></polyline>
                    <polyline id="Fill-1044" fill="#99D20D" points="117.833 34.08 59.197 68.15 0.177 34.08 58.813 4.26325641e-14 117.833 34.08"></polyline>
                </g>
                <path d="M55.2612721,28.6225 C56.7002721,29.4535 56.7072721,30.8005 55.2772721,31.6315 C53.8482721,32.4615 51.5232721,32.4615 50.0852721,31.6315 C48.6452721,30.8005 48.6372721,29.4535 50.0672721,28.6225 C51.4972721,27.7925 53.8222721,27.7925 55.2612721,28.6225" id="Fill-140" fill="#80AD1F"></path>
                <path d="M72.4375069,40.24375 C74.3635069,41.35575 74.3725069,43.15775 72.4585069,44.26975 C70.5465069,45.38175 67.4345069,45.38175 65.5095069,44.26975 C63.5825069,43.15775 63.5735069,41.35575 65.4865069,40.24375 C67.3995069,39.13175 70.5115069,39.13175 72.4375069,40.24375" id="Fill-141" fill="#80AD1F"></path>
                <path d="M69.9395069,29.11075 C71.3775069,29.94175 71.3855069,31.28875 69.9555069,32.11975 C68.5275069,32.94975 66.2025069,32.94975 64.7635069,32.11975 C63.3245069,31.28875 63.3165069,29.94175 64.7465069,29.11075 C66.1755069,28.28075 68.5005069,28.28075 69.9395069,29.11075" id="Fill-142" fill="#80AD1F"></path>
                <path d="M60.0645069,36.37775 C60.7445069,36.77075 60.7475069,37.40775 60.0715069,37.80075 C59.3955069,38.19375 58.2955069,38.19375 57.6165069,37.80075 C56.9355069,37.40775 56.9315069,36.77075 57.6075069,36.37775 C58.2845069,35.98475 59.3835069,35.98475 60.0645069,36.37775" id="Fill-143" fill="#80AD1F"></path>
                <path d="M35.96151,36.29475 C36.64151,36.68775 36.64451,37.32475 35.96851,37.71775 C35.29351,38.11075 34.19351,38.11075 33.51251,37.71775 C32.83251,37.32475 32.82851,36.68775 33.50451,36.29475 C34.18051,35.90175 35.28051,35.90175 35.96151,36.29475" id="Fill-144" fill="#80AD1F"></path>
                <path d="M41.7275069,25.93975 C42.8525069,26.58875 42.8585069,27.64175 41.7405069,28.29175 C40.6215069,28.94175 38.8035069,28.94175 37.6785069,28.29175 C36.5535069,27.64175 36.5475069,26.58875 37.6645069,25.93975 C38.7835069,25.28975 40.6015069,25.28975 41.7275069,25.93975" id="Fill-145" fill="#80AD1F"></path>
                <path d="M76.8495069,35.37175 C77.5295069,35.76475 77.5335069,36.40175 76.8575069,36.79475 C76.1805069,37.18775 75.0805069,37.18775 74.4015069,36.79475 C73.7205069,36.40175 73.7165069,35.76475 74.3925069,35.37175 C75.0695069,34.97875 76.1685069,34.97875 76.8495069,35.37175" id="Fill-146" fill="#80AD1F"></path>
                <path d="M89.9613867,40.29475 C90.6413867,40.68775 90.6453867,41.32475 89.9693867,41.71775 C89.2923867,42.11075 88.1933867,42.11075 87.5133867,41.71775 C86.8323867,41.32475 86.8283867,40.68775 87.5043867,40.29475 C88.1813867,39.90175 89.2813867,39.90175 89.9613867,40.29475" id="Fill-147" fill="#80AD1F"></path>
                <path d="M56.96151,46.29475 C57.64051,46.68775 57.64451,47.32475 56.96851,47.71775 C56.29251,48.11075 55.19251,48.11075 54.51251,47.71775 C53.83251,47.32475 53.82851,46.68775 54.50451,46.29475 C55.18051,45.90175 56.28051,45.90175 56.96151,46.29475" id="Fill-148" fill="#80AD1F"></path>
                <path d="M50.9605069,19.29475 C51.6415069,19.68775 51.6455069,20.32375 50.9685069,20.71675 C50.2925069,21.10975 49.1935069,21.10975 48.5125069,20.71675 C47.8315069,20.32375 47.8295069,19.68775 48.5045069,19.29475 C49.1805069,18.90175 50.2805069,18.90175 50.9605069,19.29475" id="Fill-149" fill="#80AD1F"></path>
                <path d="M48.3435069,38.69875 C49.0245069,39.09075 49.0275069,39.72875 48.3515069,40.12175 C47.6755069,40.51375 46.5765069,40.51375 45.8955069,40.12175 C45.2145069,39.72875 45.2105069,39.09075 45.8875069,38.69875 C46.5635069,38.30575 47.6635069,38.30575 48.3435069,38.69875" id="Fill-150" fill="#80AD1F"></path>
            </g>
        </g>
    </g>
</svg>