<?xml version="1.0" encoding="UTF-8"?>
<svg width="118px" height="74px" viewBox="0 0 118 74" version="1.1" xmlns="http://www.w3.org/2000/svg" xmlns:xlink="http://www.w3.org/1999/xlink">
    <title>Group 3</title>
    <g id="Page-1" stroke="none" stroke-width="1" fill="none" fill-rule="evenodd">
        <g id="28_R2FtZV9jaGlrZW4tMDE" transform="translate(-891.000000, -1063.000000)">
            <g id="Group-3" transform="translate(891.000000, 1063.000000)">
                <g id="Group">
                    <polyline id="Fill-750" fill="#85BC0C" points="58.65 0.13 58.635 5.16 -1.42108547e-14 39.23 0.014 34.2 58.65 0.13"></polyline>
                    <polyline id="Fill-1042" fill="#85BC0C" points="117.833 34.08 117.819 39.11 59.182 73.18 59.197 68.15 117.833 34.08"></polyline>
                    <polyline id="Fill-1043" fill="#5C8308" points="59.197 68.15 59.182 73.18 0.163 39.11 0.177 34.08 59.197 68.15"></polyline>
                    <polyline id="Fill-1044" fill="#99D20D" points="117.833 34.08 59.197 68.15 0.177 34.08 58.813 4.26325641e-14 117.833 34.08"></polyline>
                </g>
                <g id="Group-2" transform="translate(19.000000, 12.000000)">
                    <path d="M24.5331317,7.99827189 C23.3661317,9.30927189 22.2211317,10.4682719 21.1401317,11.6102719 C20.0641317,12.7602719 19.0491317,13.8852719 18.1011317,15.0442719 C17.1361317,16.1962719 16.3051317,17.4212719 15.5231317,18.7282719 C14.6681317,20.0222719 14.0901317,21.4572719 13.2361317,23.0292719 L13.2161317,23.0672719 C13.1031317,23.2742719 12.8441317,23.3512719 12.6371317,23.2382719 C12.5301317,23.1812719 12.4571317,23.0812719 12.4281317,22.9722719 C11.9681317,21.2182719 11.9131317,19.2902719 12.4161317,17.4902719 C12.8771317,15.6822719 13.7291317,13.9492719 14.8951317,12.4992719 C16.0411317,11.0322719 17.4471317,9.79227189 19.0271317,8.88127189 C20.6101317,7.97827189 22.3271317,7.32927189 24.2221317,7.25027189 C24.4591317,7.24027189 24.6601317,7.42527189 24.6701317,7.66227189 C24.6751317,7.77827189 24.6331317,7.88627189 24.5621317,7.96627189 L24.5331317,7.99827189" id="Fill-1353" fill="#63B50B"></path>
                    <path d="M0.585131662,3.63527189 C2.50013166,4.35327189 4.06713166,5.52927189 5.45913166,6.87927189 C6.84913166,8.23327189 8.00413166,9.82027189 8.93313166,11.5402719 C9.88013166,13.2492719 10.5331317,15.1442719 10.9011317,17.0812719 C11.2671317,19.0202719 11.2151317,21.0622719 10.6971317,22.9722719 C10.6361317,23.2002719 10.4011317,23.3352719 10.1721317,23.2732719 C10.0521317,23.2412719 9.95813166,23.1602719 9.90513166,23.0592719 L9.89013166,23.0292719 C8.99413166,21.2992719 8.34813166,19.7052719 7.52613166,18.1692719 C6.73313166,16.6362719 5.97013166,15.1302719 5.10313166,13.6522719 C4.25413166,12.1702719 3.38613166,10.6892719 2.53413166,9.14527189 C1.67613166,7.60527189 0.814131662,6.02127189 0.0481316618,4.24127189 L0.0351316618,4.21227189 C-0.0588683382,3.99227189 0.0421316618,3.73727189 0.262131662,3.64327189 C0.368131662,3.59727189 0.484131662,3.59827189 0.585131662,3.63527189" id="Fill-1354" fill="#63B50B"></path>
                    <path d="M16.0461317,0.406271894 C16.3571317,2.55327189 16.2361317,4.47927189 16.0301317,6.37127189 C15.8291317,8.26027189 15.4021317,10.0682719 14.9951317,11.8872719 C14.5721317,13.7032719 14.1761317,15.5132719 13.7101317,17.3422719 C13.2491317,19.1762719 12.8171317,21.0132719 12.1931317,22.9722719 L12.1881317,22.9872719 C12.1151317,23.2142719 11.8741317,23.3392719 11.6481317,23.2672719 C11.5261317,23.2282719 11.4331317,23.1382719 11.3841317,23.0292719 C10.5501317,21.1232719 10.1111317,19.0832719 9.96413166,17.0562719 C9.82513166,15.0282719 9.89413166,12.9892719 10.2021317,11.0032719 C10.5061317,9.01627189 10.9421317,7.04727189 11.7621317,5.20127189 C12.1661317,4.27727189 12.6371317,3.37827189 13.2111317,2.52027189 C13.7851317,1.66427189 14.4361317,0.843271894 15.2921317,0.110271894 C15.4851317,-0.0547281057 15.7741317,-0.0317281057 15.9391317,0.160271894 L16.0441317,0.391271894 L16.0461317,0.406271894" id="Fill-1355" fill="#58960F"></path>
                    <path d="M52.9511317,33.3542719 C51.7841317,34.6642719 50.6391317,35.8232719 49.5591317,36.9672719 C48.4821317,38.1152719 47.4671317,39.2402719 46.5201317,40.4002719 C45.5551317,41.5532719 44.7241317,42.7772719 43.9411317,44.0842719 C43.0871317,45.3782719 42.5091317,46.8122719 41.6551317,48.3862719 L41.6341317,48.4232719 C41.5221317,48.6302719 41.2631317,48.7072719 41.0561317,48.5952719 C40.9491317,48.5362719 40.8761317,48.4372719 40.8471317,48.3282719 C40.3861317,46.5732719 40.3321317,44.6452719 40.8341317,42.8462719 C41.2961317,41.0372719 42.1471317,39.3052719 43.3141317,37.8552719 C44.4601317,36.3882719 45.8651317,35.1472719 47.4451317,34.2362719 C49.0291317,33.3342719 50.7451317,32.6852719 52.6401317,32.6062719 C52.8781317,32.5972719 53.0781317,32.7812719 53.0881317,33.0192719 C53.0931317,33.1342719 53.0511317,33.2412719 52.9801317,33.3212719 L52.9511317,33.3542719" id="Fill-1392" fill="#58960F"></path>
                    <path d="M29.0041317,28.9912719 C30.9191317,29.7082719 32.4861317,30.8862719 33.8781317,32.2352719 C35.2671317,33.5902719 36.4221317,35.1772719 37.3521317,36.8962719 C38.2991317,38.6052719 38.9521317,40.4992719 39.3191317,42.4362719 C39.6851317,44.3752719 39.6341317,46.4182719 39.1161317,48.3282719 C39.0541317,48.5562719 38.8191317,48.6912719 38.5911317,48.6292719 C38.4711317,48.5972719 38.3771317,48.5172719 38.3231317,48.4142719 L38.3081317,48.3862719 C37.4121317,46.6542719 36.7671317,45.0612719 35.9441317,43.5242719 C35.1521317,41.9922719 34.3881317,40.4862719 33.5211317,39.0092719 C32.6721317,37.5252719 31.8051317,36.0452719 30.9531317,34.5012719 C30.0941317,32.9612719 29.2331317,31.3772719 28.4661317,29.5972719 L28.4541317,29.5682719 C28.3591317,29.3492719 28.4611317,29.0942719 28.6801317,28.9992719 C28.7871317,28.9532719 28.9031317,28.9532719 29.0041317,28.9912719" id="Fill-1393" fill="#63B50B"></path>
                    <path d="M44.4641317,25.7632719 C44.7761317,27.9082719 44.6551317,29.8362719 44.4481317,31.7272719 C44.2471317,33.6152719 43.8201317,35.4242719 43.4141317,37.2422719 C42.9901317,39.0592719 42.5941317,40.8682719 42.1281317,42.6972719 C41.6681317,44.5312719 41.2361317,46.3692719 40.6111317,48.3282719 L40.6061317,48.3442719 C40.5341317,48.5692719 40.2931317,48.6942719 40.0671317,48.6222719 C39.9451317,48.5842719 39.8511317,48.4942719 39.8031317,48.3862719 C38.9681317,46.4782719 38.5291317,44.4382719 38.3821317,42.4122719 C38.2431317,40.3852719 38.3121317,38.3452719 38.6211317,36.3592719 C38.9251317,34.3722719 39.3611317,32.4022719 40.1801317,30.5582719 C40.5841317,29.6342719 41.0551317,28.7332719 41.6291317,27.8772719 C42.2031317,27.0202719 42.8541317,26.1982719 43.7111317,25.4662719 C43.9031317,25.3022719 44.1931317,25.3242719 44.3571317,25.5172719 L44.4621317,25.7472719 L44.4641317,25.7632719" id="Fill-1394" fill="#63B50B"></path>
                </g>
            </g>
        </g>
    </g>
</svg>