<?xml version="1.0" encoding="UTF-8"?>
<svg width="118px" height="99px" viewBox="0 0 118 99" version="1.1" xmlns="http://www.w3.org/2000/svg" xmlns:xlink="http://www.w3.org/1999/xlink">
    <title>Group 13</title>
    <g id="Page-1" stroke="none" stroke-width="1" fill="none" fill-rule="evenodd">
        <g id="28_R2FtZV9jaGlrZW4tMDE" transform="translate(-689.000000, -591.000000)">
            <g id="Group-13" transform="translate(689.000000, 591.000000)">
                <polyline id="Fill-717" fill="#85BC0C" points="58.768 23.672 58.754 28.7 0.118 62.775 0.132 57.747 58.768 23.672"></polyline>
                <polyline id="Fill-720" fill="#85BC0C" points="117.734 34.07 117.648 64.236 59.012 98.311 59.097 68.146 117.734 34.07"></polyline>
                <polyline id="Fill-721" fill="#5C8308" points="59.097 68.146 59.012 98.311 0 64.241 0.085 34.075 59.097 68.146"></polyline>
                <polyline id="Fill-722" fill="#99D20D" points="117.734 34.07 59.097 68.146 0.085 34.075 58.721 0 117.734 34.07"></polyline>
                <path d="M70.782,44.526 C69.615,45.836 68.47,46.995 67.389,48.138 C66.313,49.287 65.298,50.412 64.35,51.572 C63.385,52.724 62.554,53.949 61.771,55.256 C60.917,56.55 60.338,57.984 59.485,59.557 L59.465,59.595 C59.352,59.802 59.093,59.878 58.886,59.766 C58.779,59.708 58.706,59.609 58.677,59.499 C58.216,57.745 58.162,55.818 58.664,54.017 C59.125,52.209 59.978,50.476 61.144,49.027 C62.289,47.559 63.696,46.319 65.276,45.409 C66.859,44.506 68.576,43.856 70.471,43.778 C70.708,43.768 70.909,43.952 70.918,44.19 C70.923,44.306 70.882,44.413 70.811,44.493 L70.782,44.526" id="Fill-1338" fill="#63B50B"></path>
                <path d="M46.833,40.162 C48.748,40.88 50.316,42.057 51.708,43.407 C53.098,44.761 54.252,46.348 55.182,48.068 C56.129,49.777 56.782,51.671 57.15,53.608 C57.515,55.547 57.464,57.59 56.947,59.499 C56.884,59.728 56.649,59.863 56.421,59.801 C56.301,59.768 56.206,59.688 56.154,59.586 L56.139,59.557 C55.243,57.826 54.597,56.232 53.775,54.697 C52.982,53.163 52.219,51.658 51.351,50.18 C50.502,48.697 49.635,47.217 48.784,45.672 C47.924,44.133 47.063,42.549 46.296,40.768 L46.284,40.74 C46.19,40.52 46.29,40.265 46.51,40.17 C46.618,40.124 46.733,40.125 46.833,40.162" id="Fill-1339" fill="#63B50B"></path>
                <path d="M62.294,36.934 C62.606,39.08 62.485,41.007 62.279,42.898 C62.078,44.787 61.651,46.596 61.245,48.414 C60.821,50.23 60.424,52.04 59.958,53.869 C59.497,55.703 59.066,57.54 58.442,59.499 L58.436,59.515 C58.365,59.741 58.122,59.866 57.897,59.794 C57.775,59.755 57.682,59.665 57.633,59.557 C56.799,57.651 56.359,55.61 56.212,53.583 C56.074,51.556 56.142,49.517 56.452,47.531 C56.755,45.543 57.191,43.575 58.011,41.729 C58.414,40.805 58.885,39.906 59.459,39.048 C60.034,38.192 60.684,37.37 61.541,36.638 C61.734,36.473 62.023,36.495 62.187,36.688 L62.292,36.918 L62.294,36.934" id="Fill-1340" fill="#58960F"></path>
            </g>
        </g>
    </g>
</svg>