<?xml version="1.0" encoding="UTF-8"?>
<svg width="118px" height="132px" viewBox="0 0 118 132" version="1.1" xmlns="http://www.w3.org/2000/svg" xmlns:xlink="http://www.w3.org/1999/xlink">
    <title>Group 6</title>
    <defs>
        <polygon id="path-1" points="44.343 51.95 0.509 26.64 44.063 0.62 87.896 26.64"></polygon>
    </defs>
    <g id="Page-1" stroke="none" stroke-width="1" fill="none" fill-rule="evenodd">
        <g id="28_R2FtZV9jaGlrZW4tMDE" transform="translate(-891.000000, -1005.000000)">
            <g id="Group-6" transform="translate(891.000000, 1005.000000)">
                <g id="Group" transform="translate(0.000000, 58.000000)">
                    <polyline id="Fill-750" fill="#85BC0C" points="58.65 0.13 58.635 5.16 -1.42108547e-14 39.23 0.014 34.2 58.65 0.13"></polyline>
                    <polyline id="Fill-1042" fill="#85BC0C" points="117.833 34.08 117.819 39.11 59.182 73.18 59.197 68.15 117.833 34.08"></polyline>
                    <polyline id="Fill-1043" fill="#5C8308" points="59.197 68.15 59.182 73.18 0.163 39.11 0.177 34.08 59.197 68.15"></polyline>
                    <polyline id="Fill-1044" fill="#99D20D" points="117.833 34.08 59.197 68.15 0.177 34.08 58.813 4.26325641e-14 117.833 34.08"></polyline>
                </g>
                <g id="Group-1640" transform="translate(14.000000, 65.633000)">
                    <mask id="mask-2" fill="white">
                        <use xlink:href="#path-1"></use>
                    </mask>
                    <g id="Clip-1639"></g>
                    <polygon id="Fill-1638" fill="#74A60D" mask="url(#mask-2)" points="0.509 51.95 87.896 51.95 87.896 0.62 0.509 0.62"></polygon>
                </g>
                <polyline id="Fill-1641" fill="#447701" points="58.343 110.253 58.063 32.83 14.509 84.943 58.343 110.253"></polyline>
                <polyline id="Fill-1642" fill="#58960F" points="58.063 32.83 58.343 110.253 101.896 84.933 58.063 32.83"></polyline>
                <polyline id="Fill-1643" fill="#346603" points="29.579 66.913 58.245 83.463 58.19 67.773 38.404 56.353 29.579 66.913"></polyline>
                <polyline id="Fill-1644" fill="#447701" points="77.95 56.473 58.343 67.863 58.343 83.513 86.793 66.983 77.95 56.473"></polyline>
                <polyline id="Fill-1645" fill="#447701" points="58.308 73.033 58.098 14.906 25.4 54.033 58.308 73.033"></polyline>
                <polyline id="Fill-1646" fill="#58960F" points="58.098 14.906 58.308 73.033 91.006 54.023 58.098 14.906"></polyline>
                <polyline id="Fill-1647" fill="#346603" points="36.713 40.492 58.235 52.923 58.193 41.142 43.338 32.566 36.713 40.492"></polyline>
                <polyline id="Fill-1648" fill="#447701" points="73.028 32.654 58.308 41.208 58.308 52.963 79.667 40.547 73.028 32.654"></polyline>
                <polyline id="Fill-1649" fill="#447701" points="58.281 43.253 58.124 -2.84217094e-14 33.791 29.114 58.281 43.253"></polyline>
                <polyline id="Fill-1650" fill="#58960F" points="58.124 -2.84217094e-14 58.281 43.253 82.614 29.113 58.124 -2.84217094e-14"></polyline>
            </g>
        </g>
    </g>
</svg>