<?xml version="1.0" encoding="UTF-8"?>
<svg width="118px" height="140px" viewBox="0 0 118 140" version="1.1" xmlns="http://www.w3.org/2000/svg" xmlns:xlink="http://www.w3.org/1999/xlink">
    <title>Group 7</title>
    <g id="Page-1" stroke="none" stroke-width="1" fill="none" fill-rule="evenodd">
        <g id="28_R2FtZV9jaGlrZW4tMDE" transform="translate(-891.000000, -997.000000)">
            <g id="Group-7" transform="translate(891.000000, 997.000000)">
                <g id="Group" transform="translate(0.000000, 66.000000)">
                    <polyline id="Fill-750" fill="#85BC0C" points="58.65 0.13 58.635 5.16 -1.42108547e-14 39.23 0.014 34.2 58.65 0.13"></polyline>
                    <polyline id="Fill-1042" fill="#85BC0C" points="117.833 34.08 117.819 39.11 59.182 73.18 59.197 68.15 117.833 34.08"></polyline>
                    <polyline id="Fill-1043" fill="#5C8308" points="59.197 68.15 59.182 73.18 0.163 39.11 0.177 34.08 59.197 68.15"></polyline>
                    <polyline id="Fill-1044" fill="#99D20D" points="117.833 34.08 59.197 68.15 0.177 34.08 58.813 4.26325641e-14 117.833 34.08"></polyline>
                </g>
                <g id="Group-6" transform="translate(13.000000, 0.000000)">
                    <polyline id="Fill-28" fill="#77A413" points="44.694 114.067 19.059 102.27 46.501 87.278 72.136 99.076 44.694 114.067"></polyline>
                    <polyline id="Fill-29" fill="#403425" points="42.924 104.593 36.839 101.056 36.76 73.265 42.846 76.801 42.924 104.593"></polyline>
                    <polyline id="Fill-30" fill="#66543B" points="42.846 76.801 36.76 73.265 43.336 69.468 49.422 73.004 42.846 76.801"></polyline>
                    <polyline id="Fill-31" fill="#5C4C35" points="49.422 73.004 49.501 100.796 42.924 104.593 42.846 76.801 49.422 73.004"></polyline>
                    <polyline id="Fill-32" fill="#46730A" points="33.036 87.784 7.10542736e-15 68.585 13.481 14.992 39.115 26.789 33.036 87.784"></polyline>
                    <polyline id="Fill-33" fill="#6AB00F" points="39.115 26.789 13.481 14.992 40.923 0 66.557 11.797 39.115 26.789"></polyline>
                    <polyline id="Fill-34" fill="#5F9E0E" points="66.557 11.797 83.794 58.479 33.036 87.784 39.115 26.789 66.557 11.797"></polyline>
                </g>
            </g>
        </g>
    </g>
</svg>