<?xml version="1.0" encoding="UTF-8"?>
<svg width="119px" height="181px" viewBox="0 0 119 181" version="1.1" xmlns="http://www.w3.org/2000/svg" xmlns:xlink="http://www.w3.org/1999/xlink">
    <title>Group 12</title>
    <g id="Page-1" stroke="none" stroke-width="1" fill="none" fill-rule="evenodd">
        <g id="28_R2FtZV9jaGlrZW4tMDE" transform="translate(-817.000000, -839.000000)">
            <g id="Group-12" transform="translate(817.534000, 839.000000)">
                <polyline id="Fill-1039" fill="#85BC0C" points="117.669 141.574 117.656 146.602 59.019 180.68 59.034 175.65 117.669 141.574"></polyline>
                <polyline id="Fill-1040" fill="#5C8308" points="59.034 175.65 59.019 180.68 5.68434189e-14 146.602 0.014 141.574 59.034 175.65"></polyline>
                <polyline id="Fill-1041" fill="#99D20D" points="117.669 141.574 59.034 175.65 0.014 141.574 58.65 107.499 117.669 141.574"></polyline>
                <polyline id="Fill-1590" fill="#77A413" points="57.694 156.01 32.059 144.213 59.5 129.221 85.135 141.018 57.694 156.01"></polyline>
                <polyline id="Fill-1591" fill="#403425" points="58.41 146.624 52.326 143.087 52.218 105.242 58.304 108.778 58.41 146.624"></polyline>
                <polyline id="Fill-1592" fill="#66543B" points="58.304 108.778 52.218 105.242 58.786 101.45 64.871 104.986 58.304 108.778"></polyline>
                <polyline id="Fill-1593" fill="#5C4C35" points="64.871 104.986 64.979 142.831 58.41 146.624 58.304 108.778 64.871 104.986"></polyline>
                <polyline id="Fill-1594" fill="#46730A" points="48.502 124.792 15.466 105.593 28.948 14.992 54.582 26.789 48.502 124.792"></polyline>
                <polyline id="Fill-1595" fill="#6AB00F" points="54.582 26.789 28.948 14.992 56.389 -1.77635684e-15 82.024 11.797 54.582 26.789"></polyline>
                <polyline id="Fill-1596" fill="#5F9E0E" points="82.024 11.797 99.261 95.486 48.502 124.792 54.582 26.789 82.024 11.797"></polyline>
            </g>
        </g>
    </g>
</svg>