<?xml version="1.0" encoding="UTF-8"?>
<svg width="119px" height="75px" viewBox="0 0 119 75" version="1.1" xmlns="http://www.w3.org/2000/svg" xmlns:xlink="http://www.w3.org/1999/xlink">
    <title>Group 18</title>
    <g id="Page-1" stroke="none" stroke-width="1" fill="none" fill-rule="evenodd">
        <g id="28_R2FtZV9jaGlrZW4tMDE" transform="translate(-170.000000, -776.000000)">
            <g id="Group-18" transform="translate(170.156000, 776.986000)">
                <path d="M88.3907901,27.60075 C92.5507901,30.00275 92.5727901,33.89675 88.4387901,36.29875 C84.3057901,38.69975 77.5837901,38.69975 73.4247901,36.29875 C69.2637901,33.89675 69.2417901,30.00275 73.3737901,27.60175 C77.5087901,25.19875 84.2307901,25.19875 88.3907901,27.60075" id="Fill-680" fill="#25B8BF"></path>
                <path d="M40.6037901,23.28375 C43.5347901,24.97675 43.5507901,27.72175 40.6367901,29.41475 C37.7237901,31.10775 32.9857901,31.10775 30.0537901,29.41475 C27.1207901,27.72175 27.1057901,24.97675 30.0187901,23.28375 C32.9317901,21.59075 37.6707901,21.59075 40.6037901,23.28375" id="Fill-681" fill="#25B8BF"></path>
                <path d="M52.2567901,35.91675 C54.3447901,37.12175 54.3567901,39.07675 52.2807901,40.28275 C50.2057901,41.48975 46.8307901,41.48975 44.7427901,40.28275 C42.6537901,39.07675 42.6417901,37.12175 44.7177901,35.91675 C46.7927901,34.70975 50.1677901,34.70975 52.2567901,35.91675" id="Fill-684" fill="#25B8BF"></path>
                <g id="Group-17">
                    <polyline id="Fill-807" fill="#85BC0C" points="59.409 0.227 59.395 5.254 0.758 39.33 0.773 34.302 59.409 0.227"></polyline>
                    <polyline id="Fill-1086" fill="#5C8308" points="117.384 34.114 117.37 39.141 58.35 5.066 58.364 0.038 117.384 34.114"></polyline>
                    <polyline id="Fill-1088" fill="#3FA2B2" points="117.67 34.076 117.656 39.104 59.02 73.179 59.034 68.152 117.67 34.076"></polyline>
                    <polyline id="Fill-1089" fill="#19737C" points="59.034 68.152 59.02 73.179 0 39.104 0.014 34.077 59.034 68.152"></polyline>
                    <polyline id="Fill-1090" fill="#25B8BF" points="117.67 34.075 59.034 68.152 0.014 34.076 58.651 2.84217094e-14 117.67 34.075"></polyline>
                </g>
                <path d="M82.5677901,41.73875 C82.5677901,45.68275 74.8157901,48.88075 65.2537901,48.88075 C55.6907901,48.88075 47.9397901,45.68275 47.9397901,41.73875 C47.9397901,37.79275 55.6907901,34.59575 65.2537901,34.59575 C74.8157901,34.59575 82.5677901,37.79275 82.5677901,41.73875" id="Fill-1665" fill="#0B9B97"></path>
                <path d="M65.2967901,24.06775 C65.2967901,24.06775 70.1867901,28.67075 69.8217901,34.13675 C69.4747901,39.32175 64.6977901,41.53275 64.6977901,41.53275 C64.6977901,41.53275 60.3357901,40.06375 60.6857901,33.49175 C61.0347901,26.91775 65.2967901,24.06775 65.2967901,24.06775" id="Fill-1666" fill="#F9F0E8"></path>
                <path d="M47.4707901,45.09075 C47.4707901,45.09075 51.0857901,42.38475 56.0617901,40.09375 C60.7817901,37.91975 65.9277901,39.83075 65.9277901,39.83075 C65.9277901,39.83075 66.7207901,44.36475 60.7797901,47.19875 C54.8397901,50.03275 47.4707901,45.09075 47.4707901,45.09075" id="Fill-1667" fill="#F2C7EF"></path>
                <path d="M65.3037901,41.10575 C65.3037901,41.10575 68.8187901,28.69775 83.8357901,33.80275 C83.8357901,33.80275 80.7077901,43.73675 65.3037901,41.10575" id="Fill-1668" fill="#F2C7EF"></path>
                <path d="M49.3927901,30.74775 C49.3927901,30.74775 55.2157901,30.00675 59.0667901,32.44975 C62.9177901,34.89475 63.4137901,40.47975 63.4137901,40.47975 C63.4137901,40.47975 59.3247901,41.82675 54.0977901,38.85075 C48.8697901,35.87275 49.3927901,30.74775 49.3927901,30.74775" id="Fill-1669" fill="#F2C7EF"></path>
                <path d="M64.7467901,39.83875 C64.7467901,39.83875 69.6967901,39.64175 72.8537901,43.04875 C76.0107901,46.45575 76.4597901,51.02775 76.4597901,51.02775 C76.4597901,51.02775 70.0117901,51.49175 66.8267901,47.56675 C63.6427901,43.64175 64.7467901,39.83875 64.7467901,39.83875" id="Fill-1670" fill="#F9F0E8"></path>
                <path d="M69.5477901,36.16375 C69.4377901,35.93475 69.1627901,35.83875 68.9337901,35.94875 C68.1837901,36.30875 67.4857901,36.78275 66.8607901,37.33875 L67.4277901,35.76575 C67.5137901,35.52675 67.3897901,35.26275 67.1507901,35.17675 C66.9107901,35.09075 66.6477901,35.21475 66.5617901,35.45375 L65.7137901,37.80675 L65.7137901,34.67175 C65.7137901,34.41775 65.5077901,34.21175 65.2537901,34.21175 C64.9997901,34.21175 64.7937901,34.41775 64.7937901,34.67175 L64.7937901,38.00075 L64.7277901,38.00475 L64.5037901,38.03175 C64.3857901,37.53075 64.2847901,37.01275 64.1887901,36.49775 C64.0687901,35.86275 63.9547901,35.26175 63.8097901,34.70375 C63.7457901,34.45775 63.4937901,34.31075 63.2487901,34.37475 C63.0027901,34.43875 62.8547901,34.69075 62.9187901,34.93575 C63.0567901,35.46275 63.1667901,36.04875 63.2837901,36.66875 C63.3177901,36.84775 63.3517901,37.02875 63.3867901,37.20775 L62.0637901,34.75875 C61.9427901,34.53575 61.6637901,34.45175 61.4397901,34.57375 C61.2167901,34.69475 61.1327901,34.97375 61.2537901,35.19775 L62.8737901,38.19575 C62.9607901,38.35475 63.0397901,38.50675 63.1117901,38.65575 L63.1037901,38.66275 L61.6417901,36.83375 C61.4837901,36.63575 61.1937901,36.60275 60.9947901,36.76175 C60.7967901,36.91975 60.7637901,37.20975 60.9227901,37.40775 L61.8767901,38.60175 C61.1267901,38.25075 60.4357901,37.83575 59.8527901,37.23175 C59.6767901,37.04875 59.3847901,37.04275 59.2027901,37.21975 C59.0187901,37.39575 59.0137901,37.68775 59.1897901,37.86975 C60.1117901,38.82575 61.2477901,39.36075 62.3857901,39.82475 C62.2227901,40.34075 62.2337901,40.76375 62.2337901,40.76375 C63.4177901,40.99075 62.2337901,40.76375 63.4177901,40.99075 L63.7117901,40.89875 L63.7177901,40.90575 C63.8077901,41.01975 63.9417901,41.07775 64.0777901,41.07775 C64.1777901,41.07775 64.2797901,41.04475 64.3637901,40.97775 C64.4707901,40.89275 64.5257901,40.76875 64.5317901,40.64275 L64.6887901,40.59275 L64.7277901,40.59875 L64.9367901,40.54775 L64.9817901,40.51875 L65.2157901,40.58375 L65.2407901,40.58275 C65.6137901,40.56375 65.9817901,40.50075 66.3387901,40.40075 L66.9947901,40.47975 C66.9947901,40.47975 67.0077901,40.35475 67.0037901,40.16275 C67.8327901,39.80375 68.5707901,39.23375 69.1137901,38.50175 C69.2647901,38.29775 69.2217901,38.00975 69.0177901,37.85875 C68.8137901,37.70575 68.5257901,37.74875 68.3747901,37.95375 C67.9727901,38.49375 67.4427901,38.92675 66.8437901,39.22375 C66.7997901,39.09775 66.7437901,38.97175 66.6737901,38.85075 C67.4047901,37.98575 68.3167901,37.26675 69.3327901,36.77875 C69.5617901,36.66775 69.6577901,36.39375 69.5477901,36.16375" id="Fill-1671" fill="#E87415"></path>
            </g>
        </g>
    </g>
</svg>