<?xml version="1.0" encoding="UTF-8"?>
<svg width="118px" height="130px" viewBox="0 0 118 130" version="1.1" xmlns="http://www.w3.org/2000/svg" xmlns:xlink="http://www.w3.org/1999/xlink">
    <title>Group 18</title>
    <g id="Page-1" stroke="none" stroke-width="1" fill="none" fill-rule="evenodd">
        <g id="28_R2FtZV9jaGlrZW4tMDE" transform="translate(-186.000000, -639.000000)">
            <g id="Group-18" transform="translate(186.000000, 639.000000)">
                <g id="Group-17" transform="translate(0.000000, 56.000000)">
                    <polyline id="Fill-807" fill="#85BC0C" points="59.409 0.227 59.395 5.254 0.758 39.33 0.773 34.302 59.409 0.227"></polyline>
                    <polyline id="Fill-1086" fill="#5C8308" points="117.384 34.114 117.37 39.141 58.35 5.066 58.364 0.038 117.384 34.114"></polyline>
                    <polyline id="Fill-1088" fill="#3FA2B2" points="117.67 34.076 117.656 39.104 59.02 73.179 59.034 68.152 117.67 34.076"></polyline>
                    <polyline id="Fill-1089" fill="#19737C" points="59.034 68.152 59.02 73.179 0 39.104 0.014 34.077 59.034 68.152"></polyline>
                    <polyline id="Fill-1090" fill="#25B8BF" points="117.67 34.075 59.034 68.152 0.014 34.076 58.651 2.84217094e-14 117.67 34.075"></polyline>
                </g>
                <path d="M96.362,97.6289595 C95.87,98.4589595 95.3,99.2769595 94.647,100.077959 C95.299,99.2769595 95.871,98.4589595 96.362,97.6289595" id="Fill-94" fill="#81B222"></path>
                <path d="M94.579,100.156959 C94.287,100.511959 93.978,100.863959 93.654,101.212959 C93.978,100.863959 94.287,100.511959 94.579,100.156959" id="Fill-95" fill="#81B222"></path>
                <path d="M98.044,93.7669595 C97.932,94.1559595 97.804,94.5429595 97.66,94.9279595 C97.803,94.5429595 97.933,94.1559595 98.044,93.7669595" id="Fill-96" fill="#81B222"></path>
                <path d="M97.589,95.1109595 C97.449,95.4709595 97.293,95.8299595 97.124,96.1869595 C97.293,95.8299595 97.449,95.4709595 97.589,95.1109595" id="Fill-97" fill="#81B222"></path>
                <path d="M98.347,87.0919595 C98.774,89.2809595 98.683,91.4979595 98.071,93.6759595 C98.681,91.4979595 98.774,89.2809595 98.347,87.0919595" id="Fill-98" fill="#81B222"></path>
                <path d="M93.345,101.530959 C93.088,101.797959 92.824,102.063959 92.547,102.325959 C92.824,102.063959 93.088,101.797959 93.345,101.530959" id="Fill-99" fill="#81B222"></path>
                <path d="M97.029,96.3899595 C96.849,96.7559595 96.655,97.1189595 96.445,97.4809595 C96.654,97.1189595 96.85,96.7559595 97.029,96.3899595" id="Fill-105" fill="#81B222"></path>
                <path d="M86.378,106.861959 C86.928,106.544959 87.457,106.218959 87.97,105.888959 C87.457,106.218959 86.928,106.544959 86.378,106.861959" id="Fill-111" fill="#81B222"></path>
                <path d="M89.97,104.490959 C90.268,104.267959 90.559,104.043959 90.841,103.816959 C90.559,104.043959 90.268,104.267959 89.97,104.490959" id="Fill-113" fill="#81B222"></path>
                <path d="M91.0965,104.8535 C91.3735,104.6205 91.6425,104.3845 91.9035,104.1465 C91.6425,104.3845 91.3735,104.6205 91.0965,104.8535" id="Fill-114" fill="#81B222"></path>
                <path d="M88.446,105.568959 C88.79,105.338959 89.13,105.108959 89.457,104.873959 C89.13,105.108959 88.79,105.338959 88.446,105.568959" id="Fill-117" fill="#81B222"></path>
                <path d="M81.054,95.5759595 C81.054,98.5839595 75.144,101.021959 67.854,101.021959 C60.563,101.021959 54.654,98.5839595 54.654,95.5759595 C54.654,92.5689595 60.563,90.1309595 67.854,90.1309595 C75.144,90.1309595 81.054,92.5689595 81.054,95.5759595" id="Fill-126" fill="#298E99"></path>
                <path d="M71.025,95.8809595 C70.391,95.8809595 69.853,95.3959595 69.797,94.7529595 C65.794,48.1739595 93.49,17.3379595 93.77,17.0319595 C94.23,16.5289595 95.011,16.4959595 95.512,16.9549595 C96.014,17.4149595 96.049,18.1949595 95.59,18.6969595 C95.317,18.9959595 68.348,49.0769595 72.254,94.5419595 C72.314,95.2199595 71.81,95.8179595 71.131,95.8759595 L71.025,95.8809595" id="Fill-127" fill="#57A017"></path>
                <path d="M79.77,45.3189595 C79.356,45.3189595 78.936,45.2349595 78.533,45.0579595 C76.973,44.3749595 76.263,42.5559595 76.947,40.9959595 C83.872,25.1949595 92.059,16.1589595 92.405,15.7819595 C93.555,14.5279595 95.504,14.4409595 96.762,15.5899595 C98.017,16.7399595 98.104,18.6889595 96.955,19.9449595 C96.838,20.0739595 89.066,28.7089595 82.596,43.4719595 C82.089,44.6289595 80.957,45.3189595 79.77,45.3189595" id="Fill-128" fill="#7C661E"></path>
                <path d="M63.619,98.2159595 C62.986,98.2159595 62.448,97.7329595 62.391,97.0909595 C60.723,78.2129595 60.785,59.1059595 62.575,40.2989595 C63.769,27.7519595 65.754,15.1419595 68.477,2.81995949 C68.624,2.15495949 69.278,1.73395949 69.948,1.88095949 C70.613,2.02795949 71.033,2.68695949 70.886,3.35195949 C68.185,15.5759595 66.214,28.0859595 65.029,40.5319595 C63.253,59.1899595 63.194,78.1459595 64.848,96.8739595 C64.909,97.5519595 64.408,98.1509595 63.728,98.2109595 L63.619,98.2159595" id="Fill-129" fill="#57A017"></path>
                <path d="M63.805,43.4989595 C63.708,43.4989595 63.609,43.4949595 63.509,43.4859595 C61.814,43.3239595 60.57,41.8189595 60.733,40.1239595 C61.933,27.5019595 63.932,14.8169595 66.67,2.42095949 C67.038,0.757959486 68.688,-0.298040514 70.346,0.0749594864 C72.01,0.441959486 73.06,2.08795949 72.693,3.75095949 C70.008,15.9019595 68.05,28.3359595 66.872,40.7079595 C66.719,42.3039595 65.376,43.4989595 63.805,43.4989595" id="Fill-130" fill="#7C661E"></path>
                <path d="M70.945,95.7859595 C70.945,95.7859595 68.107,75.9059595 79.466,64.7539595 L72.496,95.8259595 L70.945,95.7859595" id="Fill-131" fill="#539933"></path>
                <path d="M69.041,96.4969595 C69.041,96.4969595 71.839,76.0469595 60.097,64.6519595 L67.448,96.5489595 L69.041,96.4969595" id="Fill-132" fill="#539933"></path>
                <path d="M64.11,97.1179595 C64.11,97.1179595 62.922,72.7599595 49.132,61.3299595 L62.547,97.4349595 L64.11,97.1179595" id="Fill-133" fill="#539933"></path>
            </g>
        </g>
    </g>
</svg>