<?xml version="1.0" encoding="UTF-8"?>
<svg width="119px" height="121px" viewBox="0 0 119 121" version="1.1" xmlns="http://www.w3.org/2000/svg" xmlns:xlink="http://www.w3.org/1999/xlink">
    <title>Group 7</title>
    <g id="Page-1" stroke="none" stroke-width="1" fill="none" fill-rule="evenodd">
        <g id="28_R2FtZV9jaGlrZW4tMDE" transform="translate(-20.000000, -1004.000000)">
            <g id="Group-7" transform="translate(20.177000, 1004.000000)">
                <g id="Fill-1051" transform="translate(0.000000, 52.000000)" fill="#0BAFAF">
                    <polyline id="Fill-1044" points="117.656 34.08 59.02 68.15 0 34.08 58.636 4.26325641e-14 117.656 34.08"></polyline>
                </g>
                <path d="M79.744,95.5763451 C79.744,98.5833451 73.835,101.021345 66.544,101.021345 C59.254,101.021345 53.344,98.5833451 53.344,95.5763451 C53.344,92.5683451 59.254,90.1303451 66.544,90.1303451 C73.835,90.1303451 79.744,92.5683451 79.744,95.5763451" id="Fill-1091" fill="#0B9B97"></path>
                <path d="M69.716,95.8803451 C69.082,95.8803451 68.544,95.3943451 68.488,94.7523451 C64.485,48.1733451 92.179,17.3383451 92.46,17.0313451 C92.92,16.5293451 93.7,16.4963451 94.201,16.9553451 C94.704,17.4143451 94.739,18.1943451 94.28,18.6973451 C94.007,18.9963451 67.039,49.0763451 70.946,94.5403451 C71.005,95.2203451 70.501,95.8173451 69.823,95.8753451 L69.716,95.8803451" id="Fill-1092" fill="#57A017"></path>
                <path d="M78.46,45.3183451 C78.046,45.3183451 77.626,45.2343451 77.223,45.0583451 C75.663,44.3743451 74.953,42.5553451 75.636,40.9953451 C82.563,25.1953451 90.749,16.1593451 91.095,15.7813451 C92.245,14.5273451 94.193,14.4393451 95.452,15.5903451 C96.707,16.7393451 96.794,18.6883451 95.646,19.9453451 C95.53,20.0723451 87.758,28.7063451 81.286,43.4713451 C80.779,44.6293451 79.646,45.3183451 78.46,45.3183451" id="Fill-1093" fill="#7C661E"></path>
                <path d="M62.31,98.2163451 C61.677,98.2163451 61.139,97.7323451 61.082,97.0903451 C59.412,78.2073451 59.474,59.0983451 61.265,40.2983451 C62.459,27.7573451 64.446,15.1463451 67.167,2.81934508 C67.314,2.15434508 67.963,1.73834508 68.637,1.88134508 C69.302,2.02734508 69.723,2.68634508 69.576,3.35134508 C66.875,15.5803451 64.905,28.0913451 63.72,40.5313451 C61.945,59.1823451 61.883,78.1393451 63.54,96.8733451 C63.6,97.5523451 63.099,98.1503451 62.419,98.2113451 L62.31,98.2163451" id="Fill-1094" fill="#57A017"></path>
                <path d="M62.496,43.4983451 C62.399,43.4983451 62.3,43.4943451 62.2,43.4843451 C60.505,43.3223451 59.261,41.8183451 59.424,40.1223451 C60.624,27.5063451 62.622,14.8213451 65.36,2.42034508 C65.727,0.758345084 67.368,-0.294654916 69.036,0.0733450836 C70.7,0.441345084 71.75,2.08734508 71.383,3.75034508 C68.699,15.9073451 66.74,28.3413451 65.562,40.7073451 C65.41,42.3043451 64.067,43.4983451 62.496,43.4983451" id="Fill-1095" fill="#7C661E"></path>
                <path d="M69.635,95.7853451 C69.635,95.7853451 66.797,75.9053451 78.156,64.7533451 L71.186,95.8263451 L69.635,95.7853451" id="Fill-1096" fill="#63B50B"></path>
                <path d="M67.731,96.4963451 C67.731,96.4963451 70.53,76.0463451 58.788,64.6513451 L66.138,96.5483451 L67.731,96.4963451" id="Fill-1097" fill="#539933"></path>
                <path d="M62.801,97.1173451 C62.801,97.1173451 61.613,72.7603451 47.823,61.3293451 L61.238,97.4343451 L62.801,97.1173451" id="Fill-1098" fill="#539933"></path>
            </g>
        </g>
    </g>
</svg>