<?xml version="1.0" encoding="UTF-8"?>
<svg width="119px" height="69px" viewBox="0 0 119 69" version="1.1" xmlns="http://www.w3.org/2000/svg" xmlns:xlink="http://www.w3.org/1999/xlink">
    <title>Group 7</title>
    <g id="Page-1" stroke="none" stroke-width="1" fill="none" fill-rule="evenodd">
        <g id="28_R2FtZV9jaGlrZW4tMDE" transform="translate(-20.000000, -1056.000000)">
            <g id="Group-7" transform="translate(20.177000, 1056.000000)">
                <g id="Fill-1051" fill="#0BAFAF">
                    <polyline id="Fill-1044" points="117.656 34.08 59.02 68.15 0 34.08 58.636 4.26325641e-14 117.656 34.08"></polyline>
                </g>
                <path d="M56.5817901,15.26975 C59.5147901,16.96175 59.5297901,19.70675 56.6157901,21.39975 C53.7027901,23.09275 48.9647901,23.09275 46.0327901,21.39975 C43.0997901,19.70675 43.0847901,16.96175 45.9977901,15.26975 C48.9117901,13.57675 53.6497901,13.57675 56.5817901,15.26975" id="Fill-639" fill="#25B8BF"></path>
                <path d="M82.5817901,40.26975 C85.5147901,41.96175 85.5297901,44.70675 82.6157901,46.39975 C79.7027901,48.09275 74.9647901,48.09275 72.0327901,46.39975 C69.0997901,44.70675 69.0847901,41.96175 71.9977901,40.26975 C74.9117901,38.57675 79.6497901,38.57675 82.5817901,40.26975" id="Fill-639" fill="#25B8BF"></path>
                <path d="M41.9115292,37.9045 C44.0005292,39.1105 44.0115292,41.0645 41.9355292,42.2715 C39.8605292,43.4765 36.4855292,43.4765 34.3965292,42.2715 C32.3085292,41.0655 32.2965292,39.1105 34.3725292,37.9045 C36.4475292,36.6985 39.8225292,36.6985 41.9115292,37.9045" id="Fill-640" fill="#25B8BF"></path>
                <path d="M40.9124058,25.9045 C42.9994058,27.1105 43.0114058,29.0655 40.9354058,30.2715 C38.8614058,31.4775 35.4854058,31.4775 33.3974058,30.2715 C31.3084058,29.0655 31.2964058,27.1105 33.3724058,25.9045 C35.4474058,24.6985 38.8224058,24.6985 40.9124058,25.9045" id="Fill-642" fill="#25B8BF"></path>
                <path d="M84.9124058,22.9045 C86.9994058,24.1105 87.0114058,26.0655 84.9354058,27.2715 C82.8614058,28.4775 79.4854058,28.4775 77.3974058,27.2715 C75.3084058,26.0655 75.2964058,24.1105 77.3724058,22.9045 C79.4474058,21.6985 82.8224058,21.6985 84.9124058,22.9045" id="Fill-642" fill="#25B8BF"></path>
                <path d="M66.1869344,28.8285 C70.4059344,31.2645 70.4289344,35.2155 66.2359344,37.6515 C62.0429344,40.0885 55.2239344,40.0885 51.0039344,37.6515 C46.7819344,35.2155 46.7609344,31.2645 50.9519344,28.8285 C55.1469344,26.3905 61.9659344,26.3905 66.1869344,28.8285" id="Fill-643" fill="#25B8BF"></path>
            </g>
        </g>
    </g>
</svg>