<?xml version="1.0" encoding="UTF-8"?>
<svg width="119px" height="129px" viewBox="0 0 119 129" version="1.1" xmlns="http://www.w3.org/2000/svg" xmlns:xlink="http://www.w3.org/1999/xlink">
    <title>Group 8</title>
    <g id="Page-1" stroke="none" stroke-width="1" fill="none" fill-rule="evenodd">
        <g id="28_R2FtZV9jaGlrZW4tMDE" transform="translate(-20.000000, -996.000000)">
            <g id="Group-8" transform="translate(20.177000, 996.000000)">
                <g id="Fill-1051" transform="translate(0.000000, 60.000000)" fill="#0BAFAF">
                    <polyline id="Fill-1044" points="117.656 34.08 59.02 68.15 0 34.08 58.636 4.26325641e-14 117.656 34.08"></polyline>
                </g>
                <g id="Group-7" transform="translate(26.823000, 0.000000)">
                    <path d="M52.0177327,100.006532 C52.0177327,104.216532 43.7607327,107.616532 33.5737327,107.616532 C23.3877327,107.616532 15.1307327,104.216532 15.1307327,100.006532 C15.1307327,95.8065324 23.3877327,92.4065324 33.5737327,92.4065324 C43.7607327,92.4065324 52.0177327,95.8065324 52.0177327,100.006532" id="Fill-791" fill="#0B9B97"></path>
                    <path d="M39.8427327,101.046532 C39.2087327,101.046532 38.6707327,100.566532 38.6147327,99.9165324 C34.3887327,50.7365324 63.6267327,18.1885324 63.9227327,17.8635324 C64.3827327,17.3615324 65.1637327,17.3275324 65.6647327,17.7875324 C66.1667327,18.2465324 66.2017327,19.0275324 65.7427327,19.5295324 C65.4537327,19.8455324 36.9417327,51.6465324 41.0727327,99.7065324 C41.1317327,100.386532 40.6277327,100.986532 39.9497327,101.046532 L39.8427327,101.046532" id="Fill-792" fill="#57A017"></path>
                    <path d="M49.0807327,47.5265324 C48.6667327,47.5265324 48.2467327,47.4465324 47.8437327,47.2665324 C46.2837327,46.5865324 45.5737327,44.7665324 46.2577327,43.2035324 C53.5627327,26.5375324 62.1937327,17.0125324 62.5587327,16.6145324 C63.7087327,15.3615324 65.6567327,15.2735324 66.9147327,16.4235324 C68.1707327,17.5715324 68.2567327,19.5225324 67.1077327,20.7785324 C66.9877327,20.9095324 58.7577327,30.0495324 51.9067327,45.6765324 C51.3997327,46.8365324 50.2677327,47.5265324 49.0807327,47.5265324" id="Fill-793" fill="#7C661E"></path>
                    <path d="M24.3567327,101.046532 L24.2507327,101.046532 C23.5717327,100.986532 23.0677327,100.386532 23.1277327,99.7065324 C26.6407327,58.8265324 2.41673268,31.8555324 2.17273268,31.5875324 C1.71173268,31.0845324 1.74573268,30.3055324 2.24773268,29.8445324 C2.75173268,29.3845324 3.53073268,29.4185324 3.99073268,29.9205324 C4.24373268,30.1965324 29.1887327,57.9765324 25.5847327,99.9165324 C25.5297327,100.566532 24.9907327,101.046532 24.3567327,101.046532" id="Fill-794" fill="#57A017"></path>
                    <path d="M16.4907327,55.7565324 C15.3047327,55.7565324 14.1727327,55.0665324 13.6657327,53.9165324 C7.85373268,40.6515324 0.874732677,32.9105324 0.805732677,32.8335324 C-0.342267323,31.5755324 -0.252267323,29.6265324 1.00373268,28.4795324 C2.26073268,27.3305324 4.20673268,27.4165324 5.35573268,28.6715324 C5.66773268,29.0125324 13.0647327,37.1775324 19.3147327,51.4365324 C19.9977327,52.9965324 19.2887327,54.8165324 17.7277327,55.4965324 C17.3247327,55.6765324 16.9047327,55.7565324 16.4907327,55.7565324" id="Fill-795" fill="#7C661E"></path>
                    <path d="M32.0187327,103.516532 C31.3867327,103.516532 30.8477327,103.036532 30.7917327,102.386532 C29.0277327,82.4465324 29.0927327,62.2665324 30.9837327,42.4045324 C32.2447327,29.1525324 34.3437327,15.8325324 37.2177327,2.81853241 C37.3647327,2.15353241 38.0157327,1.73653241 38.6877327,1.87953241 C39.3527327,2.02753241 39.7737327,2.68653241 39.6267327,3.35053241 C36.7727327,16.2675324 34.6917327,29.4865324 33.4387327,42.6375324 C31.5617327,62.3465324 31.4987327,82.3765324 33.2487327,102.176532 C33.3097327,102.846532 32.8077327,103.446532 32.1287327,103.506532 L32.0187327,103.516532" id="Fill-796" fill="#57A017"></path>
                    <path d="M32.2157327,45.6065324 C32.1177327,45.6065324 32.0187327,45.5965324 31.9187327,45.5865324 C30.2247327,45.4265324 28.9787327,43.9245324 29.1427327,42.2285324 C30.4107327,28.9025324 32.5197327,15.5075324 35.4107327,2.41953241 C35.7777327,0.755532407 37.4267327,-0.292467593 39.0877327,0.0725324066 C40.7507327,0.440532407 41.8017327,2.08653241 41.4347327,3.74953241 C38.5977327,16.5925324 36.5257327,29.7365324 35.2807327,42.8135324 C35.1287327,44.4065324 33.7857327,45.6065324 32.2157327,45.6065324" id="Fill-797" fill="#7C661E"></path>
                    <path d="M39.7577327,101.016532 C39.7577327,101.016532 36.7597327,80.0165324 48.7597327,68.2365324 L41.3957327,101.056532 L39.7577327,101.016532" id="Fill-798" fill="#63B50B"></path>
                    <path d="M24.9777327,100.716532 C24.9777327,100.716532 24.1067327,78.9265324 9.78573268,69.2465324 L23.3307327,101.056532 L24.9777327,100.716532" id="Fill-799" fill="#63B50B"></path>
                    <path d="M32.5367327,102.426532 C32.5367327,102.426532 31.2817327,76.6965324 16.7137327,64.6165324 L30.8857327,102.756532 L32.5367327,102.426532" id="Fill-800" fill="#539933"></path>
                </g>
            </g>
        </g>
    </g>
</svg>