<?xml version="1.0" encoding="UTF-8"?>
<svg width="119px" height="69px" viewBox="0 0 119 69" version="1.1" xmlns="http://www.w3.org/2000/svg" xmlns:xlink="http://www.w3.org/1999/xlink">
    <title>Group 7</title>
    <g id="Page-1" stroke="none" stroke-width="1" fill="none" fill-rule="evenodd">
        <g id="28_R2FtZV9jaGlrZW4tMDE" transform="translate(-20.000000, -1056.000000)">
            <g id="Group-7" transform="translate(20.177000, 1056.000000)">
                <g id="Fill-1051" fill="#0BAFAF">
                    <polyline id="Fill-1044" points="117.656 34.08 59.02 68.15 0 34.08 58.636 4.26325641e-14 117.656 34.08"></polyline>
                </g>
                <path d="M92.7468106,30.979 C97.4648106,33.703 97.4898106,38.119 92.8008106,40.845 C88.1128106,43.568 80.4888106,43.568 75.7708106,40.845 C71.0508106,38.119 72.7558106,31.777 82.9548106,34.743 C74.8898106,29.813 88.0268106,28.254 92.7468106,30.979" id="Fill-632" fill="#58960F"></path>
                <path d="M24.3768106,30.979 C19.6598106,33.703 19.6348106,38.119 24.3238106,40.845 C29.0108106,43.568 36.6348106,43.568 41.3528106,40.845 C46.0728106,38.119 44.3678106,31.777 34.1698106,34.743 C42.2338106,29.813 29.0968106,28.254 24.3768106,30.979" id="Fill-633" fill="#58960F"></path>
                <path d="M80.3088106,23.671 C80.3088106,27.615 72.5578106,30.813 62.9948106,30.813 C53.4328106,30.813 45.6808106,27.615 45.6808106,23.671 C45.6808106,19.725 53.4328106,16.528 62.9948106,16.528 C72.5578106,16.528 80.3088106,19.725 80.3088106,23.671" id="Fill-1651" fill="#0B9B97"></path>
                <path d="M63.0378106,6 C63.0378106,6 67.9288106,10.603 67.5628106,16.069 C67.2168106,21.254 62.4398106,23.466 62.4398106,23.466 C62.4398106,23.466 58.0778106,21.996 58.4268106,15.424 C58.7768106,8.85 63.0378106,6 63.0378106,6" id="Fill-1652" fill="#F9F0E8"></path>
                <path d="M45.2128106,27.023 C45.2128106,27.023 48.8278106,24.317 53.8038106,22.026 C58.5238106,19.852 63.6688106,21.764 63.6688106,21.764 C63.6688106,21.764 64.4618106,26.297 58.5208106,29.131 C52.5808106,31.965 45.2128106,27.023 45.2128106,27.023" id="Fill-1653" fill="#F2C7EF"></path>
                <path d="M63.0448106,23.038 C63.0448106,23.038 66.5598106,10.63 81.5768106,15.735 C81.5768106,15.735 78.4498106,25.668 63.0448106,23.038" id="Fill-1654" fill="#F2C7EF"></path>
                <path d="M47.1348106,12.681 C47.1348106,12.681 52.9568106,11.939 56.8088106,14.383 C60.6598106,16.827 61.1558106,22.411 61.1558106,22.411 C61.1558106,22.411 57.0668106,23.76 51.8388106,20.783 C46.6118106,17.806 47.1348106,12.681 47.1348106,12.681" id="Fill-1655" fill="#F2C7EF"></path>
                <path d="M62.4878106,21.77 C62.4878106,21.77 67.4388106,21.574 70.5958106,24.981 C73.7518106,28.389 74.2018106,32.96 74.2018106,32.96 C74.2018106,32.96 67.7528106,33.425 64.5688106,29.499 C61.3838106,25.574 62.4878106,21.77 62.4878106,21.77" id="Fill-1656" fill="#F9F0E8"></path>
                <path d="M67.2888106,18.097 C67.1788106,17.867 66.9038106,17.771 66.6748106,17.881 C65.9258106,18.241 65.2268106,18.715 64.6018106,19.271 L65.1688106,17.698 C65.2548106,17.459 65.1308106,17.195 64.8918106,17.109 C64.6528106,17.023 64.3898106,17.147 64.3038106,17.387 L63.4548106,19.739 L63.4548106,16.604 C63.4548106,16.35 63.2488106,16.144 62.9948106,16.144 C62.7408106,16.144 62.5348106,16.35 62.5348106,16.604 L62.5348106,19.933 L62.4688106,19.937 L62.2458106,19.964 C62.1278106,19.463 62.0268106,18.945 61.9298106,18.431 C61.8098106,17.795 61.6968106,17.194 61.5518106,16.637 C61.4878106,16.391 61.2358106,16.243 60.9898106,16.307 C60.7448106,16.371 60.5968106,16.622 60.6608106,16.868 C60.7978106,17.395 60.9088106,17.981 61.0258106,18.601 C61.0588106,18.78 61.0938106,18.961 61.1288106,19.141 L59.8048106,16.691 C59.6838106,16.469 59.4048106,16.385 59.1818106,16.506 C58.9578106,16.627 58.8738106,16.906 58.9958106,17.13 L60.6158106,20.128 C60.7018106,20.287 60.7818106,20.439 60.8528106,20.588 L60.8448106,20.596 L59.3838106,18.766 C59.2248106,18.568 58.9348106,18.535 58.7368106,18.694 C58.5378106,18.852 58.5058106,19.142 58.6638106,19.341 L59.6178106,20.534 C58.8688106,20.183 58.1778106,19.768 57.5948106,19.164 C57.4178106,18.981 57.1268106,18.975 56.9438106,19.151 C56.7608106,19.328 56.7548106,19.62 56.9318106,19.803 C57.8528106,20.759 58.9898106,21.293 60.1268106,21.757 C59.9648106,22.272 59.9748106,22.696 59.9748106,22.696 C61.1598106,22.923 59.9748106,22.696 61.1598106,22.923 L61.4538106,22.831 L61.4588106,22.838 C61.5498106,22.951 61.6838106,23.011 61.8188106,23.011 C61.9188106,23.011 62.0208106,22.977 62.1058106,22.91 C62.2118106,22.824 62.2668106,22.701 62.2738106,22.575 L62.4308106,22.525 L62.4698106,22.53 L62.6788106,22.48 L62.7238106,22.451 L62.9568106,22.516 L62.9828106,22.516 C63.3548106,22.495 63.7228106,22.433 64.0798106,22.333 L64.7358106,22.411 C64.7358106,22.411 64.7488106,22.287 64.7448106,22.096 C65.5748106,21.736 66.3118106,21.166 66.8548106,20.434 C67.0068106,20.23 66.9638106,19.942 66.7598106,19.791 C66.5558106,19.639 66.2668106,19.682 66.1158106,19.886 C65.7148106,20.427 65.1838106,20.859 64.5848106,21.156 C64.5408106,21.029 64.4848106,20.904 64.4148106,20.783 C65.1468106,19.918 66.0588106,19.199 67.0738106,18.711 C67.3028106,18.6 67.3998106,18.325 67.2888106,18.097" id="Fill-1657" fill="#E87415"></path>
            </g>
        </g>
    </g>
</svg>