<?xml version="1.0" encoding="UTF-8"?>
<svg width="119px" height="69px" viewBox="0 0 119 69" version="1.1" xmlns="http://www.w3.org/2000/svg" xmlns:xlink="http://www.w3.org/1999/xlink">
    <title>Group 7</title>
    <g id="Page-1" stroke="none" stroke-width="1" fill="none" fill-rule="evenodd">
        <g id="28_R2FtZV9jaGlrZW4tMDE" transform="translate(-20.000000, -1056.000000)">
            <g id="Group-7" transform="translate(20.177000, 1056.000000)">
                <g id="Fill-1051" fill="#0BAFAF">
                    <polyline id="Fill-1044" points="117.656 34.08 59.02 68.15 0 34.08 58.636 4.26325641e-14 117.656 34.08"></polyline>
                </g>
                <path d="M70.1766872,23.669 C70.1766872,27.615 62.4246872,30.812 52.8626872,30.812 C43.3006872,30.812 35.5486872,27.615 35.5486872,23.669 C35.5486872,19.725 43.3006872,16.527 52.8626872,16.527 C62.4246872,16.527 70.1766872,19.725 70.1766872,23.669" id="Fill-1658" fill="#0B9B97"></path>
                <path d="M52.9056872,6 C52.9056872,6 57.7976872,10.602 57.4306872,16.069 C57.0856872,21.253 52.3076872,23.465 52.3076872,23.465 C52.3076872,23.465 47.9456872,21.995 48.2956872,15.422 C48.6446872,8.85 52.9056872,6 52.9056872,6" id="Fill-1659" fill="#F9F0E8"></path>
                <path d="M35.0806872,27.023 C35.0806872,27.023 38.6946872,24.316 43.6716872,22.025 C48.3916872,19.852 53.5376872,21.762 53.5376872,21.762 C53.5376872,21.762 54.3296872,26.296 48.3886872,29.13 C42.4486872,31.963 35.0806872,27.023 35.0806872,27.023" id="Fill-1660" fill="#F2C7EF"></path>
                <path d="M52.9136872,23.038 C52.9136872,23.038 56.4276872,10.629 71.4446872,15.735 C71.4446872,15.735 68.3176872,25.668 52.9136872,23.038" id="Fill-1661" fill="#F2C7EF"></path>
                <path d="M37.0026872,12.679 C37.0026872,12.679 42.8256872,11.938 46.6756872,14.382 C50.5276872,16.827 51.0236872,22.411 51.0236872,22.411 C51.0236872,22.411 46.9346872,23.759 41.7076872,20.782 C36.4796872,17.805 37.0026872,12.679 37.0026872,12.679" id="Fill-1662" fill="#F2C7EF"></path>
                <path d="M52.3556872,21.77 C52.3556872,21.77 57.3066872,21.574 60.4636872,24.981 C63.6206872,28.387 64.0696872,32.959 64.0696872,32.959 C64.0696872,32.959 57.6216872,33.423 54.4366872,29.499 C51.2526872,25.573 52.3556872,21.77 52.3556872,21.77" id="Fill-1663" fill="#F9F0E8"></path>
                <path d="M57.1576872,18.096 C57.0476872,17.867 56.7716872,17.771 56.5436872,17.88 C55.7946872,18.241 55.0946872,18.714 54.4696872,19.271 L55.0376872,17.698 C55.1236872,17.459 54.9996872,17.195 54.7596872,17.108 C54.5206872,17.023 54.2566872,17.146 54.1716872,17.385 L53.3236872,19.739 L53.3236872,16.604 C53.3236872,16.35 53.1176872,16.144 52.8626872,16.144 C52.6086872,16.144 52.4026872,16.35 52.4026872,16.604 L52.4026872,19.933 L52.3376872,19.936 L52.1136872,19.963 C51.9966872,19.462 51.8946872,18.944 51.7976872,18.43 C51.6776872,17.793 51.5646872,17.193 51.4196872,16.635 C51.3556872,16.389 51.1036872,16.243 50.8576872,16.306 C50.6116872,16.371 50.4646872,16.622 50.5286872,16.868 C50.6666872,17.395 50.7766872,17.98 50.8936872,18.6 C50.9266872,18.78 50.9616872,18.959 50.9966872,19.14 L49.6726872,16.691 C49.5516872,16.467 49.2726872,16.384 49.0486872,16.504 C48.8256872,16.626 48.7426872,16.905 48.8636872,17.128 L50.4836872,20.126 C50.5696872,20.287 50.6496872,20.439 50.7206872,20.586 L50.7136872,20.594 L49.2516872,18.765 C49.0926872,18.567 48.8026872,18.535 48.6046872,18.693 C48.4066872,18.852 48.3746872,19.142 48.5326872,19.34 L49.4856872,20.534 C48.7366872,20.183 48.0456872,19.768 47.4626872,19.164 C47.2856872,18.98 46.9946872,18.975 46.8116872,19.151 C46.6286872,19.328 46.6236872,19.619 46.7996872,19.801 C47.7206872,20.758 48.8576872,21.293 49.9956872,21.755 C49.8326872,22.272 49.8426872,22.696 49.8426872,22.696 C51.0266872,22.922 49.8426872,22.696 51.0266872,22.922 L51.3216872,22.831 L51.3266872,22.836 C51.4176872,22.951 51.5506872,23.01 51.6866872,23.01 C51.7876872,23.01 51.8886872,22.977 51.9736872,22.91 C52.0806872,22.824 52.1346872,22.701 52.1416872,22.574 L52.2976872,22.525 L52.3376872,22.53 L52.5466872,22.48 L52.5916872,22.451 L52.8256872,22.515 L52.8506872,22.515 C53.2226872,22.495 53.5906872,22.432 53.9476872,22.333 L54.6036872,22.411 C54.6036872,22.411 54.6176872,22.287 54.6126872,22.094 C55.4426872,21.736 56.1796872,21.165 56.7226872,20.434 C56.8746872,20.23 56.8316872,19.942 56.6286872,19.791 C56.4226872,19.638 56.1346872,19.681 55.9836872,19.885 C55.5826872,20.425 55.0516872,20.859 54.4526872,21.155 C54.4086872,21.029 54.3526872,20.903 54.2836872,20.783 C55.0146872,19.918 55.9256872,19.199 56.9416872,18.71 C57.1716872,18.6 57.2666872,18.325 57.1576872,18.096" id="Fill-1664" fill="#E87415"></path>
                <path d="M91.0226872,21.067 C95.7406872,23.791 95.7656872,28.207 91.0766872,30.932 C86.3896872,33.656 78.7646872,33.656 74.0476872,30.932 C69.3276872,28.207 71.0326872,21.865 81.2306872,24.831 C73.1666872,19.901 86.3026872,18.341 91.0226872,21.067" id="Fill-1693" fill="#58960F"></path>
                <path d="M77.7146872,41.829 C82.4316872,44.553 82.4566872,48.969 77.7676872,51.694 C73.0806872,54.418 65.4556872,54.418 60.7376872,51.694 C56.0176872,48.969 57.7236872,42.626 67.9216872,45.592 C59.8566872,40.664 72.9946872,39.104 77.7146872,41.829" id="Fill-1695" fill="#58960F"></path>
                <path d="M32.0726872,35.584 C27.3546872,38.308 27.3296872,42.725 32.0186872,45.45 C36.7056872,48.173 44.3306872,48.173 49.0476872,45.45 C53.7676872,42.725 52.0626872,36.382 41.8646872,39.348 C49.9286872,34.418 36.7926872,32.86 32.0726872,35.584" id="Fill-1699" fill="#58960F"></path>
            </g>
        </g>
    </g>
</svg>