<?xml version="1.0" encoding="UTF-8"?>
<svg width="119px" height="138px" viewBox="0 0 119 138" version="1.1" xmlns="http://www.w3.org/2000/svg" xmlns:xlink="http://www.w3.org/1999/xlink">
    <title>Group 18</title>
    <g id="Page-1" stroke="none" stroke-width="1" fill="none" fill-rule="evenodd">
        <g id="28_R2FtZV9jaGlrZW4tMDE" transform="translate(-170.000000, -713.000000)">
            <g id="Group-18" transform="translate(170.156000, 713.000000)">
                <path d="M88.3907901,91.58675 C92.5507901,93.98875 92.5727901,97.88275 88.4387901,100.28475 C84.3057901,102.68575 77.5837901,102.68575 73.4247901,100.28475 C69.2637901,97.88275 69.2417901,93.98875 73.3737901,91.58775 C77.5087901,89.18475 84.2307901,89.18475 88.3907901,91.58675" id="Fill-680" fill="#25B8BF"></path>
                <path d="M40.6037901,87.26975 C43.5347901,88.96275 43.5507901,91.70775 40.6367901,93.40075 C37.7237901,95.09375 32.9857901,95.09375 30.0537901,93.40075 C27.1207901,91.70775 27.1057901,88.96275 30.0187901,87.26975 C32.9317901,85.57675 37.6707901,85.57675 40.6037901,87.26975" id="Fill-681" fill="#25B8BF"></path>
                <path d="M52.2567901,99.90275 C54.3447901,101.10775 54.3567901,103.06275 52.2807901,104.26875 C50.2057901,105.47575 46.8307901,105.47575 44.7427901,104.26875 C42.6537901,103.06275 42.6417901,101.10775 44.7177901,99.90275 C46.7927901,98.69575 50.1677901,98.69575 52.2567901,99.90275" id="Fill-684" fill="#25B8BF"></path>
                <g id="Group-17" transform="translate(0.000000, 63.986000)">
                    <polyline id="Fill-807" fill="#85BC0C" points="59.409 0.227 59.395 5.254 0.758 39.33 0.773 34.302 59.409 0.227"></polyline>
                    <polyline id="Fill-1086" fill="#5C8308" points="117.384 34.114 117.37 39.141 58.35 5.066 58.364 0.038 117.384 34.114"></polyline>
                    <polyline id="Fill-1088" fill="#3FA2B2" points="117.67 34.076 117.656 39.104 59.02 73.179 59.034 68.152 117.67 34.076"></polyline>
                    <polyline id="Fill-1089" fill="#19737C" points="59.034 68.152 59.02 73.179 0 39.104 0.014 34.077 59.034 68.152"></polyline>
                    <polyline id="Fill-1090" fill="#25B8BF" points="117.67 34.075 59.034 68.152 0.014 34.076 58.651 2.84217094e-14 117.67 34.075"></polyline>
                </g>
                <path d="M76.8617327,100.006532 C76.8617327,104.216532 68.6047327,107.616532 58.4177327,107.616532 C48.2317327,107.616532 39.9747327,104.216532 39.9747327,100.006532 C39.9747327,95.8065324 48.2317327,92.4065324 58.4177327,92.4065324 C68.6047327,92.4065324 76.8617327,95.8065324 76.8617327,100.006532" id="Fill-791" fill="#0B9B97"></path>
                <path d="M64.6867327,101.046532 C64.0527327,101.046532 63.5147327,100.566532 63.4587327,99.9165324 C59.2327327,50.7365324 88.4707327,18.1885324 88.7667327,17.8635324 C89.2267327,17.3615324 90.0077327,17.3275324 90.5087327,17.7875324 C91.0107327,18.2465324 91.0457327,19.0275324 90.5867327,19.5295324 C90.2977327,19.8455324 61.7857327,51.6465324 65.9167327,99.7065324 C65.9757327,100.386532 65.4717327,100.986532 64.7937327,101.046532 L64.6867327,101.046532" id="Fill-792" fill="#57A017"></path>
                <path d="M73.9247327,47.5265324 C73.5107327,47.5265324 73.0907327,47.4465324 72.6877327,47.2665324 C71.1277327,46.5865324 70.4177327,44.7665324 71.1017327,43.2035324 C78.4067327,26.5375324 87.0377327,17.0125324 87.4027327,16.6145324 C88.5527327,15.3615324 90.5007327,15.2735324 91.7587327,16.4235324 C93.0147327,17.5715324 93.1007327,19.5225324 91.9517327,20.7785324 C91.8317327,20.9095324 83.6017327,30.0495324 76.7507327,45.6765324 C76.2437327,46.8365324 75.1117327,47.5265324 73.9247327,47.5265324" id="Fill-793" fill="#7C661E"></path>
                <path d="M49.2007327,101.046532 L49.0947327,101.046532 C48.4157327,100.986532 47.9117327,100.386532 47.9717327,99.7065324 C51.4847327,58.8265324 27.2607327,31.8555324 27.0167327,31.5875324 C26.5557327,31.0845324 26.5897327,30.3055324 27.0917327,29.8445324 C27.5957327,29.3845324 28.3747327,29.4185324 28.8347327,29.9205324 C29.0877327,30.1965324 54.0327327,57.9765324 50.4287327,99.9165324 C50.3737327,100.566532 49.8347327,101.046532 49.2007327,101.046532" id="Fill-794" fill="#57A017"></path>
                <path d="M41.3347327,55.7565324 C40.1487327,55.7565324 39.0167327,55.0665324 38.5097327,53.9165324 C32.6977327,40.6515324 25.7187327,32.9105324 25.6497327,32.8335324 C24.5017327,31.5755324 24.5917327,29.6265324 25.8477327,28.4795324 C27.1047327,27.3305324 29.0507327,27.4165324 30.1997327,28.6715324 C30.5117327,29.0125324 37.9087327,37.1775324 44.1587327,51.4365324 C44.8417327,52.9965324 44.1327327,54.8165324 42.5717327,55.4965324 C42.1687327,55.6765324 41.7487327,55.7565324 41.3347327,55.7565324" id="Fill-795" fill="#7C661E"></path>
                <path d="M56.8627327,103.516532 C56.2307327,103.516532 55.6917327,103.036532 55.6357327,102.386532 C53.8717327,82.4465324 53.9367327,62.2665324 55.8277327,42.4045324 C57.0887327,29.1525324 59.1877327,15.8325324 62.0617327,2.81853241 C62.2087327,2.15353241 62.8597327,1.73653241 63.5317327,1.87953241 C64.1967327,2.02753241 64.6177327,2.68653241 64.4707327,3.35053241 C61.6167327,16.2675324 59.5357327,29.4865324 58.2827327,42.6375324 C56.4057327,62.3465324 56.3427327,82.3765324 58.0927327,102.176532 C58.1537327,102.846532 57.6517327,103.446532 56.9727327,103.506532 L56.8627327,103.516532" id="Fill-796" fill="#57A017"></path>
                <path d="M57.0597327,45.6065324 C56.9617327,45.6065324 56.8627327,45.5965324 56.7627327,45.5865324 C55.0687327,45.4265324 53.8227327,43.9245324 53.9867327,42.2285324 C55.2547327,28.9025324 57.3637327,15.5075324 60.2547327,2.41953241 C60.6217327,0.755532407 62.2707327,-0.292467593 63.9317327,0.0725324066 C65.5947327,0.440532407 66.6457327,2.08653241 66.2787327,3.74953241 C63.4417327,16.5925324 61.3697327,29.7365324 60.1247327,42.8135324 C59.9727327,44.4065324 58.6297327,45.6065324 57.0597327,45.6065324" id="Fill-797" fill="#7C661E"></path>
                <path d="M64.6017327,101.016532 C64.6017327,101.016532 61.6037327,80.0165324 73.6037327,68.2365324 L66.2397327,101.056532 L64.6017327,101.016532" id="Fill-798" fill="#63B50B"></path>
                <path d="M49.8217327,100.716532 C49.8217327,100.716532 48.9507327,78.9265324 34.6297327,69.2465324 L48.1747327,101.056532 L49.8217327,100.716532" id="Fill-799" fill="#63B50B"></path>
                <path d="M57.3807327,102.426532 C57.3807327,102.426532 56.1257327,76.6965324 41.5577327,64.6165324 L55.7297327,102.756532 L57.3807327,102.426532" id="Fill-800" fill="#539933"></path>
            </g>
        </g>
    </g>
</svg>