<?xml version="1.0" encoding="UTF-8"?>
<svg width="119px" height="125px" viewBox="0 0 119 125" version="1.1" xmlns="http://www.w3.org/2000/svg" xmlns:xlink="http://www.w3.org/1999/xlink">
    <title>Group 8</title>
    <g id="Page-1" stroke="none" stroke-width="1" fill="none" fill-rule="evenodd">
        <g id="28_R2FtZV9jaGlrZW4tMDE" transform="translate(-20.000000, -1000.000000)">
            <g id="Group-8" transform="translate(20.177000, 1000.000000)">
                <g id="Fill-1051" transform="translate(0.000000, 56.000000)" fill="#0BAFAF">
                    <polyline id="Fill-1044" points="117.656 34.08 59.02 68.15 0 34.08 58.636 4.26325641e-14 117.656 34.08"></polyline>
                </g>
                <path d="M36.5822901,89.26975 C39.5132901,90.96275 39.5292901,93.70675 36.6152901,95.39975 C33.7032901,97.09275 28.9652901,97.09275 26.0332901,95.39975 C23.0992901,93.70775 23.0852901,90.96275 25.9972901,89.26975 C28.9112901,87.57675 33.6492901,87.57675 36.5822901,89.26975" id="Fill-646" fill="#25B8BF"></path>
                <path d="M92.9120292,92.9045 C95.0000292,94.1105 95.0110292,96.0655 92.9360292,97.2725 C90.8600292,98.4775 87.4850292,98.4775 85.3970292,97.2725 C83.3080292,96.0665 83.2970292,94.1105 85.3720292,92.9045 C87.4470292,91.6985 90.8220292,91.6985 92.9120292,92.9045" id="Fill-649" fill="#25B8BF"></path>
                <path d="M83.9111558,79.904375 C86.0001558,81.110375 86.0111558,83.065375 83.9361558,84.271375 C81.8611558,85.477375 78.4861558,85.477375 76.3971558,84.271375 C74.3081558,83.065375 74.2971558,81.110375 76.3711558,79.905375 C78.4481558,78.698375 81.8231558,78.698375 83.9111558,79.904375" id="Fill-651" fill="#25B8BF"></path>
                <g id="Group-7" transform="translate(40.823000, 0.000000)">
                    <path d="M31.921,95.5763451 C31.921,98.5833451 26.012,101.021345 18.721,101.021345 C11.431,101.021345 5.521,98.5833451 5.521,95.5763451 C5.521,92.5683451 11.431,90.1303451 18.721,90.1303451 C26.012,90.1303451 31.921,92.5683451 31.921,95.5763451" id="Fill-1091" fill="#0B9B97"></path>
                    <path d="M21.893,95.8803451 C21.259,95.8803451 20.721,95.3943451 20.665,94.7523451 C16.662,48.1733451 44.356,17.3383451 44.637,17.0313451 C45.097,16.5293451 45.877,16.4963451 46.378,16.9553451 C46.881,17.4143451 46.916,18.1943451 46.457,18.6973451 C46.184,18.9963451 19.216,49.0763451 23.123,94.5403451 C23.182,95.2203451 22.678,95.8173451 22,95.8753451 L21.893,95.8803451" id="Fill-1092" fill="#57A017"></path>
                    <path d="M30.637,45.3183451 C30.223,45.3183451 29.803,45.2343451 29.4,45.0583451 C27.84,44.3743451 27.13,42.5553451 27.813,40.9953451 C34.74,25.1953451 42.926,16.1593451 43.272,15.7813451 C44.422,14.5273451 46.37,14.4393451 47.629,15.5903451 C48.884,16.7393451 48.971,18.6883451 47.823,19.9453451 C47.707,20.0723451 39.935,28.7063451 33.463,43.4713451 C32.956,44.6293451 31.823,45.3183451 30.637,45.3183451" id="Fill-1093" fill="#7C661E"></path>
                    <path d="M14.487,98.2163451 C13.854,98.2163451 13.316,97.7323451 13.259,97.0903451 C11.589,78.2073451 11.651,59.0983451 13.442,40.2983451 C14.636,27.7573451 16.623,15.1463451 19.344,2.81934508 C19.491,2.15434508 20.14,1.73834508 20.814,1.88134508 C21.479,2.02734508 21.9,2.68634508 21.753,3.35134508 C19.052,15.5803451 17.082,28.0913451 15.897,40.5313451 C14.122,59.1823451 14.06,78.1393451 15.717,96.8733451 C15.777,97.5523451 15.276,98.1503451 14.596,98.2113451 L14.487,98.2163451" id="Fill-1094" fill="#57A017"></path>
                    <path d="M14.673,43.4983451 C14.576,43.4983451 14.477,43.4943451 14.377,43.4843451 C12.682,43.3223451 11.438,41.8183451 11.601,40.1223451 C12.801,27.5063451 14.799,14.8213451 17.537,2.42034508 C17.904,0.758345084 19.545,-0.294654916 21.213,0.0733450836 C22.877,0.441345084 23.927,2.08734508 23.56,3.75034508 C20.876,15.9073451 18.917,28.3413451 17.739,40.7073451 C17.587,42.3043451 16.244,43.4983451 14.673,43.4983451" id="Fill-1095" fill="#7C661E"></path>
                    <path d="M21.812,95.7853451 C21.812,95.7853451 18.974,75.9053451 30.333,64.7533451 L23.363,95.8263451 L21.812,95.7853451" id="Fill-1096" fill="#63B50B"></path>
                    <path d="M19.908,96.4963451 C19.908,96.4963451 22.707,76.0463451 10.965,64.6513451 L18.315,96.5483451 L19.908,96.4963451" id="Fill-1097" fill="#539933"></path>
                    <path d="M14.978,97.1173451 C14.978,97.1173451 13.79,72.7603451 0,61.3293451 L13.415,97.4343451 L14.978,97.1173451" id="Fill-1098" fill="#539933"></path>
                </g>
            </g>
        </g>
    </g>
</svg>